<svg xmlns="http://www.w3.org/2000/svg" width="240.464" height="107.282" viewBox="0 0 240.464 107.282">
  <g id="Group_18715" data-name="Group 18715" transform="translate(-1559.801 -11.859)">
    <g id="Group_17983" data-name="Group 17983" transform="translate(1682.384 11.859)">
      <path id="Path_1" data-name="Path 1" d="M1318.564,224.562v1.3h-1.307v1.3h-1.307v1.308h3.922v-3.91Z" transform="translate(-1246.789 -224.562)" fill="#fff"/>
      <path id="Path_2" data-name="Path 2" d="M1174.41,224.562v1.3h1.307v1.3h1.307v1.308H1173.1v-3.91Z" transform="translate(-1128.36 -224.562)" fill="#fff"/>
      <rect id="Rectangle_1" data-name="Rectangle 1" width="28.339" height="1.311" transform="translate(44.743 5.22)" fill="#fff"/>
      <rect id="Rectangle_2" data-name="Rectangle 2" width="3.078" height="35.09" transform="translate(70.003 50.589)" fill="#fff"/>
      <path id="Path_3" data-name="Path 3" d="M1193.386,520.517l0,32.013h-1.948v-4.8h-3.078v0l-15.167,0v3.077l15.166,0v1.719l-15.165,0V555.6h23.291v-3.077l0-32.013Z" transform="translate(-1128.433 -469.928)" fill="#fff"/>
      <path id="Path_4" data-name="Path 4" d="M1176.273,523.612h7.043v1.967h0v3.078l8.093,0v-.031h0v-5.013h.031v-3.077h-8.124l-9.927,0v.011h-.192l0,25.227h3.077Zm12.057,0v1.967h-1.936l0-1.968Z" transform="translate(-1128.434 -469.941)" fill="#fff"/>
      <path id="Path_5" data-name="Path 5" d="M1234.16,584.75v0h6.233v-5.026h-1.917V582.8h-1.2v-3.076h-1.917V582.8h-1.2v-3.075h-1.917v5.027Z" transform="translate(-1177.391 -519.013)" fill="#fff"/>
      <path id="Path_6" data-name="Path 6" d="M1215.906,565.047V561.97h-.705l-7.323,0v0h-.12l0,5.19h-1.97l0-17.119h-3.078l0,20.2h3.078v0l10.118,0V567.16h0l0-2.113Zm-3.079,2.112h-1.994l0-2.114h1.993Z" transform="translate(-1152.903 -494.404)" fill="#fff"/>
      <g id="Group_1" data-name="Group 1" transform="translate(0 7.741)">
        <path id="Path_7" data-name="Path 7" d="M1119.635,550.567a.3.3,0,0,0-.135.185l-.572,2.327a.3.3,0,0,0,.219.361l2.262.556-.536,2.184a.3.3,0,0,0,.22.361l2.326.571.072.009.154-.043a.3.3,0,0,0,.135-.185l.571-2.327a.3.3,0,0,0-.218-.361l-2.263-.555.537-2.184a.3.3,0,0,0-.219-.361l-2.327-.571a.3.3,0,0,0-.226.034" transform="translate(-1083.438 -502.548)" fill="#fff"/>
        <path id="Path_8" data-name="Path 8" d="M1037.911,634.034a.3.3,0,0,0,.19.128l.083,0,.141-.049,1.992-1.33a.3.3,0,0,0,.083-.414l-1.33-1.992a.3.3,0,0,0-.191-.127.3.3,0,0,0-.223.045l-1.993,1.33a.3.3,0,0,0-.082.414Z" transform="translate(-1015.133 -568.643)" fill="#fff"/>
        <path id="Path_9" data-name="Path 9" d="M1054.284,656.675a.3.3,0,0,0,.19.127l.083.005.141-.049,1.993-1.331a.3.3,0,0,0,.082-.413l-1.33-1.993a.3.3,0,0,0-.19-.127.293.293,0,0,0-.223.045l-1.993,1.33a.3.3,0,0,0-.082.414Z" transform="translate(-1028.707 -587.414)" fill="#fff"/>
        <path id="Path_10" data-name="Path 10" d="M1117.955,523.609h2.4a.3.3,0,0,0,.3-.3v-2.4a.3.3,0,0,0-.3-.3h-2.4a.3.3,0,0,0-.3.3v2.4a.3.3,0,0,0,.3.3" transform="translate(-1082.391 -477.752)" fill="#fff"/>
        <path id="Path_11" data-name="Path 11" d="M1140.614,523.609h2.4a.3.3,0,0,0,.3-.3v-2.4a.3.3,0,0,0-.3-.3h-2.4a.3.3,0,0,0-.3.3v2.4a.3.3,0,0,0,.3.3" transform="translate(-1101.176 -477.752)" fill="#fff"/>
        <path id="Path_12" data-name="Path 12" d="M986.129,563.891l-2.244-.84h0a.3.3,0,0,0-.385.175l-.834,2.231-2.109-.79a.3.3,0,0,0-.384.175l-.841,2.243a.3.3,0,0,0,.175.385l2.244.84.1.019.124-.027a.3.3,0,0,0,.155-.167l.836-2.232,2.109.79.1.019.125-.027a.293.293,0,0,0,.155-.167l.841-2.244a.3.3,0,0,0-.175-.384" transform="translate(-967.696 -512.916)" fill="#fff"/>
        <path id="Path_13" data-name="Path 13" d="M1024.943,608.477a.3.3,0,0,0-.045-.224l-1.335-1.99a.3.3,0,0,0-.415-.081l-1.989,1.336a.3.3,0,0,0-.081.415l1.334,1.989a.3.3,0,0,0,.191.126l.075.006.149-.051,1.989-1.335a.294.294,0,0,0,.127-.19" transform="translate(-1002.279 -548.649)" fill="#fff"/>
        <path id="Path_14" data-name="Path 14" d="M1055.761,668.431l-21.011,17.687,2.333,1.921,18.678-15.631Z" transform="translate(-1013.656 -600.3)" fill="#fff"/>
        <path id="Path_15" data-name="Path 15" d="M953.451,541.523,930.495,559.3l-3.353-3.413,8.617-5.853a.207.207,0,0,0,.053-.29l-1.479-2.156a.208.208,0,0,0-.289-.053l-4.265,2.884c-.335-.553-.7-1.156-1.08-1.774l4.309-2.895a.206.206,0,0,0,.056-.288l-1.456-2.171a.208.208,0,0,0-.289-.056l-.16.107-4.052,2.721,0-.006c-.328-.525-.676-1.125-1.022-1.748l4.2-2.506a.207.207,0,0,0,.074-.285l-1.342-2.244a.207.207,0,0,0-.285-.074l-4.067,2.428c-.291-.57-.549-1.087-.758-1.512l4.067-2.236c.083-.053.159-.122.091-.24l-1.3-2.358a.183.183,0,0,0-.268-.049l-8.186,4.48a63.146,63.146,0,0,1-3.939-16.868c-.008-.115-.047-.154-.182-.14l-2.709.288c-.089.01-.137.064-.127.182a67.628,67.628,0,0,0,4.491,19.788l.659,1.222,4.742-2.608c.768,1.553,2.116,4.2,3.293,6.084.834,1.333,1.9,3.086,2.732,4.455l-3.772,2.549a.693.693,0,0,0-.18.887,54.843,54.843,0,0,0,6.7,7.569.618.618,0,0,0,.7-.035c.2-.163,15.8-12.1,22.735-17.669Z" transform="translate(-911.346 -479.479)" fill="#fff"/>
        <path id="Path_16" data-name="Path 16" d="M950.356,534.695l.011.033.03.016c.039.023.391.213.525-.014l1.583-2.682-.017-.042c-.435-1.07-1.589-5.334-1.653-5.485a24.51,24.51,0,0,0,1.777-2.7l16.346-.3-8.7,3.248.628,1.5a88.1,88.1,0,0,0,5.108,9.24,48.584,48.584,0,0,0,5.876,7.766s.128.122.328.291a1.191,1.191,0,0,0,1.118.1c.235-.177,8.552-5.961,10.226-7.218a1.11,1.11,0,0,0,.293-.63V535.4s-.145-.336-.4-.39c-1.837-.387-10.213-1.469-10.53-1.538a1.136,1.136,0,0,0-.825.136l-2.041,1.289c-.147.093-.1.337-.01.457.068.092,3.193,4.347,4.367,5.936l-1.37.894a43.275,43.275,0,0,1-4.468-6.282c-.371-.589-.708-1.131-1.03-1.654l7.716-4.15c.208.061.26-.121.181-.265l-1.141-2.15a.28.28,0,0,0-.406-.116l-7.833,4.212c-.741-1.277-1.3-2.317-1.7-3.181l11.068-4.47a.826.826,0,0,0,.557-.924l-.266-1.594a.746.746,0,0,0-.82-.59H951.939a1.3,1.3,0,0,0-1.152.542l-2.68,4.151a1.6,1.6,0,0,0-.129.967c.684,2.363,2.359,7.96,2.378,8.018m30.343,2.476-3.82,2.494-2.115-2.979Z" transform="translate(-941.695 -478.085)" fill="#fff"/>
        <path id="Path_17" data-name="Path 17" d="M1295.392,743.337l.363-.974c.313-.8.558-1.81,1.606-1.81h2.269v-1.832H1297a2.638,2.638,0,0,0-2.181,1.681c-.426-.495-.807-.927-.834-.957l-.243-.276h-2.29V741h1.554c.474.374,2.386,2.336,2.386,2.336" transform="translate(-1226.479 -658.575)" fill="#fff"/>
        <path id="Path_18" data-name="Path 18" d="M1119.342,716.854a.3.3,0,0,0-.356.227l-.5,2.275-2.2-.484a.3.3,0,0,0-.356.228l-.515,2.34a.3.3,0,0,0,.227.355l2.34.516a.3.3,0,0,0,.356-.227l.5-2.275,2.2.485a.3.3,0,0,0,.355-.228l.515-2.34.006-.072-.047-.153a.3.3,0,0,0-.187-.131Z" transform="translate(-1080.53 -640.44)" fill="#fff"/>
        <path id="Path_19" data-name="Path 19" d="M1206.9,740.773a.3.3,0,0,0,.422.006l1.673-1.621,1.565,1.614a.3.3,0,0,0,.422.006l1.721-1.666.045-.057.046-.154a.3.3,0,0,0-.085-.212l-1.667-1.72a.292.292,0,0,0-.209-.091.3.3,0,0,0-.213.084l-1.673,1.621-1.565-1.615a.3.3,0,0,0-.422-.006l-1.721,1.667a.3.3,0,0,0-.091.21.3.3,0,0,0,.084.212Z" transform="translate(-1154.928 -657.048)" fill="#fff"/>
        <path id="Path_20" data-name="Path 20" d="M1429.156,520.615h-34.717a.238.238,0,0,0-.238.238v2.554a.238.238,0,0,0,.238.238h34.754a.352.352,0,0,0,.352-.351V521a.39.39,0,0,0-.389-.389" transform="translate(-1311.664 -477.751)" fill="#fff"/>
        <path id="Path_21" data-name="Path 21" d="M1424.078,554.448a.3.3,0,0,0,.3-.3v-2.4a.3.3,0,0,0-.3-.3h-2.4a.3.3,0,0,0-.3.3v2.4a.3.3,0,0,0,.3.3Z" transform="translate(-1334.201 -503.319)" fill="#fff"/>
        <path id="Path_22" data-name="Path 22" d="M1356.468,741.3l.149-.04,2.071-1.2a.291.291,0,0,0,.139-.182.3.3,0,0,0-.031-.227l-1.2-2.071a.3.3,0,0,0-.408-.108l-2.072,1.2a.3.3,0,0,0-.107.407l1.2,2.071a.3.3,0,0,0,.258.149" transform="translate(-1279.135 -657.501)" fill="#fff"/>
        <path id="Path_23" data-name="Path 23" d="M1414.99,557.334a.779.779,0,0,0-.3.618V561.4a.786.786,0,0,0,.324.635c.576.4,12.523,9.432,12.915,9.65a.581.581,0,0,0,.264.042c.281,0,3.339-.28,4.1-.36a.374.374,0,0,0,.239-.135,64.228,64.228,0,0,0,2.955-6.334.5.5,0,0,0-.034-.394,17.126,17.126,0,0,0-1.37-2.024l-.212-.287c-.046-.061-.144-.153-.2-.077-.332.984-2.577,6.005-2.735,6.233-.461.054-2.114.209-2.513.215l-10.683-7.765,10.25,2.23a1.421,1.421,0,0,0,1.759-1.266l.535-6.947a.767.767,0,0,0-.133-.5l-1.817-2.639a.772.772,0,0,0-.636-.333l-6.794.025a.236.236,0,0,0-.236.237v2.556a.237.237,0,0,0,.237.238l6.12-.024a.234.234,0,0,1,.234.253l-.38,4.538-11.214-1.979a.778.778,0,0,0-.672.144" transform="translate(-1328.651 -503.23)" fill="#fff"/>
        <path id="Path_24" data-name="Path 24" d="M1393.3,552.451a.776.776,0,0,0-.6-.225c-.414,0-9.618-.2-9.618-.2a.365.365,0,0,0-.255.124.351.351,0,0,0-.1.259l.008,2.188.058.182,6.215,11.082a49.041,49.041,0,0,1-3.127,6.643,34.4,34.4,0,0,1-3.558,5.214l-.344.416a.248.248,0,0,1-.34.043l-27.672-19.808V562.1l27.968,20.035a.433.433,0,0,0,.564-.05l.655-.682.045-.043a38.577,38.577,0,0,0,5.149-7.488,71.271,71.271,0,0,0,3.787-7.774l.021-.067.04-.081a64.679,64.679,0,0,0,3.05-10.6.3.3,0,0,0-.049-.253l-1.9-2.649m-3.015,9.223c-.883-1.591-2.1-3.714-3.645-6.26l-.01-.179a.17.17,0,0,1,.153-.092l5.1.2.138.068.029.151Z" transform="translate(-1278.313 -503.792)" fill="#fff"/>
        <path id="Path_25" data-name="Path 25" d="M1353.974,624.812v3.771l24.066,17.94a.763.763,0,0,0,1.063-.157l1.261-1.414a.429.429,0,0,0-.088-.6Z" transform="translate(-1278.314 -564.137)" fill="#fff"/>
        <path id="Path_26" data-name="Path 26" d="M1354.019,524.515h3.346v1.2a.19.19,0,0,0,.174.152h1.264a.194.194,0,0,0,.178-.183V520.7c0-.1-.047-.186-.16-.186h-1.235a.5.5,0,0,0-.221.064v2.32h-1.8v-2.2c0-.1-.046-.186-.159-.186h-1.235a.5.5,0,0,0-.221.064v3.782l.015.027Z" transform="translate(-1278.298 -477.669)" fill="#fff"/>
        <path id="Path_27" data-name="Path 27" d="M1136.279,665.011l11.257,8.524-2.992,2.99-.187,2.332,3.725,4.153c-.948.559-1.974,1.127-3.076,1.687l-3.935-6.614-.016.009-.043-.074a.3.3,0,0,0-.408-.108l-2.071,1.2a.3.3,0,0,0-.108.408l.059.1-.017.011,3.787,6.363c-1.106.487-2.268.957-3.493,1.4-.085.031-.169.057-.254.087l-3.588-7.923a.693.693,0,0,0-1.011-.293l-9.99,6.568.013-10.723a.309.309,0,0,0-.3-.31l-2.433,0a.3.3,0,0,0-.3.3l-.019,15.681c-.5.015-.97.022-1.385.022h-1v-9.088a.6.6,0,0,0-.214-.427c-.651-.426-2.571-1.681-2.738-1.817a.583.583,0,0,0-.6.024c-.184.087-6.328,3.412-7.7,4.158a.662.662,0,0,0-.363.543c-.032.234-.3,2.179-.417,3.053a.936.936,0,0,0,.261.753c.133.137.787.757,1.61,1.529a37.461,37.461,0,0,1-6.051-1.51l6.1-12.569a.3.3,0,0,0-.124-.4l-2.544-1.553a.548.548,0,0,0-.515.044s-12.782,6.633-13.005,6.751a.7.7,0,0,0-.353.5c-.017.128-.333,2.439-.441,3.236a.726.726,0,0,0,.167.541c.143.192,3.824,4.259,3.824,4.259l2.435-1.671-3.738-4.428,10.271-5.556s-6.037,12-6.1,12.108c-.178.316-.129.575.117.677a51.23,51.23,0,0,0,9.338,2.547l4.823.955,2.114-3.058-4.982-4.589,5.743-3.081v10.983l2.88.135.035,0c.14,0,.321,0,.542,0a60.4,60.4,0,0,0,20.917-3.6,57.389,57.389,0,0,0,17.985-10.354l1.3-1.221L1136.279,661.2ZM1123.9,690.6v-1.04l9.118-6.143a.45.45,0,0,1,.666.2l1.969,4.786A60.023,60.023,0,0,1,1123.9,690.6m30.432-11.924c-.887.727-2.115,1.666-3.645,2.692l-3.169-3.531,2.46-2.458Z" transform="translate(-1060.618 -594.304)" fill="#fff"/>
        <path id="Path_28" data-name="Path 28" d="M1386.561,568.266,1385,569.884a.3.3,0,0,0-.084.213.3.3,0,0,0,.091.21l1.725,1.664a.3.3,0,0,0,.422-.008l1.663-1.724a.3.3,0,0,0-.008-.422l-1.676-1.617,1.561-1.619a.3.3,0,0,0-.008-.422l-1.724-1.664-.059-.044-.155-.04a.3.3,0,0,0-.209.092l-1.663,1.724a.3.3,0,0,0,.008.422Z" transform="translate(-1303.865 -514.06)" fill="#fff"/>
        <rect id="Rectangle_3" data-name="Rectangle 3" width="2.612" height="1.307" transform="translate(42.132 11.825)" fill="#fff"/>
        <rect id="Rectangle_4" data-name="Rectangle 4" width="4.782" height="1.307" transform="translate(48.503 11.825)" fill="#fff"/>
        <rect id="Rectangle_5" data-name="Rectangle 5" width="2.624" height="1.307" transform="translate(73.082 11.826)" fill="#fff"/>
        <rect id="Rectangle_6" data-name="Rectangle 6" width="4.782" height="1.307" transform="translate(64.306 11.825)" fill="#fff"/>
        <rect id="Rectangle_7" data-name="Rectangle 7" width="4.782" height="1.307" transform="translate(56.404 11.825)" fill="#fff"/>
        <rect id="Rectangle_8" data-name="Rectangle 8" width="1.305" height="1.383" transform="translate(46.023 11.745)" fill="#fff"/>
        <rect id="Rectangle_9" data-name="Rectangle 9" width="1.305" height="1.347" transform="translate(70.432 11.781)" fill="#fff"/>
        <rect id="Rectangle_10" data-name="Rectangle 10" width="2.612" height="1.307" transform="translate(42.132 19.024)" fill="#fff"/>
        <rect id="Rectangle_11" data-name="Rectangle 11" width="4.782" height="1.307" transform="translate(48.503 19.024)" fill="#fff"/>
        <rect id="Rectangle_12" data-name="Rectangle 12" width="2.624" height="1.307" transform="translate(73.082 19.024)" fill="#fff"/>
        <rect id="Rectangle_13" data-name="Rectangle 13" width="4.782" height="1.307" transform="translate(64.306 19.024)" fill="#fff"/>
        <rect id="Rectangle_14" data-name="Rectangle 14" width="4.782" height="1.307" transform="translate(56.404 19.024)" fill="#fff"/>
        <rect id="Rectangle_15" data-name="Rectangle 15" width="1.305" height="1.383" transform="translate(46.023 18.943)" fill="#fff"/>
        <rect id="Rectangle_16" data-name="Rectangle 16" width="1.305" height="1.347" transform="translate(70.432 18.979)" fill="#fff"/>
        <rect id="Rectangle_17" data-name="Rectangle 17" width="2.612" height="1.308" transform="translate(42.132 26.219)" fill="#fff"/>
        <rect id="Rectangle_18" data-name="Rectangle 18" width="4.782" height="1.308" transform="translate(48.503 26.219)" fill="#fff"/>
        <rect id="Rectangle_19" data-name="Rectangle 19" width="2.624" height="1.308" transform="translate(73.082 26.219)" fill="#fff"/>
        <rect id="Rectangle_20" data-name="Rectangle 20" width="4.782" height="1.308" transform="translate(64.306 26.219)" fill="#fff"/>
        <rect id="Rectangle_21" data-name="Rectangle 21" width="4.782" height="1.308" transform="translate(56.404 26.219)" fill="#fff"/>
        <rect id="Rectangle_22" data-name="Rectangle 22" width="1.305" height="1.383" transform="translate(46.023 26.138)" fill="#fff"/>
        <rect id="Rectangle_23" data-name="Rectangle 23" width="1.305" height="1.346" transform="translate(70.432 26.176)" fill="#fff"/>
        <path id="Path_29" data-name="Path 29" d="M1173.1,310.158h28.339V269.85H1173.1Zm2.584-12.784h-1.305v-1.308h1.305Zm0-7.213h-1.305v-1.308h1.305Zm0-7.218h-1.305v-1.308h1.305Zm5.956,24.31h-4.781v-1.334h4.781Zm0-2.667h-4.781V275l1.6-1.638h1.55l1.634,1.638Zm7.9,2.667h-4.782v-1.334h4.782Zm0-2.667h-4.782V275l1.6-1.638h1.55l1.635,1.638Zm7.9,2.667h-4.782v-1.334h4.782Zm0-2.667h-4.782V275l1.6-1.638h1.549l1.635,1.638Zm2.65-7.211h-1.305v-1.308h1.305Zm0-7.213h-1.305v-1.308h1.305Zm0-7.218h-1.305v-1.308h1.305Z" transform="translate(-1128.361 -269.85)" fill="#fff"/>
      </g>
    </g>
    <g id="Group_17991" data-name="Group 17991" transform="translate(-27 43.288)">
      <g id="Group_17984" data-name="Group 17984" transform="translate(1587.041 18.571)">
        <path id="Path_30" data-name="Path 30" d="M202.679,547.928h-3.8q-3.269,0-3.27-2.841a2.945,2.945,0,0,1,3.234-3.075,8.142,8.142,0,0,1,1.292.1,6.2,6.2,0,0,1,.961.214l.318.111v4.213h1.262Zm-5.757-7.385a.774.774,0,0,1,.233-.557.757.757,0,0,1,.563-.24.779.779,0,0,1,.564.228.765.765,0,0,1,.232.569.781.781,0,0,1-.226.563.815.815,0,0,1-1.139,0A.778.778,0,0,1,196.923,540.543Zm2.927,6.112v-3.148a2.707,2.707,0,0,0-1.163-.22,1.326,1.326,0,0,0-1.065.458,1.777,1.777,0,0,0-.391,1.194q0,1.716,1.836,1.715Zm-.968-6.112a.774.774,0,0,1,.233-.557.759.759,0,0,1,.563-.24.775.775,0,0,1,.558.234.756.756,0,0,1,.238.563.775.775,0,0,1-.232.557.756.756,0,0,1-.564.238.794.794,0,0,1-.8-.795Z" transform="translate(-195.612 -536.441)" fill="#fff"/>
        <path id="Path_31" data-name="Path 31" d="M232.321,559.692a.836.836,0,0,1-.478-.184.523.523,0,0,1,0-.9.821.821,0,0,1,.478-.19h1.445v-4.483h1.617v4.483h1.261v1.273Zm.7,2.254a.8.8,0,1,1,1.359-.563.777.777,0,0,1-.232.557.757.757,0,0,1-.564.238A.765.765,0,0,1,233.019,561.946Zm1.959,0a.8.8,0,1,1,1.121-1.128.758.758,0,0,1,.239.565.773.773,0,0,1-.233.557.756.756,0,0,1-.563.238A.766.766,0,0,1,234.978,561.946Z" transform="translate(-225.437 -548.205)" fill="#fff"/>
        <path id="Path_32" data-name="Path 32" d="M263.432,547.928h-6.895a.836.836,0,0,1-.478-.184.523.523,0,0,1,0-.9.822.822,0,0,1,.478-.19h.943a2.635,2.635,0,0,1,.367.024,1.606,1.606,0,0,1,.245.048l.073.012a2.031,2.031,0,0,1-.685-1.751,2.923,2.923,0,0,1,.838-2.113,3.12,3.12,0,0,1,2.346-.864,2.706,2.706,0,0,1,2.082.742,2.935,2.935,0,0,1,.685,2.074Zm-4.7-7.385a.773.773,0,0,1,.233-.557.756.756,0,0,1,.563-.24.777.777,0,0,1,.563.228.762.762,0,0,1,.233.569.777.777,0,0,1-.227.563.815.815,0,0,1-1.139,0A.78.78,0,0,1,258.73,540.543Zm3.122,6.112v-1.63q0-1.737-1.31-1.737a1.327,1.327,0,0,0-1.067.458,1.777,1.777,0,0,0-.391,1.194,1.694,1.694,0,0,0,.447,1.291,1.962,1.962,0,0,0,1.39.424Zm-1.163-6.112a.773.773,0,0,1,.233-.557.758.758,0,0,1,.563-.24.776.776,0,0,1,.558.234.761.761,0,0,1,.238.563.776.776,0,0,1-.232.557.757.757,0,0,1-.564.238.794.794,0,0,1-.8-.795Z" transform="translate(-245.514 -536.441)" fill="#fff"/>
        <path id="Path_33" data-name="Path 33" d="M300.609,562.8a4.268,4.268,0,0,1-1.029-.123l.122-1.285a3.568,3.568,0,0,0,.993.147,1.232,1.232,0,0,0,.992-.388,2.06,2.06,0,0,0,.331-1.328v-5.892h1.616v4.483h1.261v1.273h-1.261v.048a4.656,4.656,0,0,1-.128,1.152,2.881,2.881,0,0,1-.448.955,2.044,2.044,0,0,1-.936.7A4.029,4.029,0,0,1,300.609,562.8Z" transform="translate(-281.808 -548.205)" fill="#fff"/>
        <path id="Path_34" data-name="Path 34" d="M333.019,540.451a4.905,4.905,0,0,1-1.518-.178,1.339,1.339,0,0,1-.772-.668,1.511,1.511,0,0,1-.68.68,2.413,2.413,0,0,1-1.169.264,2.062,2.062,0,0,1-1.047-.258,1.251,1.251,0,0,1-.594-.7,1.575,1.575,0,0,1-1.628.858h-.429a.835.835,0,0,1-.478-.184.523.523,0,0,1,0-.9.82.82,0,0,1,.478-.19h.441a1.021,1.021,0,0,0,.857-.319,2.1,2.1,0,0,0,.244-1.2v-2.23h1.617v2.266a3.177,3.177,0,0,0,.166,1.231.673.673,0,0,0,.68.349.843.843,0,0,0,.747-.355,2.22,2.22,0,0,0,.245-1.213V534.94h1.556v3.073a1.132,1.132,0,0,0,.3.936,2.054,2.054,0,0,0,1.157.228h.331q.073-.735.074-1.471a15.055,15.055,0,0,0-.355-3.281l1.58-.222a14.67,14.67,0,0,1,.391,3.394q0,.857-.048,1.58h1.212v1.273Zm-3.944-7.325a.773.773,0,0,1,.233-.557.757.757,0,0,1,.563-.238.773.773,0,0,1,.558.232.8.8,0,0,1-.558,1.36.794.794,0,0,1-.8-.8Zm1.017-1.6a.776.776,0,0,1,.232-.557.757.757,0,0,1,.564-.238.794.794,0,0,1,.8.795.774.774,0,0,1-.233.557.759.759,0,0,1-.563.24.8.8,0,0,1-.8-.8Zm1,1.6a.792.792,0,1,1,.8.8.78.78,0,0,1-.557-.232A.758.758,0,0,1,331.1,533.126Z" transform="translate(-302.424 -528.964)" fill="#fff"/>
        <path id="Path_35" data-name="Path 35" d="M392.654,545.735h-3.062a.836.836,0,0,1-.478-.183.523.523,0,0,1,0-.9.82.82,0,0,1,.478-.19h1.445V537.1h1.617Z" transform="translate(-355.826 -534.248)" fill="#fff"/>
        <path id="Path_36" data-name="Path 36" d="M422.53,545.735V537.1h1.617v8.634Z" transform="translate(-383.742 -534.248)" fill="#fff"/>
        <path id="Path_37" data-name="Path 37" d="M464.131,547.928h-3.8q-3.269,0-3.27-2.841a2.945,2.945,0,0,1,3.234-3.075,8.144,8.144,0,0,1,1.292.1,6.2,6.2,0,0,1,.961.214l.318.111v4.213h1.262Zm-5.757-7.385a.774.774,0,0,1,.233-.557.757.757,0,0,1,.563-.24.78.78,0,0,1,.564.228.765.765,0,0,1,.232.569.781.781,0,0,1-.226.563.815.815,0,0,1-1.139,0A.778.778,0,0,1,458.375,540.543Zm2.927,6.112v-3.148a2.708,2.708,0,0,0-1.163-.22,1.325,1.325,0,0,0-1.065.458,1.776,1.776,0,0,0-.392,1.194q0,1.716,1.836,1.715Zm-.968-6.112a.774.774,0,0,1,.233-.557.759.759,0,0,1,.563-.24.775.775,0,0,1,.558.234.756.756,0,0,1,.238.563.776.776,0,0,1-.232.557.756.756,0,0,1-.564.238.794.794,0,0,1-.8-.795Z" transform="translate(-412.373 -536.441)" fill="#fff"/>
        <path id="Path_38" data-name="Path 38" d="M501.411,547.928h-7.643a.835.835,0,0,1-.478-.184.523.523,0,0,1,0-.9.821.821,0,0,1,.478-.19h.735l.76.06a2.233,2.233,0,0,1-.576-1.653,2.951,2.951,0,0,1,.87-2.193,3.076,3.076,0,0,1,2.254-.857,2.914,2.914,0,0,1,2.088.716,2.817,2.817,0,0,1,.753,2.139,3.08,3.08,0,0,1-.184,1.059,1.754,1.754,0,0,1-.527.789,8.135,8.135,0,0,1,.944-.06h.527Zm-5.488-7.385a.774.774,0,0,1,.233-.557.76.76,0,0,1,.564-.24.779.779,0,0,1,.563.228.762.762,0,0,1,.233.569.777.777,0,0,1-.227.563.815.815,0,0,1-1.139,0A.777.777,0,0,1,495.922,540.543Zm1.739,6.112a1.248,1.248,0,0,0,.986-.442,1.854,1.854,0,0,0,.386-1.261q0-1.665-1.347-1.665a1.292,1.292,0,0,0-.975.416,1.71,1.71,0,0,0-.4,1.225Q496.315,546.653,497.662,546.655Zm.221-6.112a.777.777,0,0,1,.232-.557.76.76,0,0,1,.564-.24.775.775,0,0,1,.557.234.758.758,0,0,1,.239.563.773.773,0,0,1-.233.557.756.756,0,0,1-.563.238.792.792,0,0,1-.8-.795Z" transform="translate(-442.194 -536.441)" fill="#fff"/>
        <path id="Path_39" data-name="Path 39" d="M542.281,545.735h-4.873a.836.836,0,0,1-.478-.183.523.523,0,0,1,0-.9.82.82,0,0,1,.478-.19h1.445V537.1h1.616v3.184a9.824,9.824,0,0,1-.147,1.812h.024a3.411,3.411,0,0,1,1.245-1.677,3.152,3.152,0,0,1,1.854-.6,2.451,2.451,0,0,1,1.923.736,2.937,2.937,0,0,1,.662,2.044,3.121,3.121,0,0,1-.527,1.862h1.322v1.273h-4.544Zm-1.824-1.273h1.971a2,2,0,0,0,1.513-.472,1.838,1.838,0,0,0,.434-1.291q0-1.592-1.261-1.592a2.142,2.142,0,0,0-1.709,1A5.093,5.093,0,0,0,540.457,544.462Z" transform="translate(-478.375 -534.248)" fill="#fff"/>
        <path id="Path_40" data-name="Path 40" d="M591.438,547.869a.836.836,0,0,1-.478-.184.523.523,0,0,1,0-.9.821.821,0,0,1,.478-.19h1.445v-4.483H594.5V546.6h1.261v1.273Zm1.659-6.754a.831.831,0,1,1,.6.25A.811.811,0,0,1,593.1,541.116Z" transform="translate(-523.168 -536.382)" fill="#fff"/>
        <path id="Path_41" data-name="Path 41" d="M620.388,558.918a5.137,5.137,0,0,1-1.8-.232,2.224,2.224,0,0,1-.942-.71,1.648,1.648,0,0,1-1.739.942h-.258a.836.836,0,0,1-.478-.184.523.523,0,0,1,0-.9.82.82,0,0,1,.478-.19h.087a1.1,1.1,0,0,0,.9-.379,2.054,2.054,0,0,0,.313-1.287,2.922,2.922,0,0,1,.837-2.113,3.123,3.123,0,0,1,2.347-.864,2.706,2.706,0,0,1,2.082.743,2.939,2.939,0,0,1,.684,2.074v1.826h.981v1.273Zm.93-1.273v-1.63q0-1.737-1.31-1.737a1.322,1.322,0,0,0-1.065.458,1.771,1.771,0,0,0-.391,1.194,1.7,1.7,0,0,0,.446,1.291,1.966,1.966,0,0,0,1.391.424Z" transform="translate(-543.241 -547.431)" fill="#fff"/>
        <path id="Path_42" data-name="Path 42" d="M665.786,545.735h-3.061a.836.836,0,0,1-.478-.183.523.523,0,0,1,0-.9.821.821,0,0,1,.478-.19h1.445V537.1h1.616Z" transform="translate(-582.27 -534.248)" fill="#fff"/>
        <path id="Path_43" data-name="Path 43" d="M695.657,545.735V537.1h1.618v8.634Z" transform="translate(-610.182 -534.248)" fill="#fff"/>
        <path id="Path_44" data-name="Path 44" d="M737.263,547.928h-3.8q-3.269,0-3.269-2.841a2.944,2.944,0,0,1,3.232-3.075,8.152,8.152,0,0,1,1.293.1,6.174,6.174,0,0,1,.96.214l.319.111v4.213h1.261Zm-5.757-7.385a.775.775,0,0,1,.234-.557.756.756,0,0,1,.563-.24.779.779,0,0,1,.563.228.762.762,0,0,1,.232.569.777.777,0,0,1-.226.563.814.814,0,0,1-1.138,0A.779.779,0,0,1,731.507,540.543Zm2.928,6.112v-3.148a2.711,2.711,0,0,0-1.164-.22,1.328,1.328,0,0,0-1.065.458,1.782,1.782,0,0,0-.391,1.194q0,1.716,1.836,1.715Zm-.968-6.112a.775.775,0,0,1,.234-.557.759.759,0,0,1,.563-.24.775.775,0,0,1,.557.234.756.756,0,0,1,.238.563.772.772,0,0,1-.232.557.755.755,0,0,1-.563.238.8.8,0,0,1-.8-.795Z" transform="translate(-638.818 -536.441)" fill="#fff"/>
        <path id="Path_45" data-name="Path 45" d="M769.962,547.869H766.9a.836.836,0,0,1-.478-.184.523.523,0,0,1,0-.9.821.821,0,0,1,.478-.19h1.445v-4.483h1.618Zm-1.4-6.754a.828.828,0,1,1,.593.25A.813.813,0,0,1,768.56,541.116Z" transform="translate(-668.638 -536.382)" fill="#fff"/>
        <path id="Path_46" data-name="Path 46" d="M799.843,545.735V537.1h1.616v7.361h1.261v1.273Z" transform="translate(-696.559 -534.248)" fill="#fff"/>
        <path id="Path_47" data-name="Path 47" d="M818.935,558.918H812.04a.835.835,0,0,1-.478-.184.523.523,0,0,1,0-.9.819.819,0,0,1,.478-.19h.944a2.636,2.636,0,0,1,.367.024,1.591,1.591,0,0,1,.244.048l.073.012a2.034,2.034,0,0,1-.684-1.751,2.922,2.922,0,0,1,.837-2.113,3.123,3.123,0,0,1,2.347-.864,2.706,2.706,0,0,1,2.082.743,2.939,2.939,0,0,1,.684,2.074Zm-1.58-1.273v-1.63q0-1.737-1.31-1.737a1.323,1.323,0,0,0-1.065.458,1.772,1.772,0,0,0-.391,1.194,1.694,1.694,0,0,0,.446,1.291,1.965,1.965,0,0,0,1.39.424Z" transform="translate(-706.063 -547.431)" fill="#fff"/>
        <path id="Path_48" data-name="Path 48" d="M861.239,523.017v-.882a3.563,3.563,0,0,1,.736.074.557.557,0,0,1-.307-.538,1.121,1.121,0,0,1,.452-.888,2.076,2.076,0,0,1,1.348-.373,5.986,5.986,0,0,1,.722.073l-.159.857a3.43,3.43,0,0,0-.66-.075q-.6,0-.6.417c0,.3.295.452.882.452h.747v.882Zm.858,8.88V523.63h1.618V531.9Z" transform="translate(-747.461 -520.41)" fill="#fff"/>
      </g>
      <g id="Group_17985" data-name="Group 17985" transform="translate(1586.801 35.93)">
        <rect id="Rectangle_24" data-name="Rectangle 24" width="117.488" height="0.816" transform="translate(0 0)" fill="#fff"/>
      </g>
      <g id="Group_17986" data-name="Group 17986" transform="translate(1586.923 41.387)">
        <path id="Path_49" data-name="Path 49" d="M194.922,663.048v-6.2h3.372v1h-2.177v1.525h2.067v.974h-2.067v1.672h2.177v1.029Z" transform="translate(-194.922 -656.342)" fill="#fff"/>
        <path id="Path_50" data-name="Path 50" d="M221.994,670.488a5.2,5.2,0,0,1,.046-.772l-.009-.009a1.548,1.548,0,0,1-1.461.873,1.229,1.229,0,0,1-1.3-1.3c0-1.084,1.038-1.589,2.636-1.589v-.165c0-.551-.211-.8-.817-.8a3.9,3.9,0,0,0-1.378.312l-.193-.9a4.95,4.95,0,0,1,1.727-.312c1.415,0,1.837.588,1.837,1.608v1.883c0,.367.009.8.037,1.176Zm-.092-2.03c-1.185,0-1.506.294-1.506.689a.521.521,0,0,0,.551.533,1.044,1.044,0,0,0,.955-1.1Z" transform="translate(-215.105 -663.782)" fill="#fff"/>
        <path id="Path_51" data-name="Path 51" d="M248.67,670.579a3.935,3.935,0,0,1-1.02-.119l.083-.983a2.558,2.558,0,0,0,.974.183c.441,0,.735-.193.735-.5,0-.808-1.856-.331-1.856-1.883,0-.808.616-1.461,1.938-1.461a4.219,4.219,0,0,1,.827.092l-.055.919a3,3,0,0,0-.827-.12c-.459,0-.671.184-.671.469,0,.772,1.883.386,1.883,1.883C250.682,669.973,249.883,670.579,248.67,670.579Z" transform="translate(-238.584 -663.782)" fill="#fff"/>
        <path id="Path_52" data-name="Path 52" d="M270.227,662.738c-1.011,0-1.323-.367-1.323-1.433V658.99h-.79v-.91h.79v-1.405l1.167-.312v1.718h1.111v.91h-1.111v2c0,.588.138.753.542.753a1.86,1.86,0,0,0,.524-.064l.083.928A4.384,4.384,0,0,1,270.227,662.738Z" transform="translate(-255.603 -655.94)" fill="#fff"/>
        <path id="Path_53" data-name="Path 53" d="M293.785,668.475h-2.82c0,.808.377,1.231,1.259,1.231a3.575,3.575,0,0,0,1.323-.266l.129.891a4.922,4.922,0,0,1-1.654.294,2.029,2.029,0,0,1-2.251-2.333,2.184,2.184,0,0,1,2.168-2.416,1.749,1.749,0,0,1,1.892,1.938A4.2,4.2,0,0,1,293.785,668.475Zm-1.911-1.736c-.487,0-.836.358-.9.955h1.69C292.683,667.069,292.371,666.739,291.875,666.739Z" transform="translate(-273.558 -663.827)" fill="#fff"/>
        <path id="Path_54" data-name="Path 54" d="M321.716,666.989c-.845-.166-1.268.377-1.268,1.644V670.5h-1.176v-4.566h1.112a6.037,6.037,0,0,1-.083.919h.018a1.371,1.371,0,0,1,1.452-1.011Z" transform="translate(-298.017 -663.792)" fill="#fff"/>
        <path id="Path_55" data-name="Path 55" d="M341.152,670.532v-2.921c0-.468-.129-.753-.57-.753-.588,0-1.056.671-1.056,1.47v2.2H338.35v-4.566h1.112a5.138,5.138,0,0,1-.064.818h.009a1.676,1.676,0,0,1,1.553-.909c1.029,0,1.359.652,1.359,1.451v3.206Z" transform="translate(-313.833 -663.827)" fill="#fff"/>
        <path id="Path_56" data-name="Path 56" d="M382.429,660.747c-.23,0-.432-.019-.432-.019v2.141H380.8v-6.2s.854-.037,1.736-.037c1.516,0,2.352.689,2.352,1.911A2.19,2.19,0,0,1,382.429,660.747Zm.028-3.133c-.23,0-.459.009-.459.009v2.085a2.885,2.885,0,0,0,.505.046,1.013,1.013,0,0,0,1.148-1.093C383.651,657.992,383.292,657.615,382.457,657.615Z" transform="translate(-349.03 -656.163)" fill="#fff"/>
        <path id="Path_57" data-name="Path 57" d="M412.1,666.989c-.845-.166-1.268.377-1.268,1.644V670.5H409.66v-4.566h1.112a6.044,6.044,0,0,1-.083.919h.018a1.371,1.371,0,0,1,1.451-1.011Z" transform="translate(-372.954 -663.792)" fill="#fff"/>
        <path id="Path_58" data-name="Path 58" d="M428.459,670.624c-1.3,0-2.14-.671-2.14-2.3a2.3,2.3,0,0,1,2.333-2.453,1.991,1.991,0,0,1,2.14,2.287A2.313,2.313,0,0,1,428.459,670.624Zm.11-3.757c-.524,0-1.038.4-1.038,1.341s.349,1.415,1.02,1.415c.579,0,1.029-.469,1.029-1.4C429.58,667.345,429.259,666.867,428.57,666.867Z" transform="translate(-386.765 -663.827)" fill="#fff"/>
        <path id="Path_59" data-name="Path 59" d="M456.907,670.978h-1.4l-1.571-4.566h1.268l.735,2.2c.129.432.22.772.294,1.139h.018c.074-.358.156-.708.276-1.13l.717-2.214h1.24Z" transform="translate(-409.665 -664.272)" fill="#fff"/>
        <path id="Path_60" data-name="Path 60" d="M484.492,655.529a.712.712,0,0,1-.726-.707.731.731,0,1,1,.726.707Zm-.588,5.245v-4.566h1.176v4.566Z" transform="translate(-434.393 -654.069)" fill="#fff"/>
        <path id="Path_61" data-name="Path 61" d="M501.668,670.532v-2.921c0-.468-.129-.753-.569-.753-.588,0-1.057.671-1.057,1.47v2.2h-1.176v-4.566h1.112a5.138,5.138,0,0,1-.064.818h.009a1.675,1.675,0,0,1,1.552-.909c1.029,0,1.36.652,1.36,1.451v3.206Z" transform="translate(-446.912 -663.827)" fill="#fff"/>
        <path id="Path_62" data-name="Path 62" d="M529.728,670.66c-1.268,0-2.058-.661-2.058-2.214a2.238,2.238,0,0,1,2.324-2.517,3.173,3.173,0,0,1,1,.156l-.184,1.01a2.324,2.324,0,0,0-.854-.175c-.7,0-1.057.56-1.057,1.405,0,.781.285,1.323,1.066,1.323a2.208,2.208,0,0,0,.891-.184l.156.983A3.812,3.812,0,0,1,529.728,670.66Z" transform="translate(-470.792 -663.871)" fill="#fff"/>
        <path id="Path_63" data-name="Path 63" d="M554.04,668.475h-2.82c0,.808.377,1.231,1.258,1.231a3.577,3.577,0,0,0,1.323-.266l.129.891a4.92,4.92,0,0,1-1.653.294,2.029,2.029,0,0,1-2.251-2.333,2.184,2.184,0,0,1,2.168-2.416,1.749,1.749,0,0,1,1.892,1.938A4.211,4.211,0,0,1,554.04,668.475Zm-1.911-1.736c-.487,0-.836.358-.9.955h1.69C552.937,667.069,552.625,666.739,552.129,666.739Z" transform="translate(-489.326 -663.827)" fill="#fff"/>
        <path id="Path_64" data-name="Path 64" d="M595.528,663.048l-.45-2.995c-.083-.56-.147-1.121-.193-1.552h-.018c-.083.4-.193.91-.349,1.415l-1,3.133h-1.157l-.956-2.912a14.623,14.623,0,0,1-.4-1.635h-.018c-.046.551-.1,1.111-.165,1.653l-.358,2.894h-1.2l.946-6.2h1.406l1.047,3.206c.1.331.248.873.34,1.3h.018c.11-.468.23-.937.34-1.286l1.056-3.224h1.4l.965,6.2Z" transform="translate(-521.849 -656.342)" fill="#fff"/>
        <path id="Path_65" data-name="Path 65" d="M641.451,670.978a5.083,5.083,0,0,1,.055-.818H641.5a1.666,1.666,0,0,1-1.552.909c-1.029,0-1.36-.652-1.36-1.451v-3.206h1.167v2.921c0,.469.129.753.57.753.6,0,1.057-.67,1.057-1.47v-2.2h1.176v4.566Z" transform="translate(-562.748 -664.272)" fill="#fff"/>
        <path id="Path_66" data-name="Path 66" d="M672.018,670.532v-2.921c0-.468-.129-.753-.57-.753-.588,0-1.056.671-1.056,1.47v2.2h-1.176v-4.566h1.112a5.167,5.167,0,0,1-.064.818h.009a1.676,1.676,0,0,1,1.553-.909c1.029,0,1.36.652,1.36,1.451v3.206Z" transform="translate(-588.143 -663.827)" fill="#fff"/>
        <path id="Path_67" data-name="Path 67" d="M699.821,655.529a.712.712,0,0,1-.726-.707.731.731,0,1,1,.726.707Zm-.588,5.245v-4.566h1.176v4.566Z" transform="translate(-612.915 -654.069)" fill="#fff"/>
        <path id="Path_68" data-name="Path 68" d="M714.372,670.66c-1.268,0-2.058-.661-2.058-2.214a2.238,2.238,0,0,1,2.324-2.517,3.173,3.173,0,0,1,1,.156l-.184,1.01a2.323,2.323,0,0,0-.854-.175c-.7,0-1.057.56-1.057,1.405,0,.781.285,1.323,1.066,1.323a2.21,2.21,0,0,0,.891-.184l.156.983A3.812,3.812,0,0,1,714.372,670.66Z" transform="translate(-623.874 -663.871)" fill="#fff"/>
        <path id="Path_69" data-name="Path 69" d="M736.955,655.529a.712.712,0,0,1-.726-.707.731.731,0,1,1,.726.707Zm-.588,5.245v-4.566h1.176v4.566Z" transform="translate(-643.701 -654.069)" fill="#fff"/>
        <path id="Path_70" data-name="Path 70" d="M753.092,670.6a3.955,3.955,0,0,1-.588-.037v2.186h-1.176v-6.78h1.093a5.493,5.493,0,0,1-.046.763h.018a1.492,1.492,0,0,1,1.433-.854c1.084,0,1.672.781,1.672,2.131A2.281,2.281,0,0,1,753.092,670.6Zm.4-3.757c-.616,0-.983.717-.983,1.5V669.6a2.08,2.08,0,0,0,.616.083c.661,0,1.148-.422,1.148-1.552C754.268,667.281,754.019,666.839,753.487,666.839Z" transform="translate(-656.219 -663.827)" fill="#fff"/>
        <path id="Path_71" data-name="Path 71" d="M782.43,670.488a5.21,5.21,0,0,1,.046-.772l-.009-.009a1.548,1.548,0,0,1-1.461.873,1.229,1.229,0,0,1-1.3-1.3c0-1.084,1.038-1.589,2.637-1.589v-.165c0-.551-.211-.8-.818-.8a3.894,3.894,0,0,0-1.378.312l-.193-.9a4.952,4.952,0,0,1,1.727-.312c1.415,0,1.837.588,1.837,1.608v1.883c0,.367.009.8.037,1.176Zm-.092-2.03c-1.185,0-1.507.294-1.507.689a.521.521,0,0,0,.551.533,1.044,1.044,0,0,0,.955-1.1Z" transform="translate(-679.743 -663.782)" fill="#fff"/>
        <path id="Path_72" data-name="Path 72" d="M809.527,660.6v-6.706H810.7V660.6Z" transform="translate(-704.47 -653.891)" fill="#fff"/>
        <path id="Path_73" data-name="Path 73" d="M823.742,655.529a.712.712,0,0,1-.726-.707.731.731,0,1,1,.726.707Zm-.588,5.245v-4.566h1.176v4.566Z" transform="translate(-715.653 -654.069)" fill="#fff"/>
        <path id="Path_74" data-name="Path 74" d="M836.843,662.738c-1.01,0-1.323-.367-1.323-1.433V658.99h-.79v-.91h.79v-1.405l1.167-.312v1.718H837.8v.91h-1.112v2c0,.588.138.753.542.753a1.858,1.858,0,0,0,.523-.064l.083.928A4.386,4.386,0,0,1,836.843,662.738Z" transform="translate(-725.365 -655.94)" fill="#fff"/>
        <path id="Path_75" data-name="Path 75" d="M856.531,671.235c-.6,1.58-1.24,2.03-2.3,2.03a3.64,3.64,0,0,1-.643-.064l.138-1.011a2.006,2.006,0,0,0,.579.092c.386,0,.79-.184,1.038-.9l.147-.4-1.69-4.566h1.314l.615,1.746c.129.4.257.845.358,1.259h.009c.1-.414.294-1.029.441-1.451l.542-1.553h1.259Z" transform="translate(-741.003 -664.272)" fill="#fff"/>
      </g>
    </g>
  </g>
</svg>
