<svg id="Group_17983" data-name="Group 17983" xmlns="http://www.w3.org/2000/svg" width="117.881" height="107.282" viewBox="0 0 117.881 107.282">
  <path id="Path_1" data-name="Path 1" d="M1318.564,224.562v1.3h-1.307v1.3h-1.307v1.308h3.922v-3.91Z" transform="translate(-1246.789 -224.562)" fill="#172674"/>
  <path id="Path_2" data-name="Path 2" d="M1174.41,224.562v1.3h1.307v1.3h1.307v1.308H1173.1v-3.91Z" transform="translate(-1128.36 -224.562)" fill="#172674"/>
  <rect id="Rectangle_1" data-name="Rectangle 1" width="28.339" height="1.311" transform="translate(44.743 5.22)" fill="#007b8c"/>
  <rect id="Rectangle_2" data-name="Rectangle 2" width="3.078" height="35.09" transform="translate(70.003 50.589)" fill="#172674"/>
  <path id="Path_3" data-name="Path 3" d="M1193.386,520.517l0,32.013h-1.948v-4.8h-3.078v0l-15.167,0v3.077l15.166,0v1.719l-15.165,0V555.6h23.291v-3.077l0-32.013Z" transform="translate(-1128.433 -469.928)" fill="#172674"/>
  <path id="Path_4" data-name="Path 4" d="M1176.273,523.612h7.043v1.967h0v3.078l8.093,0v-.031h0v-5.013h.031v-3.077h-8.124l-9.927,0v.011h-.192l0,25.227h3.077Zm12.057,0v1.967h-1.936l0-1.968Z" transform="translate(-1128.434 -469.941)" fill="#172674"/>
  <path id="Path_5" data-name="Path 5" d="M1234.16,584.75v0h6.233v-5.026h-1.917V582.8h-1.2v-3.076h-1.917V582.8h-1.2v-3.075h-1.917v5.027Z" transform="translate(-1177.391 -519.013)" fill="#172674"/>
  <path id="Path_6" data-name="Path 6" d="M1215.906,565.047V561.97h-.705l-7.323,0v0h-.12l0,5.19h-1.97l0-17.119h-3.078l0,20.2h3.078v0l10.118,0V567.16h0l0-2.113Zm-3.079,2.112h-1.994l0-2.114h1.993Z" transform="translate(-1152.903 -494.404)" fill="#172674"/>
  <g id="Group_1" data-name="Group 1" transform="translate(0 7.741)">
    <path id="Path_7" data-name="Path 7" d="M1119.635,550.567a.3.3,0,0,0-.135.185l-.572,2.327a.3.3,0,0,0,.219.361l2.262.556-.536,2.184a.3.3,0,0,0,.22.361l2.326.571.072.009.154-.043a.3.3,0,0,0,.135-.185l.571-2.327a.3.3,0,0,0-.218-.361l-2.263-.555.537-2.184a.3.3,0,0,0-.219-.361l-2.327-.571a.3.3,0,0,0-.226.034" transform="translate(-1083.438 -502.548)" fill="#007b8c"/>
    <path id="Path_8" data-name="Path 8" d="M1037.911,634.034a.3.3,0,0,0,.19.128l.083,0,.141-.049,1.992-1.33a.3.3,0,0,0,.083-.414l-1.33-1.992a.3.3,0,0,0-.191-.127.3.3,0,0,0-.223.045l-1.993,1.33a.3.3,0,0,0-.082.414Z" transform="translate(-1015.133 -568.643)" fill="#007b8c"/>
    <path id="Path_9" data-name="Path 9" d="M1054.284,656.675a.3.3,0,0,0,.19.127l.083.005.141-.049,1.993-1.331a.3.3,0,0,0,.082-.413l-1.33-1.993a.3.3,0,0,0-.19-.127.293.293,0,0,0-.223.045l-1.993,1.33a.3.3,0,0,0-.082.414Z" transform="translate(-1028.707 -587.414)" fill="#007b8c"/>
    <path id="Path_10" data-name="Path 10" d="M1117.955,523.609h2.4a.3.3,0,0,0,.3-.3v-2.4a.3.3,0,0,0-.3-.3h-2.4a.3.3,0,0,0-.3.3v2.4a.3.3,0,0,0,.3.3" transform="translate(-1082.391 -477.752)" fill="#007b8c"/>
    <path id="Path_11" data-name="Path 11" d="M1140.614,523.609h2.4a.3.3,0,0,0,.3-.3v-2.4a.3.3,0,0,0-.3-.3h-2.4a.3.3,0,0,0-.3.3v2.4a.3.3,0,0,0,.3.3" transform="translate(-1101.176 -477.752)" fill="#007b8c"/>
    <path id="Path_12" data-name="Path 12" d="M986.129,563.891l-2.244-.84h0a.3.3,0,0,0-.385.175l-.834,2.231-2.109-.79a.3.3,0,0,0-.384.175l-.841,2.243a.3.3,0,0,0,.175.385l2.244.84.1.019.124-.027a.3.3,0,0,0,.155-.167l.836-2.232,2.109.79.1.019.125-.027a.293.293,0,0,0,.155-.167l.841-2.244a.3.3,0,0,0-.175-.384" transform="translate(-967.696 -512.916)" fill="#007b8c"/>
    <path id="Path_13" data-name="Path 13" d="M1024.943,608.477a.3.3,0,0,0-.045-.224l-1.335-1.99a.3.3,0,0,0-.415-.081l-1.989,1.336a.3.3,0,0,0-.081.415l1.334,1.989a.3.3,0,0,0,.191.126l.075.006.149-.051,1.989-1.335a.294.294,0,0,0,.127-.19" transform="translate(-1002.279 -548.649)" fill="#007b8c"/>
    <path id="Path_14" data-name="Path 14" d="M1055.761,668.431l-21.011,17.687,2.333,1.921,18.678-15.631Z" transform="translate(-1013.656 -600.3)" fill="#007b8c"/>
    <path id="Path_15" data-name="Path 15" d="M953.451,541.523,930.495,559.3l-3.353-3.413,8.617-5.853a.207.207,0,0,0,.053-.29l-1.479-2.156a.208.208,0,0,0-.289-.053l-4.265,2.884c-.335-.553-.7-1.156-1.08-1.774l4.309-2.895a.206.206,0,0,0,.056-.288l-1.456-2.171a.208.208,0,0,0-.289-.056l-.16.107-4.052,2.721,0-.006c-.328-.525-.676-1.125-1.022-1.748l4.2-2.506a.207.207,0,0,0,.074-.285l-1.342-2.244a.207.207,0,0,0-.285-.074l-4.067,2.428c-.291-.57-.549-1.087-.758-1.512l4.067-2.236c.083-.053.159-.122.091-.24l-1.3-2.358a.183.183,0,0,0-.268-.049l-8.186,4.48a63.146,63.146,0,0,1-3.939-16.868c-.008-.115-.047-.154-.182-.14l-2.709.288c-.089.01-.137.064-.127.182a67.628,67.628,0,0,0,4.491,19.788l.659,1.222,4.742-2.608c.768,1.553,2.116,4.2,3.293,6.084.834,1.333,1.9,3.086,2.732,4.455l-3.772,2.549a.693.693,0,0,0-.18.887,54.843,54.843,0,0,0,6.7,7.569.618.618,0,0,0,.7-.035c.2-.163,15.8-12.1,22.735-17.669Z" transform="translate(-911.346 -479.479)" fill="#007b8c"/>
    <path id="Path_16" data-name="Path 16" d="M950.356,534.695l.011.033.03.016c.039.023.391.213.525-.014l1.583-2.682-.017-.042c-.435-1.07-1.589-5.334-1.653-5.485a24.51,24.51,0,0,0,1.777-2.7l16.346-.3-8.7,3.248.628,1.5a88.1,88.1,0,0,0,5.108,9.24,48.584,48.584,0,0,0,5.876,7.766s.128.122.328.291a1.191,1.191,0,0,0,1.118.1c.235-.177,8.552-5.961,10.226-7.218a1.11,1.11,0,0,0,.293-.63V535.4s-.145-.336-.4-.39c-1.837-.387-10.213-1.469-10.53-1.538a1.136,1.136,0,0,0-.825.136l-2.041,1.289c-.147.093-.1.337-.01.457.068.092,3.193,4.347,4.367,5.936l-1.37.894a43.275,43.275,0,0,1-4.468-6.282c-.371-.589-.708-1.131-1.03-1.654l7.716-4.15c.208.061.26-.121.181-.265l-1.141-2.15a.28.28,0,0,0-.406-.116l-7.833,4.212c-.741-1.277-1.3-2.317-1.7-3.181l11.068-4.47a.826.826,0,0,0,.557-.924l-.266-1.594a.746.746,0,0,0-.82-.59H951.939a1.3,1.3,0,0,0-1.152.542l-2.68,4.151a1.6,1.6,0,0,0-.129.967c.684,2.363,2.359,7.96,2.378,8.018m30.343,2.476-3.82,2.494-2.115-2.979Z" transform="translate(-941.695 -478.085)" fill="#007b8c"/>
    <path id="Path_17" data-name="Path 17" d="M1295.392,743.337l.363-.974c.313-.8.558-1.81,1.606-1.81h2.269v-1.832H1297a2.638,2.638,0,0,0-2.181,1.681c-.426-.495-.807-.927-.834-.957l-.243-.276h-2.29V741h1.554c.474.374,2.386,2.336,2.386,2.336" transform="translate(-1226.479 -658.575)" fill="#007b8c"/>
    <path id="Path_18" data-name="Path 18" d="M1119.342,716.854a.3.3,0,0,0-.356.227l-.5,2.275-2.2-.484a.3.3,0,0,0-.356.228l-.515,2.34a.3.3,0,0,0,.227.355l2.34.516a.3.3,0,0,0,.356-.227l.5-2.275,2.2.485a.3.3,0,0,0,.355-.228l.515-2.34.006-.072-.047-.153a.3.3,0,0,0-.187-.131Z" transform="translate(-1080.53 -640.44)" fill="#007b8c"/>
    <path id="Path_19" data-name="Path 19" d="M1206.9,740.773a.3.3,0,0,0,.422.006l1.673-1.621,1.565,1.614a.3.3,0,0,0,.422.006l1.721-1.666.045-.057.046-.154a.3.3,0,0,0-.085-.212l-1.667-1.72a.292.292,0,0,0-.209-.091.3.3,0,0,0-.213.084l-1.673,1.621-1.565-1.615a.3.3,0,0,0-.422-.006l-1.721,1.667a.3.3,0,0,0-.091.21.3.3,0,0,0,.084.212Z" transform="translate(-1154.928 -657.048)" fill="#007b8c"/>
    <path id="Path_20" data-name="Path 20" d="M1429.156,520.615h-34.717a.238.238,0,0,0-.238.238v2.554a.238.238,0,0,0,.238.238h34.754a.352.352,0,0,0,.352-.351V521a.39.39,0,0,0-.389-.389" transform="translate(-1311.664 -477.751)" fill="#007b8c"/>
    <path id="Path_21" data-name="Path 21" d="M1424.078,554.448a.3.3,0,0,0,.3-.3v-2.4a.3.3,0,0,0-.3-.3h-2.4a.3.3,0,0,0-.3.3v2.4a.3.3,0,0,0,.3.3Z" transform="translate(-1334.201 -503.319)" fill="#007b8c"/>
    <path id="Path_22" data-name="Path 22" d="M1356.468,741.3l.149-.04,2.071-1.2a.291.291,0,0,0,.139-.182.3.3,0,0,0-.031-.227l-1.2-2.071a.3.3,0,0,0-.408-.108l-2.072,1.2a.3.3,0,0,0-.107.407l1.2,2.071a.3.3,0,0,0,.258.149" transform="translate(-1279.135 -657.501)" fill="#007b8c"/>
    <path id="Path_23" data-name="Path 23" d="M1414.99,557.334a.779.779,0,0,0-.3.618V561.4a.786.786,0,0,0,.324.635c.576.4,12.523,9.432,12.915,9.65a.581.581,0,0,0,.264.042c.281,0,3.339-.28,4.1-.36a.374.374,0,0,0,.239-.135,64.228,64.228,0,0,0,2.955-6.334.5.5,0,0,0-.034-.394,17.126,17.126,0,0,0-1.37-2.024l-.212-.287c-.046-.061-.144-.153-.2-.077-.332.984-2.577,6.005-2.735,6.233-.461.054-2.114.209-2.513.215l-10.683-7.765,10.25,2.23a1.421,1.421,0,0,0,1.759-1.266l.535-6.947a.767.767,0,0,0-.133-.5l-1.817-2.639a.772.772,0,0,0-.636-.333l-6.794.025a.236.236,0,0,0-.236.237v2.556a.237.237,0,0,0,.237.238l6.12-.024a.234.234,0,0,1,.234.253l-.38,4.538-11.214-1.979a.778.778,0,0,0-.672.144" transform="translate(-1328.651 -503.23)" fill="#007b8c"/>
    <path id="Path_24" data-name="Path 24" d="M1393.3,552.451a.776.776,0,0,0-.6-.225c-.414,0-9.618-.2-9.618-.2a.365.365,0,0,0-.255.124.351.351,0,0,0-.1.259l.008,2.188.058.182,6.215,11.082a49.041,49.041,0,0,1-3.127,6.643,34.4,34.4,0,0,1-3.558,5.214l-.344.416a.248.248,0,0,1-.34.043l-27.672-19.808V562.1l27.968,20.035a.433.433,0,0,0,.564-.05l.655-.682.045-.043a38.577,38.577,0,0,0,5.149-7.488,71.271,71.271,0,0,0,3.787-7.774l.021-.067.04-.081a64.679,64.679,0,0,0,3.05-10.6.3.3,0,0,0-.049-.253l-1.9-2.649m-3.015,9.223c-.883-1.591-2.1-3.714-3.645-6.26l-.01-.179a.17.17,0,0,1,.153-.092l5.1.2.138.068.029.151Z" transform="translate(-1278.313 -503.792)" fill="#007b8c"/>
    <path id="Path_25" data-name="Path 25" d="M1353.974,624.812v3.771l24.066,17.94a.763.763,0,0,0,1.063-.157l1.261-1.414a.429.429,0,0,0-.088-.6Z" transform="translate(-1278.314 -564.137)" fill="#007b8c"/>
    <path id="Path_26" data-name="Path 26" d="M1354.019,524.515h3.346v1.2a.19.19,0,0,0,.174.152h1.264a.194.194,0,0,0,.178-.183V520.7c0-.1-.047-.186-.16-.186h-1.235a.5.5,0,0,0-.221.064v2.32h-1.8v-2.2c0-.1-.046-.186-.159-.186h-1.235a.5.5,0,0,0-.221.064v3.782l.015.027Z" transform="translate(-1278.298 -477.669)" fill="#007b8c"/>
    <path id="Path_27" data-name="Path 27" d="M1136.279,665.011l11.257,8.524-2.992,2.99-.187,2.332,3.725,4.153c-.948.559-1.974,1.127-3.076,1.687l-3.935-6.614-.016.009-.043-.074a.3.3,0,0,0-.408-.108l-2.071,1.2a.3.3,0,0,0-.108.408l.059.1-.017.011,3.787,6.363c-1.106.487-2.268.957-3.493,1.4-.085.031-.169.057-.254.087l-3.588-7.923a.693.693,0,0,0-1.011-.293l-9.99,6.568.013-10.723a.309.309,0,0,0-.3-.31l-2.433,0a.3.3,0,0,0-.3.3l-.019,15.681c-.5.015-.97.022-1.385.022h-1v-9.088a.6.6,0,0,0-.214-.427c-.651-.426-2.571-1.681-2.738-1.817a.583.583,0,0,0-.6.024c-.184.087-6.328,3.412-7.7,4.158a.662.662,0,0,0-.363.543c-.032.234-.3,2.179-.417,3.053a.936.936,0,0,0,.261.753c.133.137.787.757,1.61,1.529a37.461,37.461,0,0,1-6.051-1.51l6.1-12.569a.3.3,0,0,0-.124-.4l-2.544-1.553a.548.548,0,0,0-.515.044s-12.782,6.633-13.005,6.751a.7.7,0,0,0-.353.5c-.017.128-.333,2.439-.441,3.236a.726.726,0,0,0,.167.541c.143.192,3.824,4.259,3.824,4.259l2.435-1.671-3.738-4.428,10.271-5.556s-6.037,12-6.1,12.108c-.178.316-.129.575.117.677a51.23,51.23,0,0,0,9.338,2.547l4.823.955,2.114-3.058-4.982-4.589,5.743-3.081v10.983l2.88.135.035,0c.14,0,.321,0,.542,0a60.4,60.4,0,0,0,20.917-3.6,57.389,57.389,0,0,0,17.985-10.354l1.3-1.221L1136.279,661.2ZM1123.9,690.6v-1.04l9.118-6.143a.45.45,0,0,1,.666.2l1.969,4.786A60.023,60.023,0,0,1,1123.9,690.6m30.432-11.924c-.887.727-2.115,1.666-3.645,2.692l-3.169-3.531,2.46-2.458Z" transform="translate(-1060.618 -594.304)" fill="#007b8c"/>
    <path id="Path_28" data-name="Path 28" d="M1386.561,568.266,1385,569.884a.3.3,0,0,0-.084.213.3.3,0,0,0,.091.21l1.725,1.664a.3.3,0,0,0,.422-.008l1.663-1.724a.3.3,0,0,0-.008-.422l-1.676-1.617,1.561-1.619a.3.3,0,0,0-.008-.422l-1.724-1.664-.059-.044-.155-.04a.3.3,0,0,0-.209.092l-1.663,1.724a.3.3,0,0,0,.008.422Z" transform="translate(-1303.865 -514.06)" fill="#007b8c"/>
    <rect id="Rectangle_3" data-name="Rectangle 3" width="2.612" height="1.307" transform="translate(42.132 11.825)" fill="#007b8c"/>
    <rect id="Rectangle_4" data-name="Rectangle 4" width="4.782" height="1.307" transform="translate(48.503 11.825)" fill="#007b8c"/>
    <rect id="Rectangle_5" data-name="Rectangle 5" width="2.624" height="1.307" transform="translate(73.082 11.826)" fill="#007b8c"/>
    <rect id="Rectangle_6" data-name="Rectangle 6" width="4.782" height="1.307" transform="translate(64.306 11.825)" fill="#007b8c"/>
    <rect id="Rectangle_7" data-name="Rectangle 7" width="4.782" height="1.307" transform="translate(56.404 11.825)" fill="#007b8c"/>
    <rect id="Rectangle_8" data-name="Rectangle 8" width="1.305" height="1.383" transform="translate(46.023 11.745)" fill="#007b8c"/>
    <rect id="Rectangle_9" data-name="Rectangle 9" width="1.305" height="1.347" transform="translate(70.432 11.781)" fill="#007b8c"/>
    <rect id="Rectangle_10" data-name="Rectangle 10" width="2.612" height="1.307" transform="translate(42.132 19.024)" fill="#007b8c"/>
    <rect id="Rectangle_11" data-name="Rectangle 11" width="4.782" height="1.307" transform="translate(48.503 19.024)" fill="#007b8c"/>
    <rect id="Rectangle_12" data-name="Rectangle 12" width="2.624" height="1.307" transform="translate(73.082 19.024)" fill="#007b8c"/>
    <rect id="Rectangle_13" data-name="Rectangle 13" width="4.782" height="1.307" transform="translate(64.306 19.024)" fill="#007b8c"/>
    <rect id="Rectangle_14" data-name="Rectangle 14" width="4.782" height="1.307" transform="translate(56.404 19.024)" fill="#007b8c"/>
    <rect id="Rectangle_15" data-name="Rectangle 15" width="1.305" height="1.383" transform="translate(46.023 18.943)" fill="#007b8c"/>
    <rect id="Rectangle_16" data-name="Rectangle 16" width="1.305" height="1.347" transform="translate(70.432 18.979)" fill="#007b8c"/>
    <rect id="Rectangle_17" data-name="Rectangle 17" width="2.612" height="1.308" transform="translate(42.132 26.219)" fill="#007b8c"/>
    <rect id="Rectangle_18" data-name="Rectangle 18" width="4.782" height="1.308" transform="translate(48.503 26.219)" fill="#007b8c"/>
    <rect id="Rectangle_19" data-name="Rectangle 19" width="2.624" height="1.308" transform="translate(73.082 26.219)" fill="#007b8c"/>
    <rect id="Rectangle_20" data-name="Rectangle 20" width="4.782" height="1.308" transform="translate(64.306 26.219)" fill="#007b8c"/>
    <rect id="Rectangle_21" data-name="Rectangle 21" width="4.782" height="1.308" transform="translate(56.404 26.219)" fill="#007b8c"/>
    <rect id="Rectangle_22" data-name="Rectangle 22" width="1.305" height="1.383" transform="translate(46.023 26.138)" fill="#007b8c"/>
    <rect id="Rectangle_23" data-name="Rectangle 23" width="1.305" height="1.346" transform="translate(70.432 26.176)" fill="#007b8c"/>
    <path id="Path_29" data-name="Path 29" d="M1173.1,310.158h28.339V269.85H1173.1Zm2.584-12.784h-1.305v-1.308h1.305Zm0-7.213h-1.305v-1.308h1.305Zm0-7.218h-1.305v-1.308h1.305Zm5.956,24.31h-4.781v-1.334h4.781Zm0-2.667h-4.781V275l1.6-1.638h1.55l1.634,1.638Zm7.9,2.667h-4.782v-1.334h4.782Zm0-2.667h-4.782V275l1.6-1.638h1.55l1.635,1.638Zm7.9,2.667h-4.782v-1.334h4.782Zm0-2.667h-4.782V275l1.6-1.638h1.549l1.635,1.638Zm2.65-7.211h-1.305v-1.308h1.305Zm0-7.213h-1.305v-1.308h1.305Zm0-7.218h-1.305v-1.308h1.305Z" transform="translate(-1128.361 -269.85)" fill="#007b8c"/>
  </g>
</svg>
