<svg width="78" height="94" viewBox="0 0 78 94" fill="none" xmlns="http://www.w3.org/2000/svg">
<path d="M47.0191 0.227539V1.06769H46.26V1.90466H45.5011V2.7476H47.7781V0.227539H47.0191Z" fill="#363087"/>
<path d="M32.0831 0.227539V1.06769H32.8422V1.90466H33.6011V2.7476H31.3241V0.227539H32.0831Z" fill="#363087"/>
<path d="M31.3241 3.5918H47.7784V4.43659H31.3241V3.5918Z" fill="#008C9D"/>
<path d="M45.9912 32.8315L45.9895 55.4463L47.7768 55.4467L47.7783 32.8315H45.9912Z" fill="#363087"/>
<path d="M43.0583 32.8315L43.0566 53.4633L41.9254 53.4628L41.9258 52.3557V52.3392L41.9262 50.37H40.1395V50.3719L31.3328 50.37V52.3533L40.1387 52.3552L40.1383 53.4628L31.3328 53.4615V55.4453L40.1378 55.4463V55.4467L41.9246 55.4471V55.4467L44.8562 55.4471V55.4467V54.5719V53.4633L44.8579 32.8315H43.0583Z" fill="#363087"/>
<path d="M40.1215 34.8167L40.1219 36.0843L38.9978 36.0848L38.997 34.8167H40.1215ZM33.1212 34.8176L37.2101 34.8172L37.2107 36.0852H37.2101V38.069L41.9092 38.0671V38.0474H41.9095L41.9087 34.8163H41.927V32.833H41.908H40.1212L38.9966 32.8334V32.833H37.2098V32.8334L31.4462 32.8347V32.8422H31.3345L31.3328 49.1011L33.1195 49.1015L33.1212 34.8176Z" fill="#363087"/>
<path d="M38.3068 42.5938V42.5925L39.0031 42.5929V42.5938H40.1164V42.5929L40.8126 42.5934V42.5938H41.8184H41.877H41.9256L41.9265 39.3545L40.8135 39.354L40.813 41.3373L40.1164 41.3369L40.1173 39.3545L39.004 39.354L39.0034 41.3364H38.3071L38.3077 39.3545L37.1947 39.354L37.1938 41.3354V42.592V42.5938H38.3068Z" fill="#363087"/>
<path d="M40.1383 47.1178H38.9809L38.9818 45.7556L40.1387 45.7562L40.1383 47.1178ZM41.9263 45.7566L41.9267 43.7732H41.9263H41.5172L37.2652 43.7714V43.7728H37.1953L37.1942 47.1174L36.0505 47.1169L36.0493 36.084H34.2621L34.2638 49.1014H36.0509V49.1002L41.9255 49.1014L41.9259 47.1183H41.9251L41.9259 45.7566H41.9263Z" fill="#363087"/>
<path d="M26.3618 36.1649C26.3223 36.1917 26.2945 36.2336 26.2833 36.2839L25.9514 37.7835C25.9405 37.8332 25.9476 37.8849 25.9717 37.9287C25.9959 37.9729 26.0336 38.0039 26.0784 38.0159L27.3921 38.3741L27.0805 39.7816C27.0697 39.8313 27.0767 39.883 27.1009 39.9268C27.1246 39.9706 27.1628 40.002 27.2079 40.0144L28.5586 40.3823L28.6005 40.3879L28.6898 40.3602C28.7293 40.3336 28.7571 40.2915 28.7683 40.2412L29.0999 38.7417C29.1111 38.6915 29.1041 38.6402 29.0799 38.596C29.0562 38.5522 29.0181 38.5212 28.9732 38.5088L27.6596 38.151L27.9712 36.7435C27.982 36.6934 27.9749 36.6422 27.9508 36.5979C27.9267 36.5541 27.889 36.5232 27.844 36.5107L26.493 36.1428C26.4482 36.1308 26.4012 36.1381 26.3618 36.1649Z" fill="#008C9D"/>
<path d="M18.571 47.3605C18.5967 47.4033 18.6358 47.4324 18.6815 47.4426L18.7297 47.4458L18.8116 47.414L19.9685 46.5568C20.0479 46.4978 20.0695 46.3782 20.0163 46.2898L19.244 45.0055C19.2182 44.9626 19.1787 44.9335 19.1335 44.9235C19.0883 44.9138 19.0421 44.9239 19.0039 44.9525L17.8465 45.8097C17.7671 45.8687 17.7455 45.9882 17.7987 46.0764L18.571 47.3605Z" fill="#008C9D"/>
<path d="M20.196 49.8552C20.2217 49.898 20.2608 49.9271 20.3065 49.9373L20.3547 49.9405L20.4366 49.9087L21.5935 49.051C21.6729 48.9925 21.6945 48.8726 21.6413 48.7845L20.869 47.5002C20.8432 47.457 20.8037 47.4283 20.7585 47.4182C20.7133 47.4085 20.6671 47.4182 20.6289 47.4472L19.4715 48.3044C19.3921 48.3634 19.3705 48.483 19.4237 48.571L20.196 49.8552Z" fill="#008C9D"/>
<path d="M25.9948 34.7712H27.386C27.4815 34.7712 27.5592 34.685 27.5592 34.579V33.0347C27.5592 32.9285 27.4815 32.8423 27.386 32.8423H25.9948C25.8992 32.8423 25.8214 32.9285 25.8214 33.0347V34.579C25.8214 34.685 25.8992 34.7712 25.9948 34.7712Z" fill="#008C9D"/>
<path d="M28.2431 34.7712H29.6343C29.7299 34.7712 29.8075 34.685 29.8075 34.579V33.0347C29.8075 32.9285 29.7299 32.8423 29.6343 32.8423H28.2431C28.1476 32.8423 28.0698 32.9285 28.0698 33.0347V34.579C28.0698 34.685 28.1476 34.7712 28.2431 34.7712Z" fill="#008C9D"/>
<path d="M16.0482 38.0685L14.7454 37.5271V37.5267C14.6558 37.4898 14.5555 37.5405 14.5218 37.6396L14.0375 39.0776L12.8133 38.5683C12.77 38.5504 12.723 38.5522 12.6807 38.5734C12.6383 38.5946 12.6064 38.633 12.5901 38.6814L12.102 40.1271C12.0858 40.1754 12.0875 40.2279 12.1066 40.2745C12.1262 40.3211 12.1606 40.3571 12.2037 40.3751L13.5066 40.9165L13.5673 40.9288L13.6391 40.9113C13.6811 40.8901 13.7131 40.8519 13.7292 40.8038L14.2145 39.3657L15.4388 39.8747L15.4994 39.8872L15.5717 39.8697C15.6136 39.8485 15.6457 39.8103 15.6615 39.7622L16.15 38.3162C16.1832 38.2165 16.1374 38.1059 16.0482 38.0685Z" fill="#008C9D"/>
<path d="M18.5046 43.7752C18.5133 43.7248 18.5041 43.6737 18.4784 43.6308L17.7032 42.3484C17.6495 42.2608 17.542 42.2373 17.4623 42.2958L16.3074 43.1568C16.2691 43.1858 16.243 43.2287 16.2338 43.2795C16.225 43.3296 16.2343 43.3814 16.2604 43.4242L17.0353 44.7062C17.0613 44.7486 17.1004 44.7777 17.1461 44.7873L17.1898 44.791L17.2762 44.7583L18.4311 43.8978C18.4697 43.8692 18.4959 43.8254 18.5046 43.7752Z" fill="#008C9D"/>
<path d="M29.7923 49.1265L17.5928 60.5256L18.9475 61.7635L29.7923 51.6899V49.1265Z" fill="#008C9D"/>
<path d="M29.792 45.204L16.463 56.658L14.5158 54.4584L19.5189 50.6859C19.5742 50.6435 19.5878 50.5606 19.5496 50.4992L18.691 49.1098C18.6531 49.0489 18.578 49.0338 18.5231 49.0757C18.5231 49.0757 17.3595 49.9491 16.0467 50.9346C15.852 50.5781 15.6392 50.1894 15.4199 49.7914L17.922 47.9257C17.9776 47.8841 17.9922 47.8012 17.9545 47.7398L17.109 46.3407C17.0716 46.2794 16.9969 46.2629 16.9412 46.3048L16.8485 46.374L14.496 48.1277L14.4935 48.1235C14.3032 47.785 14.1009 47.3985 13.9003 46.9969L16.3375 45.3821C16.3953 45.3443 16.4143 45.2622 16.3803 45.1985L15.6011 43.7525C15.5674 43.6884 15.4934 43.6672 15.4357 43.705L13.0744 45.2696C12.9058 44.9026 12.7558 44.5692 12.634 44.2952L14.9954 42.8537C15.0435 42.8196 15.088 42.7749 15.0481 42.6993L14.2937 41.1798C14.26 41.1157 14.1957 41.1103 14.1378 41.1481L9.38496 44.0356C8.22961 40.6648 7.30037 36.5142 7.09804 33.1645C7.09349 33.0903 7.07103 33.0653 6.99251 33.0746C6.92474 33.0829 5.74285 33.2226 5.41969 33.2605C5.36817 33.2668 5.33997 33.3014 5.3457 33.3775C5.61497 36.7714 6.16833 41.1983 7.95341 46.131L8.33598 46.9186L11.0895 45.2378C11.5352 46.2388 12.3179 47.9456 13.0013 49.1587C13.4853 50.0179 14.1055 51.148 14.5874 52.0302C13.442 52.8898 12.4729 53.6169 12.3972 53.6731C12.2058 53.8152 12.2165 54.1292 12.2925 54.2445C13.4944 56.0659 14.95 57.8634 16.1851 59.1223C16.2575 59.1956 16.4622 59.2146 16.5914 59.0997C16.7085 58.9946 25.7674 51.3035 29.792 47.7122V45.204Z" fill="#008C9D"/>
<path d="M27.9925 43.2976L25.7745 44.9051C25.3749 44.2799 24.5465 42.9849 24.5465 42.9849L27.9925 43.2976ZM10.3745 41.7017L10.3812 41.7229L10.3986 41.7336C10.4215 41.7483 10.6258 41.8705 10.7035 41.7243L11.6225 39.9956L11.6126 39.9688C11.3599 39.2789 10.6899 36.5311 10.6528 36.4339C10.7526 36.3186 10.9956 35.9334 11.6849 34.6944L21.1757 34.5034L16.122 36.5966L16.4867 37.5654C16.4951 37.587 17.6056 40.2699 19.4525 43.5204C21.2584 46.6981 22.7863 48.4484 22.8644 48.5255C22.8644 48.5255 22.9387 48.6039 23.0551 48.7132C23.1718 48.8224 23.549 48.9077 23.7044 48.7782C23.8407 48.6642 28.67 44.9366 29.6417 44.1263C29.7768 44.0137 29.8116 43.7206 29.8116 43.7206V42.1545C29.8116 42.1545 29.7274 41.9378 29.5786 41.9032C28.5122 41.6537 23.6487 40.9566 23.4647 40.9122C23.2553 40.8616 23.0746 40.9372 22.9857 40.9998C22.9151 41.0497 22.1254 41.603 21.8005 41.8308C21.7153 41.8908 21.7428 42.048 21.7946 42.1255C21.8342 42.185 23.6487 44.9273 24.3305 45.9514L23.5354 46.5274C22.921 45.8297 22.08 44.4828 20.9409 42.4787C20.7254 42.0992 20.5297 41.7496 20.3428 41.4127L24.8228 38.738C24.9436 38.7772 24.974 38.6602 24.9279 38.5669L24.2653 37.1813C24.2266 37.1002 24.1456 37.0429 24.0297 37.1066L19.4816 39.8212C19.0512 38.9981 18.7289 38.3281 18.4953 37.7711L24.9217 34.8899C25.148 34.8065 25.2839 34.5556 25.2448 34.2947L25.0907 33.2672C25.0512 33.0081 24.8514 32.8872 24.6146 32.8872H11.2934C10.952 32.8872 10.7352 33.0459 10.6246 33.2362C10.5349 33.3909 9.46772 35.2257 9.0689 35.9114C8.97664 36.0709 8.96254 36.4154 8.99373 36.5343C9.39088 38.057 10.3634 41.6643 10.3745 41.7017Z" fill="#008C9D"/>
<path d="M45.3571 59.8448L45.5677 59.2172C45.7493 58.7026 45.8918 58.0505 46.5004 58.0505H47.8181V56.8701H46.2905C45.6812 56.8701 45.2753 57.4188 45.0244 57.9533C44.7767 57.6347 44.5558 57.3561 44.54 57.3367L44.3987 57.1588H43.0693V58.3392H43.9717C44.2471 58.5804 45.3571 59.8448 45.3571 59.8448Z" fill="#008C9D"/>
<path d="M27.8812 54.4655C27.8358 54.4545 27.7894 54.4636 27.7503 54.4914C27.7117 54.5189 27.6847 54.5619 27.6747 54.6122L27.3835 56.0779L26.1085 55.7663C26.0637 55.7552 26.0168 55.7645 25.9781 55.7921C25.939 55.8198 25.9121 55.8626 25.9021 55.913L25.603 57.421C25.593 57.4711 25.6008 57.5228 25.6258 57.566C25.6508 57.609 25.6898 57.639 25.7347 57.65L27.0935 57.9825C27.1387 57.9935 27.1853 57.9843 27.224 57.9567C27.2631 57.929 27.29 57.8856 27.3 57.8359L27.5908 56.3695L28.8661 56.6816C28.911 56.6927 28.9575 56.6835 28.9966 56.6558C29.0357 56.6282 29.0627 56.5853 29.0726 56.535L29.3718 55.0272L29.3754 54.9806L29.3485 54.8819C29.3234 54.839 29.2849 54.8091 29.2395 54.7975L27.8812 54.4655Z" fill="#008C9D"/>
<path d="M35.5216 59.177C35.554 59.2138 35.5973 59.2345 35.6432 59.2355C35.6898 59.236 35.7335 59.2166 35.7668 59.1811L36.7381 58.1367L37.6464 59.177C37.679 59.2144 37.7221 59.2345 37.7682 59.2355C37.8148 59.2364 37.8583 59.2172 37.8916 59.1811L38.8908 58.1072L38.9169 58.0707L38.9435 57.9716C38.9439 57.9204 38.9268 57.872 38.8944 57.8347L37.9265 56.7262C37.8941 56.6888 37.851 56.6679 37.8048 56.6675C37.7582 56.6666 37.7147 56.686 37.6814 56.7215L36.7102 57.7663L35.8016 56.7256C35.7693 56.6888 35.726 56.6679 35.6798 56.667C35.6334 56.6666 35.5897 56.6856 35.5565 56.7215L34.5574 57.796C34.5246 57.8319 34.5055 57.8798 34.5047 57.931C34.5038 57.9822 34.5213 58.031 34.5536 58.0679L35.5216 59.177Z" fill="#008C9D"/>
<path d="M73.5635 32.8423H53.406C53.3297 32.8423 53.2678 32.9109 53.2678 32.9959V34.6416C53.2678 34.7265 53.3297 34.7952 53.406 34.7952H73.5852C73.6978 34.7952 73.7896 34.6937 73.7896 34.5688V33.0931C73.7896 32.9547 73.6882 32.8423 73.5635 32.8423Z" fill="#008C9D"/>
<path d="M57.5303 38.1682C57.6259 38.1682 57.7035 38.0819 57.7035 37.976V36.4316C57.7035 36.3255 57.6259 36.2393 57.5303 36.2393H56.1387C56.0436 36.2393 55.9658 36.3255 55.9658 36.4316V37.976C55.9658 38.0819 56.0436 38.1682 56.1391 38.1682H57.5303Z" fill="#008C9D"/>
<path d="M50.2456 59.2235L50.3324 59.1976L51.535 58.4215C51.5754 58.3962 51.6037 58.3547 51.6157 58.3044C51.6277 58.2552 51.6211 58.2034 51.5978 58.1584L50.8986 56.8237C50.8508 56.7321 50.745 56.7007 50.6619 56.7541L49.4589 57.5302C49.3765 57.5833 49.3483 57.7013 49.3965 57.7926L50.0957 59.1276C50.1277 59.1894 50.1857 59.2235 50.2456 59.2235Z" fill="#008C9D"/>
<path d="M55.4762 40.0863C55.3649 40.1827 55.3014 40.328 55.3014 40.4847V42.7088C55.3014 42.8701 55.3715 43.0228 55.4895 43.1178C55.8239 43.3756 62.7608 49.1963 62.988 49.3374C63.0175 49.3559 63.0686 49.3642 63.1414 49.3642C63.3046 49.3642 65.0797 49.1835 65.5192 49.1323C65.5814 49.1249 65.643 49.0737 65.658 49.0455C66.0306 48.3553 67.2162 45.5285 67.3737 44.9637C67.3986 44.8742 67.3916 44.7843 67.3537 44.7096C67.1177 44.2462 66.964 44.0152 66.5581 43.405L66.4351 43.2197C66.4086 43.1806 66.3518 43.121 66.3218 43.1699C66.1291 43.8044 64.8254 47.0401 64.7337 47.1868C64.466 47.2218 63.5064 47.3218 63.2746 47.3252L57.0719 42.3205L63.0234 43.7579C63.2584 43.8233 63.5064 43.7698 63.7037 43.6126C63.9008 43.4553 64.0249 43.2109 64.0444 42.9422L64.3548 38.4645C64.3635 38.3511 64.3357 38.2368 64.2774 38.1431L63.2224 36.4425C63.1383 36.3078 63.0009 36.2275 62.8529 36.2275L58.9085 36.2438C58.8324 36.2438 58.771 36.3119 58.771 36.3965V38.0436C58.771 38.1279 58.8324 38.1967 58.9089 38.1967L62.4625 38.1811C62.5011 38.1811 62.5368 38.198 62.5627 38.2293C62.5888 38.2608 62.6012 38.3014 62.5983 38.3442L62.3777 41.2691L55.8666 39.9936C55.7296 39.9558 55.5875 39.9895 55.4762 40.0863Z" fill="#008C9D"/>
<path d="M70.3585 42.5205C69.846 41.4951 69.1413 40.1268 68.2423 38.4857L68.2366 38.3703C68.2541 38.3331 68.2876 38.3109 68.3255 38.3109L71.2882 38.4399L71.3685 38.4839L71.3851 38.5811L70.3585 42.5205ZM72.1092 36.5762C72.1092 36.5762 72.0032 36.4309 71.7628 36.4309C71.5222 36.4309 66.1785 36.3022 66.1785 36.3022C66.122 36.3022 66.0696 36.3369 66.0305 36.3819C65.9916 36.4272 65.9716 36.4866 65.9737 36.549L65.9787 37.9591L66.0124 38.0762L69.6208 45.2186C69.376 45.9642 68.8406 47.4094 67.8049 49.5002C67.0725 50.9772 66.2545 52.1696 65.7389 52.8604C65.6713 52.9512 65.6048 53.0403 65.5391 53.1287C65.4915 53.1947 65.405 53.2071 65.3418 53.1565L49.2748 40.3907V42.7958L65.5134 55.7084C65.5571 55.7438 65.6089 55.7609 65.6601 55.7609C65.7265 55.7609 65.7921 55.7323 65.8408 55.676L66.2208 55.2366L66.2471 55.2089C66.6937 54.7353 67.9923 52.8959 69.2369 50.3831C70.6992 47.4325 71.4059 45.4763 71.4358 45.3731L71.4478 45.3298L71.471 45.2777C71.471 45.2777 72.6525 41.9763 73.242 38.4465C73.2516 38.3893 73.2504 38.3404 73.2138 38.2837C73.1772 38.2265 72.1092 36.5762 72.1092 36.5762Z" fill="#008C9D"/>
<path d="M49.2748 44.3213V46.7519L63.2481 58.3137C63.327 58.3783 63.419 58.4096 63.5108 58.4096C63.6457 58.4096 63.779 58.3415 63.8654 58.2127L64.5975 57.3011C64.6373 57.2416 64.6543 57.1683 64.6448 57.095C64.6349 57.0218 64.6 56.9566 64.5463 56.9128L49.2748 44.3213Z" fill="#008C9D"/>
<path d="M49.3105 35.4088H49.374H50.1084H51.2534V36.1836C51.2571 36.2278 51.3041 36.2817 51.3544 36.2817H52.0885C52.1234 36.2817 52.1915 36.2398 52.1915 36.1637V32.9515C52.1915 32.8851 52.1645 32.8315 52.0989 32.8315H51.3818C51.3503 32.8315 51.2929 32.8463 51.2534 32.8725V34.3676H50.2112V32.9515C50.2112 32.8851 50.1844 32.8315 50.1188 32.8315H49.4019C49.3698 32.8315 49.3125 32.8463 49.2736 32.8725V34.4705V35.2663V35.3101L49.2823 35.3276L49.3105 35.4088Z" fill="#008C9D"/>
<path d="M59.7569 59.5963C59.2418 60.0648 58.5289 60.6698 57.6402 61.3315L55.8004 59.0554L57.2285 57.4714L59.7569 59.5963ZM42.0871 67.2814V66.6109L47.3813 62.6521C47.4464 62.6038 47.5271 62.5903 47.6023 62.6158C47.6775 62.6412 47.7377 62.7021 47.7676 62.7823L48.9109 65.8667C46.3364 66.7068 43.9565 67.1054 42.0871 67.2814ZM49.276 50.787L55.8119 56.2808L54.0747 58.2078L53.9662 59.7106L56.129 62.387C55.5785 62.7477 54.9827 63.1133 54.343 63.4744L52.0582 59.2117L52.049 59.2173L52.0242 59.1698C51.9763 59.0776 51.8704 59.0467 51.7872 59.1001L50.5847 59.8757C50.5019 59.9293 50.4736 60.0473 50.5219 60.1386L50.556 60.204L50.546 60.2109L52.7448 64.3123C52.1027 64.6258 51.4283 64.9292 50.7167 65.2134C50.6672 65.2331 50.6187 65.2502 50.5693 65.2696L48.4864 60.163C48.4377 60.0445 48.3451 59.955 48.232 59.9191C48.1194 59.8827 47.9978 59.903 47.8993 59.9744L42.0991 64.2071L42.1065 57.2966C42.1065 57.1906 42.0293 57.0974 41.9333 57.0969L40.5209 57.0952C40.4253 57.0952 40.3472 57.1813 40.3472 57.2875L40.3364 67.3936C40.0444 67.4032 39.7731 67.4079 39.5325 67.4079H38.9509V61.5511C38.9509 61.4783 38.9044 61.3324 38.8263 61.2757C38.4483 61.0013 37.3336 60.1921 37.2368 60.1045C37.1535 60.0284 37.0176 60.0533 36.8896 60.1196C36.7828 60.1755 33.2156 62.3188 32.4162 62.7993C32.3149 62.8602 32.2289 62.9537 32.2053 63.1492C32.1865 63.3001 32.0324 64.5539 31.963 65.1169C31.9427 65.2828 31.9987 65.4683 32.1146 65.6024C32.1915 65.6911 32.5716 66.0903 33.0494 66.5878C31.5157 66.3039 30.3129 65.9142 29.5362 65.6149L33.0798 57.5143C33.1013 57.4692 33.1059 57.417 33.0922 57.3677C33.0789 57.3187 33.0486 57.2781 33.0078 57.2542L31.5306 56.2531C31.4459 56.2038 31.3229 56.2186 31.2314 56.2818C31.2314 56.2818 23.8098 60.5563 23.6802 60.633C23.5506 60.7095 23.4875 60.8542 23.475 60.9543C23.465 61.0369 23.2818 62.5263 23.2187 63.0396C23.2054 63.147 23.2324 63.2641 23.3158 63.3882C23.399 63.5122 25.5359 66.1332 25.5359 66.1332L26.9496 65.056L24.7791 62.2022L30.7425 58.6215C30.7425 58.6215 27.2372 66.355 27.2014 66.4251C27.0984 66.6284 27.1265 66.7955 27.2692 66.8614C28.0376 67.2182 30.6968 68.1728 32.6908 68.5029L35.4909 69.1185L36.718 67.1477L33.8254 64.1902L37.16 62.2044V69.2828L38.8322 69.37L38.8524 69.3676C38.9335 69.369 39.0391 69.37 39.1674 69.37C41.5232 69.37 45.9214 69.2029 51.3121 67.0518C57.6225 64.5336 61.5885 60.5523 61.7542 60.3788L62.507 59.5916L49.276 48.3301V50.787Z" fill="#008C9D"/>
<path d="M53.3607 40.152L52.4542 41.1951C52.4222 41.232 52.4048 41.2808 52.4056 41.332C52.4068 41.3833 52.4256 41.4311 52.4588 41.4673L53.46 42.5392C53.4932 42.5743 53.5368 42.5942 53.5833 42.5928C53.6295 42.5924 53.6726 42.5711 53.7051 42.5343L54.6709 41.4229C54.703 41.3861 54.7203 41.3371 54.7195 41.2855C54.7187 41.2342 54.6995 41.1864 54.6664 41.1509L53.693 40.1086L54.5994 39.0656C54.6318 39.0282 54.6489 38.9798 54.6481 38.9287C54.6472 38.877 54.6281 38.8291 54.5949 38.7936L53.5941 37.7214L53.56 37.6933L53.4704 37.6675C53.4242 37.6684 53.381 37.6897 53.3486 37.7265L52.3828 38.8379C52.3507 38.8748 52.3333 38.9231 52.3341 38.9748C52.3349 39.026 52.3541 39.0739 52.3873 39.11L53.3607 40.152Z" fill="#008C9D"/>
<path d="M31.3242 12.8379H29.8079V13.6804H31.3242V12.8379Z" fill="#008C9D"/>
<path d="M36.2829 12.8379H33.5066V13.6804H36.2829V12.8379Z" fill="#008C9D"/>
<path d="M47.7781 13.6809H49.3014V12.8384H47.7781V13.6809Z" fill="#008C9D"/>
<path d="M45.4588 12.8379H42.6824V13.6804H45.4588V12.8379Z" fill="#008C9D"/>
<path d="M40.8708 12.8379H38.0945V13.6804H40.8708V12.8379Z" fill="#008C9D"/>
<path d="M32.8248 13.6775H32.067V12.7861H32.8248V13.6775Z" fill="#008C9D"/>
<path d="M46.9968 13.6775H46.2391V12.8096H46.9968V13.6775Z" fill="#008C9D"/>
<path d="M31.3242 17.4775H29.8079V18.3201H31.3242V17.4775Z" fill="#008C9D"/>
<path d="M36.2829 17.4775H33.5066V18.3201H36.2829V17.4775Z" fill="#008C9D"/>
<path d="M47.7781 18.3201H49.3014V17.4775H47.7781V18.3201Z" fill="#008C9D"/>
<path d="M45.4588 17.4775H42.6824V18.3201H45.4588V17.4775Z" fill="#008C9D"/>
<path d="M40.8708 17.4775H38.0945V18.3201H40.8708V17.4775Z" fill="#008C9D"/>
<path d="M32.8248 18.3167H32.067V17.4253H32.8248V18.3167Z" fill="#008C9D"/>
<path d="M46.9968 18.3162H46.2391V17.4482H46.9968V18.3162Z" fill="#008C9D"/>
<path d="M31.3242 22.1138H29.8079V22.9567H31.3242V22.1138Z" fill="#008C9D"/>
<path d="M36.2829 22.1138H33.5066V22.9567H36.2829V22.1138Z" fill="#008C9D"/>
<path d="M47.7781 22.9567H49.3014V22.1138H47.7781V22.9567Z" fill="#008C9D"/>
<path d="M45.4588 22.1138H42.6824V22.9567H45.4588V22.1138Z" fill="#008C9D"/>
<path d="M40.8708 22.1138H38.0945V22.9567H40.8708V22.1138Z" fill="#008C9D"/>
<path d="M32.8248 22.9538H32.067V22.0625H32.8248V22.9538Z" fill="#008C9D"/>
<path d="M46.9968 22.9542H46.2391V22.0869H46.9968V22.9542Z" fill="#008C9D"/>
<path d="M46.9971 13.6544H46.2394V12.8115H46.9971V13.6544ZM46.9971 18.3062H46.2394V17.4633H46.9971V18.3062ZM46.9971 22.9549H46.2394V22.112H46.9971V22.9549ZM45.4587 27.6026H42.6824V8.53725L43.61 7.48179H44.5095L45.4587 8.53725V27.6026ZM45.4587 29.3217H42.6824V28.4622H45.4587V29.3217ZM40.8711 27.6026H38.0948V8.53725L39.0221 7.48179H39.9219L40.8711 8.53725V27.6026ZM40.8711 29.3217H38.0948V28.4622H40.8711V29.3217ZM36.2831 27.6026H33.5068V8.53725L34.4345 7.48179H35.3343L36.2831 8.53725V27.6026ZM36.2831 29.3217H33.5068V28.4622H36.2831V29.3217ZM32.8248 13.6544H32.067V12.8115H32.8248V13.6544ZM32.8248 18.3062H32.067V17.4633H32.8248V18.3062ZM32.8248 22.9549H32.067V22.112H32.8248V22.9549ZM31.3241 31.1944H47.7784V5.21631H31.3241V31.1944Z" fill="#008C9D"/>
<path d="M7.24347 75.5669C7.24347 75.4304 7.28852 75.3107 7.37876 75.2079C7.469 75.1053 7.578 75.0532 7.70564 75.0532C7.82921 75.0532 7.93702 75.104 8.02964 75.2041C8.12214 75.3043 8.1678 75.4252 8.1678 75.5669C8.1678 75.7034 8.12274 75.8231 8.03311 75.9259C7.94287 76.0286 7.834 76.0792 7.70564 76.0792C7.578 76.0792 7.469 76.0299 7.37876 75.9298C7.28852 75.8296 7.24347 75.7087 7.24347 75.5669ZM7.80519 79.5059V77.4773C7.62544 77.3824 7.39992 77.3356 7.12981 77.3356C6.86915 77.3356 6.66299 77.4331 6.5112 77.6308C6.35953 77.8284 6.284 78.0846 6.284 78.4006C6.284 79.138 6.63896 79.5059 7.35008 79.5059H7.80519ZM6.10592 75.5669C6.10592 75.4304 6.15098 75.3107 6.24121 75.2079C6.33085 75.1053 6.44033 75.0532 6.56809 75.0532C6.69633 75.0532 6.80533 75.1026 6.89556 75.2003C6.98519 75.2978 7.03025 75.42 7.03025 75.5669C7.03025 75.7087 6.98627 75.8296 6.89903 75.9298C6.81118 76.0299 6.70099 76.0792 6.56809 76.0792C6.43507 76.0792 6.325 76.0299 6.23763 75.9298C6.14978 75.8296 6.10592 75.7087 6.10592 75.5669ZM9.44841 80.3266H7.24347C5.97816 80.3266 5.34497 79.7166 5.34497 78.4956C5.34497 77.9376 5.50369 77.4682 5.82124 77.0859C6.13927 76.7048 6.6061 76.5136 7.22244 76.5136C7.47366 76.5136 7.7238 76.5371 7.97276 76.5813C8.2217 76.6255 8.40743 76.6722 8.53101 76.7191L8.71554 76.7906V79.5059H9.44841V80.3266Z" fill="#363087"/>
<path d="M10.8851 81.7791C10.7949 81.6789 10.7505 81.558 10.7505 81.4162C10.7505 81.2733 10.7949 81.1523 10.8851 81.0521C10.9754 80.9521 11.0843 80.9025 11.2126 80.9025C11.3356 80.9025 11.4434 80.9521 11.5359 81.0521C11.6285 81.1523 11.6748 81.2733 11.6748 81.4162C11.6748 81.5527 11.6297 81.6724 11.5395 81.7752C11.4493 81.8779 11.3403 81.9285 11.2126 81.9285C11.0843 81.9285 10.9754 81.8792 10.8851 81.7791ZM9.7476 81.7791C9.65736 81.6789 9.61218 81.558 9.61218 81.4162C9.61218 81.2733 9.65736 81.1523 9.7476 81.0521C9.83723 80.9521 9.94671 80.9025 10.0745 80.9025C10.198 80.9025 10.3059 80.9521 10.3984 81.0521C10.4904 81.1523 10.5366 81.2733 10.5366 81.4162C10.5366 81.5527 10.4915 81.6724 10.4018 81.7752C10.3117 81.8779 10.2027 81.9285 10.0745 81.9285C9.94671 81.9285 9.83723 81.8792 9.7476 81.7791ZM9.3422 80.3264C9.25663 80.3264 9.16413 80.2874 9.06457 80.208C8.96549 80.1287 8.91577 80.0312 8.91577 79.9155C8.91577 79.8051 8.96549 79.7101 9.06457 79.6281C9.16413 79.5462 9.25663 79.5059 9.3422 79.5059H10.1811V76.6162H11.12V79.5059H11.8523V80.3264H9.3422Z" fill="#363087"/>
<path d="M14.1559 75.5669C14.1559 75.4304 14.201 75.3107 14.2912 75.2079C14.3809 75.1053 14.4904 75.0532 14.618 75.0532C14.7417 75.0532 14.8495 75.104 14.9421 75.2041C15.034 75.3043 15.0802 75.4252 15.0802 75.5669C15.0802 75.7034 15.0352 75.8231 14.9456 75.9259C14.8553 76.0286 14.7464 76.0792 14.618 76.0792C14.4904 76.0792 14.3809 76.0299 14.2912 75.9298C14.201 75.8296 14.1559 75.7087 14.1559 75.5669ZM14.8313 79.5059V78.4552C14.8313 77.7088 14.5777 77.3356 14.0709 77.3356C13.8097 77.3356 13.6035 77.4331 13.4518 77.6308C13.3001 77.8284 13.2245 78.0846 13.2245 78.4006C13.2245 78.7738 13.3106 79.0521 13.484 79.2329C13.6568 79.415 13.9263 79.5059 14.2912 79.5059H14.8313ZM13.0184 75.5669C13.0184 75.4304 13.0634 75.3107 13.1536 75.2079C13.2433 75.1053 13.3522 75.0532 13.4805 75.0532C13.6082 75.0532 13.7178 75.1026 13.8074 75.2003C13.8976 75.2978 13.9427 75.42 13.9427 75.5669C13.9427 75.7087 13.8987 75.8296 13.8109 75.9298C13.7236 76.0299 13.6128 76.0792 13.4805 76.0792C13.3475 76.0792 13.2374 76.0299 13.1495 75.9298C13.0622 75.8296 13.0184 75.7087 13.0184 75.5669ZM15.7487 80.3266H11.7454C11.6598 80.3266 11.5673 80.2876 11.4678 80.2083C11.3687 80.129 11.319 80.0314 11.319 79.9156C11.319 79.8051 11.3687 79.7101 11.4678 79.6283C11.5673 79.5463 11.6598 79.5059 11.7454 79.5059H12.2931C12.3687 79.5059 12.4395 79.5113 12.5064 79.5216C12.5726 79.532 12.62 79.5424 12.6487 79.5528L12.6909 79.5606C12.4254 79.3447 12.2931 78.9689 12.2931 78.4317C12.2931 77.896 12.4553 77.4421 12.7799 77.0702C13.1044 76.6996 13.5584 76.5136 14.1418 76.5136C14.6819 76.5136 15.0851 76.6736 15.3509 76.9922C15.6162 77.3096 15.7487 77.7556 15.7487 78.3291V80.3266Z" fill="#363087"/>
<path d="M16.2609 82.3317C16.0518 82.3317 15.8527 82.3044 15.6635 82.2524L15.7344 81.4241C15.9288 81.4864 16.121 81.5189 16.3107 81.5189C16.5667 81.5189 16.7582 81.4357 16.8865 81.2693C17.0142 81.1041 17.0786 80.8181 17.0786 80.4136V76.6162H18.017V79.5059H18.7494V80.3264H18.017V80.3577C18.017 80.6373 17.9925 80.8844 17.9427 81.1002C17.8929 81.316 17.8062 81.5216 17.6827 81.7154C17.5595 81.9104 17.378 82.0613 17.139 82.1692C16.8994 82.2771 16.6065 82.3317 16.2609 82.3317Z" fill="#363087"/>
<path d="M21.9926 75.6053C21.9926 75.4688 22.0389 75.3492 22.1315 75.2463C22.224 75.1436 22.3318 75.093 22.4548 75.093C22.5832 75.093 22.6921 75.1423 22.7822 75.2425C22.8719 75.3426 22.917 75.4635 22.917 75.6053C22.917 75.7432 22.8719 75.8628 22.7822 75.9642C22.6921 76.0669 22.5832 76.119 22.4548 76.119C22.3318 76.119 22.224 76.0683 22.1315 75.9694C22.0389 75.8693 21.9926 75.7483 21.9926 75.6053ZM21.4097 74.5715C21.4097 74.435 21.4549 74.3153 21.5444 74.2125C21.6347 74.1098 21.7437 74.0591 21.8719 74.0591C21.9997 74.0591 22.1085 74.1084 22.1988 74.2086C22.2891 74.3088 22.3341 74.4296 22.3341 74.5715C22.3341 74.708 22.2891 74.8276 22.1988 74.9303C22.1085 75.0332 21.9997 75.0851 21.8719 75.0851C21.7437 75.0851 21.6347 75.0345 21.5444 74.9343C21.4549 74.8355 21.4097 74.7132 21.4097 74.5715ZM20.8194 75.6053C20.8194 75.4688 20.8644 75.3492 20.9546 75.2463C21.0449 75.1436 21.1537 75.093 21.2815 75.093C21.4051 75.093 21.5129 75.1423 21.6054 75.2425C21.6975 75.3426 21.7437 75.4635 21.7437 75.6053C21.7437 75.7432 21.6975 75.8628 21.6054 75.9642C21.5129 76.0669 21.4051 76.119 21.2815 76.119C21.1537 76.119 21.0449 76.0683 20.9546 75.9694C20.8644 75.8693 20.8194 75.7483 20.8194 75.6053ZM23.1091 80.326C22.7201 80.326 22.4267 80.2882 22.2275 80.2115C22.0284 80.1348 21.879 79.9917 21.7794 79.7809C21.7039 79.9604 21.5721 80.1061 21.3845 80.2193C21.1977 80.3325 20.971 80.3897 20.7057 80.3897C20.4731 80.3897 20.2704 80.3337 20.0976 80.2231C19.9248 80.1127 19.8094 79.9631 19.7525 79.7733C19.6108 80.1413 19.295 80.326 18.807 80.326H18.5581C18.4727 80.326 18.38 80.287 18.2805 80.2076C18.1816 80.1283 18.1317 80.0308 18.1317 79.915C18.1317 79.8044 18.1816 79.7095 18.2805 79.6276C18.38 79.5456 18.4727 79.5053 18.5581 79.5053H18.8141C19.0514 79.5053 19.2171 79.4365 19.312 79.2998C19.4064 79.1633 19.4539 78.9045 19.4539 78.5261V77.0892H20.3928V78.5495C20.3928 78.9293 20.4251 79.1933 20.4889 79.3428C20.5527 79.4936 20.6846 79.5678 20.8837 79.5678C21.0776 79.5678 21.2224 79.4923 21.3172 79.339C21.4121 79.1868 21.4596 78.9267 21.4596 78.5573V76.7745H22.3629V78.7549C22.3629 79.0606 22.4208 79.2622 22.5368 79.3585C22.6528 79.456 22.8772 79.5053 23.2087 79.5053H23.4009C23.429 79.1893 23.4437 78.8733 23.4437 78.5573C23.4437 77.8316 23.3745 77.1268 23.2374 76.4428L24.1547 76.2998C24.3064 77.0112 24.3821 77.7393 24.3821 78.4871C24.3821 78.8551 24.3727 79.1945 24.3539 79.5053H25.0575V80.326H23.1091Z" fill="#363087"/>
<path d="M26.729 80.3259H24.9511C24.8656 80.3259 24.773 80.2869 24.6735 80.2076C24.5745 80.1283 24.5247 80.0308 24.5247 79.915C24.5247 79.8044 24.5745 79.7096 24.6735 79.6276C24.773 79.5456 24.8656 79.5054 24.9511 79.5054H25.79V74.7612H26.729V80.3259Z" fill="#363087"/>
<path d="M27.8662 74.7612H28.8052V80.3259H27.8662V74.7612Z" fill="#363087"/>
<path d="M33.192 75.5669C33.192 75.4304 33.237 75.3107 33.3273 75.2079C33.4175 75.1053 33.5265 75.0532 33.6541 75.0532C33.7777 75.0532 33.8856 75.104 33.9782 75.2041C34.0707 75.3043 34.1163 75.4252 34.1163 75.5669C34.1163 75.7034 34.0713 75.8231 33.9817 75.9259C33.8914 76.0286 33.7825 76.0792 33.6541 76.0792C33.5265 76.0792 33.4175 76.0299 33.3273 75.9298C33.237 75.8296 33.192 75.7087 33.192 75.5669ZM33.7537 79.5059V77.4773C33.574 77.3824 33.3485 77.3356 33.0783 77.3356C32.8176 77.3356 32.6115 77.4331 32.4597 77.6308C32.3081 77.8284 32.2325 78.0846 32.2325 78.4006C32.2325 79.138 32.5875 79.5059 33.2986 79.5059H33.7537ZM32.0545 75.5669C32.0545 75.4304 32.0995 75.3107 32.1897 75.2079C32.2794 75.1053 32.3888 75.0532 32.5166 75.0532C32.6448 75.0532 32.7538 75.1026 32.8441 75.2003C32.9337 75.2978 32.9788 75.42 32.9788 75.5669C32.9788 75.7087 32.9348 75.8296 32.8476 75.9298C32.7597 76.0299 32.6495 76.0792 32.5166 76.0792C32.3836 76.0792 32.2735 76.0299 32.1861 75.9298C32.0983 75.8296 32.0545 75.7087 32.0545 75.5669ZM35.3969 80.3266H33.192C31.9267 80.3266 31.2935 79.7166 31.2935 78.4956C31.2935 77.9376 31.4522 77.4682 31.7698 77.0859C32.0878 76.7048 32.5546 76.5136 33.171 76.5136C33.4221 76.5136 33.6723 76.5371 33.9212 76.5813C34.1703 76.6255 34.356 76.6722 34.4795 76.7191L34.6641 76.7906V79.5059H35.3969V80.3266Z" fill="#363087"/>
<path d="M37.6793 75.5669C37.6793 75.4304 37.7244 75.3107 37.8141 75.2079C37.9042 75.1053 38.0132 75.0532 38.1415 75.0532C38.2645 75.0532 38.3723 75.104 38.4649 75.2041C38.5574 75.3043 38.6037 75.4252 38.6037 75.5669C38.6037 75.7034 38.5586 75.8231 38.4684 75.9259C38.3781 76.0286 38.2692 76.0792 38.1415 76.0792C38.0132 76.0792 37.9042 76.0299 37.8141 75.9298C37.7244 75.8296 37.6793 75.7087 37.6793 75.5669ZM37.5511 79.5059C37.7836 79.5059 37.9745 79.4111 38.1233 79.2212C38.2727 79.0326 38.3477 78.7608 38.3477 78.4085C38.3477 77.6931 38.087 77.3356 37.5657 77.3356C37.3426 77.3356 37.154 77.4239 36.9998 77.6034C36.8457 77.7829 36.769 78.0456 36.769 78.3927C36.769 79.1341 37.0296 79.5059 37.5511 79.5059ZM36.5412 75.5669C36.5412 75.4304 36.5862 75.3107 36.6765 75.2079C36.7667 75.1053 36.8756 75.0532 37.0039 75.0532C37.1316 75.0532 37.2406 75.1026 37.3308 75.2003C37.4211 75.2978 37.4661 75.42 37.4661 75.5669C37.4661 75.7087 37.4222 75.8296 37.3343 75.9298C37.2465 76.0299 37.1362 76.0792 37.0039 76.0792C36.8709 76.0792 36.7608 76.0299 36.6729 75.9298C36.5851 75.8296 36.5412 75.7087 36.5412 75.5669ZM39.7278 80.3266H35.2899C35.2044 80.3266 35.1118 80.2876 35.0122 80.2083C34.9132 80.129 34.8634 80.0314 34.8634 79.9156C34.8634 79.8051 34.9132 79.7101 35.0122 79.6283C35.1118 79.5463 35.2044 79.5059 35.2899 79.5059H35.7164L36.1574 79.5449C35.9343 79.298 35.8231 78.9429 35.8231 78.4799C35.8231 77.9064 35.9917 77.4344 36.328 77.0664C36.6647 76.6983 37.1006 76.5136 37.6366 76.5136C38.1532 76.5136 38.5574 76.6685 38.8492 76.9753C39.1409 77.2835 39.2861 77.7426 39.2861 78.3537C39.2861 78.5904 39.2509 78.8181 39.1795 79.0366C39.1092 79.255 39.0067 79.4241 38.8737 79.5449C39.0729 79.5189 39.2558 79.5059 39.4221 79.5059H39.7278V80.3266Z" fill="#363087"/>
<path d="M41.3917 79.5052H42.5364C42.9534 79.5052 43.2464 79.4037 43.415 79.2009C43.5826 78.9981 43.6669 78.7211 43.6669 78.3686C43.6669 77.6845 43.4232 77.3426 42.9347 77.3426C42.5656 77.3426 42.2341 77.5584 41.9423 77.9889C41.6518 78.4207 41.4679 78.9266 41.3917 79.5052ZM42.4508 80.3258H39.6215C39.536 80.3258 39.4434 80.2868 39.3439 80.2074C39.2443 80.1281 39.1951 80.0306 39.1951 79.9149C39.1951 79.8044 39.2443 79.7094 39.3439 79.6274C39.4434 79.5455 39.536 79.5052 39.6215 79.5052H40.4604V74.7612H41.3988V76.8132C41.3988 77.2554 41.3707 77.6442 41.3132 77.981H41.3273C41.4795 77.5181 41.7198 77.1579 42.0502 76.9004C42.3794 76.6429 42.7379 76.5129 43.1269 76.5129C43.6154 76.5129 43.9879 76.6716 44.2434 76.9876C44.4999 77.3023 44.6276 77.7419 44.6276 78.3049C44.6276 78.7888 44.5257 79.1892 44.3219 79.5052H45.0892V80.3258H42.5656H42.4508Z" fill="#363087"/>
<path d="M45.9469 75.9744C45.8496 75.8664 45.8015 75.7391 45.8015 75.5907C45.8015 75.4439 45.8496 75.3164 45.9469 75.2084C46.0442 75.1005 46.1589 75.0459 46.2926 75.0459C46.4249 75.0459 46.5397 75.1005 46.6369 75.2084C46.7341 75.3164 46.7822 75.4439 46.7822 75.5907C46.7822 75.7391 46.7341 75.8664 46.6369 75.9744C46.5397 76.0824 46.4249 76.1357 46.2926 76.1357C46.1589 76.1357 46.0442 76.0824 45.9469 75.9744ZM44.9839 80.3271C44.8983 80.3271 44.8058 80.2881 44.7062 80.2087C44.6067 80.1294 44.5574 80.0318 44.5574 79.9161C44.5574 79.8055 44.6067 79.7106 44.7062 79.6287C44.8058 79.5467 44.8983 79.5064 44.9839 79.5064H45.8227V76.6168H46.7612V79.5064H47.4934V80.3271H44.9839Z" fill="#363087"/>
<path d="M50.6783 79.5055V78.4548C50.6783 77.7083 50.4253 77.335 49.918 77.335C49.6567 77.335 49.4505 77.4325 49.2993 77.6303C49.1471 77.828 49.0722 78.0842 49.0722 78.4002C49.0722 78.7734 49.1588 79.0517 49.331 79.2324C49.5044 79.4145 49.7739 79.5055 50.1382 79.5055H50.6783ZM50.1382 80.3261C49.6649 80.3261 49.3157 80.2767 49.0932 80.1766C48.8705 80.0764 48.6878 79.923 48.546 79.7189C48.4031 80.1232 48.0669 80.3261 47.5362 80.3261H47.3861C47.3007 80.3261 47.2081 80.2871 47.1085 80.2077C47.0102 80.1284 46.9597 80.0309 46.9597 79.9152C46.9597 79.8047 47.0102 79.7097 47.1085 79.6277C47.2081 79.5458 47.3007 79.5055 47.3861 79.5055H47.4366C47.6639 79.5055 47.8384 79.4236 47.9591 79.2611C48.0798 79.0972 48.1407 78.8215 48.1407 78.4314C48.1407 77.8956 48.3024 77.4417 48.627 77.0699C48.9514 76.6992 49.406 76.5132 49.9894 76.5132C50.5295 76.5132 50.9325 76.6732 51.1984 76.9918C51.4633 77.3091 51.5957 77.7552 51.5957 78.3287V79.5055H52.1651V80.3261H50.1382Z" fill="#363087"/>
<path d="M53.8358 80.3259H52.0585C51.9731 80.3259 51.8805 80.2869 51.7809 80.2076C51.6813 80.1283 51.6321 80.0308 51.6321 79.915C51.6321 79.8044 51.6813 79.7096 51.7809 79.6276C51.8805 79.5456 51.9731 79.5054 52.0585 79.5054H52.8974V74.7612H53.8358V80.3259Z" fill="#363087"/>
<path d="M54.9733 74.7612H55.9129V80.3259H54.9733V74.7612Z" fill="#363087"/>
<path d="M60.2991 75.5669C60.2991 75.4304 60.3448 75.3107 60.435 75.2079C60.5253 75.1053 60.6343 75.0532 60.7619 75.0532C60.8849 75.0532 60.9927 75.104 61.0853 75.2041C61.1778 75.3043 61.2234 75.4252 61.2234 75.5669C61.2234 75.7034 61.179 75.8231 61.0888 75.9259C60.9985 76.0286 60.8896 76.0792 60.7619 76.0792C60.6343 76.0792 60.5253 76.0299 60.435 75.9298C60.3448 75.8296 60.2991 75.7087 60.2991 75.5669ZM60.8615 79.5059V77.4773C60.6812 77.3824 60.4562 77.3356 60.1855 77.3356C59.9254 77.3356 59.7193 77.4331 59.5669 77.6308C59.4158 77.8284 59.3396 78.0846 59.3396 78.4006C59.3396 79.138 59.6946 79.5059 60.4058 79.5059H60.8615ZM59.1616 75.5669C59.1616 75.4304 59.2073 75.3107 59.2975 75.2079C59.3865 75.1053 59.4966 75.0532 59.6243 75.0532C59.752 75.0532 59.861 75.1026 59.9512 75.2003C60.0413 75.2978 60.086 75.42 60.086 75.5669C60.086 75.7087 60.0426 75.8296 59.9547 75.9298C59.8669 76.0299 59.7566 76.0792 59.6243 76.0792C59.4908 76.0792 59.3807 76.0299 59.2939 75.9298C59.2061 75.8296 59.1616 75.7087 59.1616 75.5669ZM62.5041 80.3266H60.2991C59.0338 80.3266 58.4012 79.7166 58.4012 78.4956C58.4012 77.9376 58.5594 77.4682 58.8769 77.0859C59.1955 76.7048 59.6618 76.5136 60.2781 76.5136C60.5299 76.5136 60.7795 76.5371 61.029 76.5813C61.2774 76.6255 61.4637 76.6722 61.5867 76.7191L61.7718 76.7906V79.5059H62.5041V80.3266Z" fill="#363087"/>
<path d="M63.362 75.9744C63.2648 75.8664 63.2156 75.7391 63.2156 75.5907C63.2156 75.4439 63.2648 75.3164 63.362 75.2084C63.4593 75.1005 63.574 75.0459 63.7065 75.0459C63.8389 75.0459 63.9536 75.1005 64.0509 75.2084C64.1482 75.3164 64.1973 75.4439 64.1973 75.5907C64.1973 75.7391 64.1482 75.8664 64.0509 75.9744C63.9536 76.0824 63.8389 76.1357 63.7065 76.1357C63.574 76.1357 63.4593 76.0824 63.362 75.9744ZM64.1763 80.3271H62.3978C62.3123 80.3271 62.2197 80.2881 62.1201 80.2087C62.0218 80.1294 61.9713 80.0318 61.9713 79.9161C61.9713 79.8055 62.0218 79.7106 62.1201 79.6287C62.2197 79.5467 62.3123 79.5064 62.3978 79.5064H63.2366V76.6168H64.1763V80.3271Z" fill="#363087"/>
<path d="M65.3141 80.3259V74.7612H66.2525V79.5054H66.9848V80.3259H65.3141Z" fill="#363087"/>
<path d="M69.9642 79.5055V78.4548C69.9642 77.7083 69.7112 77.335 69.2038 77.335C68.9425 77.335 68.7364 77.4325 68.5853 77.6303C68.433 77.828 68.358 78.0842 68.358 78.4002C68.358 78.7734 68.4434 79.0517 68.6169 79.2324C68.7903 79.4145 69.0597 79.5055 69.4241 79.5055H69.9642ZM70.8816 80.3261H66.8783C66.7927 80.3261 66.7002 80.2871 66.6007 80.2077C66.5022 80.1284 66.4519 80.0309 66.4519 79.9152C66.4519 79.8047 66.5022 79.7097 66.6007 79.6277C66.7002 79.5458 66.7927 79.5055 66.8783 79.5055H67.4265C67.5015 79.5055 67.5731 79.5107 67.6398 79.5212C67.7054 79.5315 67.7534 79.5419 67.7816 79.5524L67.8238 79.5602C67.5589 79.3443 67.4265 78.9684 67.4265 78.4314C67.4265 77.8956 67.5882 77.4417 67.9128 77.0699C68.2373 76.6992 68.6918 76.5132 69.2753 76.5132C69.8154 76.5132 70.2184 76.6732 70.4843 76.9918C70.7492 77.3091 70.8816 77.7552 70.8816 78.3287V80.3261Z" fill="#363087"/>
<path d="M71.9049 74.9984H72.8445V80.3263H71.9049V74.9984ZM71.407 74.603V74.0346C71.5594 74.0346 71.7011 74.0515 71.8346 74.0828C71.7151 74.0138 71.6565 73.8981 71.6565 73.7355C71.6565 73.5145 71.7445 73.3233 71.919 73.1633C72.0948 73.0021 72.3561 72.9229 72.7016 72.9229C72.7825 72.9229 72.9218 72.9384 73.1211 72.9696L73.0284 73.5223C72.8867 73.491 72.7591 73.4742 72.6454 73.4742C72.4123 73.4742 72.2963 73.5638 72.2963 73.7433C72.2963 73.9385 72.4673 74.0346 72.8082 74.0346H73.2417V74.603H71.407Z" fill="#363087"/>
<path d="M73.5607 84.6364H5.34497V84.1108H73.5607V84.6364Z" fill="#008C9D"/>
<path d="M0.859375 91.8V87.4945H3.47306V88.2451H1.67947V89.271H3.33858V90.0215H1.67947V91.0495H3.48063V91.8H0.859375ZM4.93946 91.861C4.75385 91.861 4.58844 91.8253 4.44324 91.7538C4.29804 91.6809 4.18313 91.5737 4.09854 91.4322C4.01521 91.2892 3.97353 91.1112 3.97353 90.8982C3.97353 90.7188 4.0032 90.5681 4.06255 90.4462C4.1219 90.3243 4.20271 90.2262 4.30498 90.1518C4.40726 90.0775 4.52342 90.0215 4.65347 89.9837C4.78479 89.9458 4.92242 89.9192 5.06635 89.9038C5.23555 89.8841 5.37192 89.8659 5.47546 89.8491C5.57899 89.8309 5.65412 89.8043 5.70084 89.7692C5.74756 89.7342 5.77092 89.6823 5.77092 89.6137V89.601C5.77092 89.4679 5.73303 89.3648 5.65727 89.292C5.58278 89.2191 5.47672 89.1827 5.33908 89.1827C5.19388 89.1827 5.07835 89.2184 4.99249 89.2899C4.90663 89.36 4.84981 89.4483 4.82203 89.5548L4.07581 89.4875C4.11369 89.2913 4.18819 89.1217 4.2993 88.9788C4.41041 88.8344 4.55372 88.7237 4.72923 88.6466C4.90599 88.5681 5.11055 88.5289 5.34287 88.5289C5.5045 88.5289 5.65917 88.5499 5.8069 88.5919C5.95589 88.6339 6.08783 88.6991 6.20274 88.7874C6.3189 88.8757 6.41044 88.9892 6.47736 89.128C6.54428 89.2653 6.57774 89.43 6.57774 89.622V91.8H5.81258V91.3523H5.78986C5.74314 91.4532 5.68063 91.5422 5.60234 91.6192C5.52407 91.6949 5.43 91.7545 5.32015 91.7979C5.21029 91.84 5.0834 91.861 4.93946 91.861ZM5.17052 91.2429C5.28921 91.2429 5.39401 91.2171 5.48492 91.1651C5.57583 91.1119 5.64717 91.0405 5.69894 90.9507C5.75071 90.8611 5.77659 90.7594 5.77659 90.6459V90.3032C5.75134 90.3214 5.71661 90.3382 5.67242 90.3536C5.6295 90.3677 5.58089 90.381 5.52659 90.3936C5.47229 90.4049 5.418 90.4153 5.36371 90.4252C5.30941 90.4335 5.26018 90.4413 5.21598 90.4483C5.12128 90.4637 5.03858 90.4882 4.96787 90.5219C4.89716 90.5555 4.84224 90.6011 4.80309 90.6585C4.76395 90.7146 4.74438 90.7847 4.74438 90.8687C4.74438 90.9907 4.78415 91.0838 4.8637 91.1483C4.94451 91.2114 5.04679 91.2429 5.17052 91.2429ZM9.62423 89.4917L8.88554 89.5421C8.87292 89.4721 8.84577 89.409 8.80411 89.353C8.76243 89.2955 8.70751 89.2499 8.63933 89.2163C8.5724 89.1813 8.49223 89.1638 8.3988 89.1638C8.27379 89.1638 8.16836 89.1932 8.08251 89.2521C7.99664 89.3095 7.95372 89.3866 7.95372 89.4833C7.95372 89.5604 7.98149 89.6256 8.03704 89.6788C8.0926 89.7321 8.18794 89.7749 8.32304 89.8071L8.84956 89.9248C9.13239 89.9893 9.34325 90.093 9.48216 90.2359C9.62101 90.3789 9.69048 90.5667 9.69048 90.7994C9.69048 91.011 9.63427 91.1967 9.52196 91.3565C9.4108 91.5162 9.25803 91.641 9.06358 91.7307C8.87039 91.819 8.64754 91.8631 8.395 91.8631C8.0099 91.8631 7.70307 91.7741 7.47454 91.5961C7.24726 91.4168 7.11406 91.1729 7.07491 90.8645L7.86848 90.8183C7.89248 90.9486 7.95055 91.0481 8.04272 91.1168C8.1349 91.184 8.25296 91.2178 8.3969 91.2178C8.53832 91.2178 8.65196 91.1876 8.73781 91.1273C8.82494 91.0656 8.86913 90.9864 8.87039 90.8897C8.86913 90.8084 8.83819 90.7419 8.77759 90.69C8.71698 90.6368 8.62354 90.5961 8.49728 90.5681L7.99349 90.4567C7.70939 90.3936 7.4979 90.2843 7.359 90.1288C7.22138 89.9732 7.15256 89.7749 7.15256 89.5338C7.15256 89.3263 7.20306 89.1476 7.30407 88.9977C7.40635 88.8477 7.54966 88.7321 7.73401 88.6508C7.91962 88.5695 8.1368 88.5289 8.38554 88.5289C8.75297 88.5289 9.04211 88.615 9.25298 88.7874C9.46513 88.9599 9.58883 89.1946 9.62423 89.4917ZM11.7459 88.5709V89.2436H9.99399V88.5709H11.7459ZM10.3917 87.7973H11.1985V90.8077C11.1985 90.8904 11.2099 90.9549 11.2327 91.0012C11.2553 91.046 11.2869 91.0776 11.3273 91.0958C11.369 91.114 11.417 91.1231 11.4713 91.1231C11.5092 91.1231 11.547 91.1197 11.5849 91.1126C11.6228 91.1042 11.6518 91.0979 11.6721 91.0937L11.7989 91.7601C11.7586 91.7741 11.7017 91.7903 11.6285 91.8085C11.5553 91.8281 11.4663 91.84 11.3615 91.8442C11.167 91.8527 10.9966 91.8239 10.8501 91.758C10.7049 91.6922 10.5919 91.5898 10.511 91.4511C10.4302 91.3123 10.3904 91.1372 10.3917 90.9255V87.7973ZM13.566 91.8631C13.2668 91.8631 13.0092 91.7958 12.7932 91.6613C12.5787 91.5254 12.4132 91.3334 12.297 91.0852C12.1809 90.8358 12.1229 90.5408 12.1229 90.2002C12.1229 89.868 12.1809 89.5766 12.297 89.3256C12.4132 89.0748 12.5768 88.8793 12.7876 88.7391C12.9997 88.5989 13.2484 88.5289 13.5338 88.5289C13.7257 88.5289 13.9044 88.5632 14.0698 88.6318C14.2365 88.6991 14.3817 88.8008 14.5054 88.9367C14.6304 89.0726 14.7277 89.2436 14.7971 89.4497C14.8665 89.6543 14.9012 89.894 14.9012 90.1687V90.4146H12.4448V89.8596H14.1418C14.1418 89.7307 14.1165 89.6165 14.066 89.517C14.0155 89.4175 13.9454 89.3397 13.8558 89.2835C13.7674 89.2261 13.6645 89.1974 13.5471 89.1974C13.4246 89.1974 13.316 89.2289 13.2213 89.292C13.1279 89.3537 13.0546 89.4371 13.0016 89.5421C12.9486 89.6459 12.9214 89.7615 12.9202 89.8891V90.4167C12.9202 90.5765 12.9467 90.7146 12.9997 90.8309C13.054 90.9472 13.1304 91.0369 13.2289 91.1C13.3274 91.163 13.4442 91.1946 13.5793 91.1946C13.6689 91.1946 13.751 91.1805 13.8255 91.1526C13.9 91.1245 13.9637 91.0824 14.0168 91.0264C14.0698 90.9703 14.1102 90.9017 14.138 90.8204L14.8842 90.875C14.8464 91.0741 14.7687 91.2478 14.6512 91.3965C14.5351 91.5436 14.3848 91.6585 14.2005 91.7412C14.0174 91.8225 13.806 91.8631 13.566 91.8631ZM15.4277 91.8V88.5709H16.21V89.1343H16.2403C16.2934 88.9339 16.3824 88.7826 16.5073 88.6802C16.6324 88.5765 16.7763 88.5247 16.9392 88.5247C16.9796 88.5247 17.0231 88.5275 17.0699 88.533C17.1166 88.5387 17.1576 88.5464 17.193 88.5562V89.3509C17.155 89.3383 17.1027 89.327 17.0357 89.3173C16.9689 89.3074 16.9076 89.3025 16.8521 89.3025C16.7334 89.3025 16.6273 89.3312 16.5339 89.3887C16.4417 89.4447 16.3685 89.5232 16.3142 89.6241C16.2611 89.7251 16.2347 89.8414 16.2347 89.9732V91.8H15.4277ZM18.4169 89.9332V91.8H17.6101V88.5709H18.379V89.1407H18.4132C18.4775 88.9528 18.5856 88.8043 18.737 88.6949C18.8885 88.5842 19.0723 88.5289 19.2882 88.5289C19.4902 88.5289 19.6663 88.5779 19.8166 88.676C19.9669 88.7741 20.0836 88.9143 20.167 89.0965C20.2503 89.2773 20.292 89.4931 20.292 89.744V91.8H19.4851V89.9038C19.4864 89.7061 19.441 89.552 19.3488 89.4412C19.2566 89.3291 19.1297 89.2731 18.9681 89.2731C18.8595 89.2731 18.7636 89.299 18.6802 89.3509C18.5981 89.4027 18.5337 89.4784 18.487 89.578C18.4416 89.6761 18.4182 89.7945 18.4169 89.9332ZM22.1775 91.8V87.4945H23.7077C24.0019 87.4945 24.2525 87.5569 24.4597 87.6816C24.6668 87.8049 24.8245 87.9767 24.9332 88.1967C25.043 88.4153 25.0979 88.6677 25.0979 88.9535C25.0979 89.2395 25.0423 89.4917 24.9313 89.7104C24.8201 89.929 24.6591 90.0993 24.4483 90.2212C24.2387 90.3432 23.9849 90.4041 23.6869 90.4041H22.7115V89.6747H23.5544C23.7121 89.6747 23.8422 89.6445 23.9445 89.5842C24.048 89.5225 24.1251 89.4378 24.1756 89.3298C24.2274 89.2206 24.2532 89.0951 24.2532 88.9535C24.2532 88.8105 24.2274 88.6859 24.1756 88.5793C24.1251 88.4714 24.048 88.388 23.9445 88.3292C23.8409 88.2689 23.7096 88.2387 23.5505 88.2387H22.9975V91.8H22.1775ZM25.6155 91.8V88.5709H26.3976V89.1343H26.4279C26.481 88.9339 26.57 88.7826 26.6951 88.6802C26.82 88.5765 26.964 88.5247 27.1268 88.5247C27.1673 88.5247 27.2108 88.5275 27.2575 88.533C27.3042 88.5387 27.3453 88.5464 27.3806 88.5562V89.3509C27.3428 89.3383 27.2903 89.327 27.2235 89.3173C27.1565 89.3074 27.0953 89.3025 27.0397 89.3025C26.921 89.3025 26.815 89.3312 26.7215 89.3887C26.6293 89.4447 26.5561 89.5232 26.5018 89.6241C26.4488 89.7251 26.4223 89.8414 26.4223 89.9732V91.8H25.6155ZM28.9767 91.8631C28.6826 91.8631 28.4282 91.7937 28.2135 91.6549C28.0001 91.5149 27.8353 91.32 27.7191 91.0706C27.603 90.8197 27.5449 90.5288 27.5449 90.1981C27.5449 89.8645 27.603 89.573 27.7191 89.3235C27.8353 89.0726 28.0001 88.8778 28.2135 88.7391C28.4282 88.5989 28.6826 88.5289 28.9767 88.5289C29.2709 88.5289 29.5248 88.5989 29.7381 88.7391C29.9528 88.8778 30.1182 89.0726 30.2343 89.3235C30.3505 89.573 30.4086 89.8645 30.4086 90.1981C30.4086 90.5288 30.3505 90.8197 30.2343 91.0706C30.1182 91.32 29.9528 91.5149 29.7381 91.6549C29.5248 91.7937 29.2709 91.8631 28.9767 91.8631ZM28.9805 91.1694C29.1144 91.1694 29.2261 91.1273 29.3158 91.0432C29.4055 90.9578 29.473 90.8414 29.5184 90.6942C29.5651 90.547 29.5885 90.3796 29.5885 90.1917C29.5885 90.004 29.5651 89.8365 29.5184 89.6893C29.473 89.5421 29.4055 89.4258 29.3158 89.3404C29.2261 89.2549 29.1144 89.2121 28.9805 89.2121C28.8454 89.2121 28.7318 89.2549 28.6396 89.3404C28.5487 89.4258 28.4799 89.5421 28.4332 89.6893C28.3877 89.8365 28.365 90.004 28.365 90.1917C28.365 90.3796 28.3877 90.547 28.4332 90.6942C28.4799 90.8414 28.5487 90.9578 28.6396 91.0432C28.7318 91.1273 28.8454 91.1694 28.9805 91.1694ZM33.5516 88.5709L32.5346 91.8H31.6255L30.6084 88.5709H31.4608L32.0649 90.8814H32.0952L32.6975 88.5709H33.5516ZM33.9646 91.8V88.5709H34.7714V91.8H33.9646ZM34.3698 88.1547C34.2499 88.1547 34.147 88.1105 34.0611 88.0222C33.9765 87.9325 33.9343 87.8253 33.9343 87.7006C33.9343 87.5772 33.9765 87.4714 34.0611 87.3831C34.147 87.2934 34.2499 87.2485 34.3698 87.2485C34.4898 87.2485 34.5921 87.2934 34.6766 87.3831C34.7625 87.4714 34.8055 87.5772 34.8055 87.7006C34.8055 87.8253 34.7625 87.9325 34.6766 88.0222C34.5921 88.1105 34.4898 88.1547 34.3698 88.1547ZM36.2245 89.9332V91.8H35.4177V88.5709H36.1867V89.1407H36.2207C36.2852 88.9528 36.3931 88.8043 36.5446 88.6949C36.6962 88.5842 36.8798 88.5289 37.0958 88.5289C37.2978 88.5289 37.4739 88.5779 37.6242 88.676C37.7744 88.7741 37.8912 88.9143 37.9745 89.0965C38.0579 89.2773 38.0996 89.4931 38.0996 89.744V91.8H37.2927V89.9038C37.2939 89.7061 37.2485 89.552 37.1563 89.4412C37.0642 89.3291 36.9373 89.2731 36.7757 89.2731C36.6671 89.2731 36.5711 89.299 36.4877 89.3509C36.4057 89.4027 36.3413 89.4784 36.2946 89.578C36.2491 89.6761 36.2257 89.7945 36.2245 89.9332ZM40.0499 91.8631C39.7519 91.8631 39.4956 91.793 39.2809 91.6529C39.0675 91.5114 38.9034 91.3152 38.7884 91.0642C38.6749 90.8134 38.618 90.5247 38.618 90.1981C38.618 89.8673 38.6755 89.5773 38.7903 89.3277C38.9065 89.0769 39.0713 88.8814 39.2847 88.7412C39.4981 88.5996 39.7519 88.5289 40.046 88.5289C40.2999 88.5289 40.5221 88.58 40.7128 88.6823C40.9034 88.7847 41.0543 88.9283 41.1654 89.1133C41.2765 89.2983 41.3378 89.5156 41.3491 89.765H40.5877C40.5663 89.6038 40.5095 89.4742 40.4173 89.3761C40.3263 89.2766 40.207 89.2268 40.0593 89.2268C39.9344 89.2268 39.8251 89.2646 39.7317 89.3404C39.6395 89.4147 39.5676 89.5232 39.5158 89.6662C39.464 89.8092 39.4381 89.9822 39.4381 90.1855C39.4381 90.3915 39.4633 90.5667 39.5139 90.711C39.5656 90.8554 39.6382 90.9654 39.7317 91.0412C39.8251 91.1168 39.9344 91.1547 40.0593 91.1547C40.1516 91.1547 40.2342 91.1336 40.3074 91.0916C40.3819 91.0495 40.4431 90.9885 40.4912 90.9087C40.5404 90.8274 40.5726 90.73 40.5877 90.6165H41.3491C41.3365 90.8632 41.2759 91.0804 41.1673 91.2682C41.06 91.4546 40.9116 91.6003 40.7223 91.7055C40.5329 91.8106 40.3087 91.8631 40.0499 91.8631ZM43.1915 91.8631C42.8923 91.8631 42.6347 91.7958 42.4187 91.6613C42.2041 91.5254 42.0387 91.3334 41.9225 91.0852C41.8063 90.8358 41.7482 90.5408 41.7482 90.2002C41.7482 89.868 41.8063 89.5766 41.9225 89.3256C42.0387 89.0748 42.2022 88.8793 42.4131 88.7391C42.6252 88.5989 42.8739 88.5289 43.1593 88.5289C43.3512 88.5289 43.5299 88.5632 43.6952 88.6318C43.862 88.6991 44.0072 88.8008 44.1309 88.9367C44.2559 89.0726 44.3531 89.2436 44.4226 89.4497C44.492 89.6543 44.5267 89.894 44.5267 90.1687V90.4146H42.0702V89.8596H43.7672C43.7672 89.7307 43.742 89.6165 43.6915 89.517C43.641 89.4175 43.5709 89.3397 43.4813 89.2835C43.3929 89.2261 43.29 89.1974 43.1726 89.1974C43.05 89.1974 42.9415 89.2289 42.8467 89.292C42.7533 89.3537 42.6801 89.4371 42.627 89.5421C42.5741 89.6459 42.5469 89.7615 42.5457 89.8891V90.4167C42.5457 90.5765 42.5722 90.7146 42.6252 90.8309C42.6795 90.9472 42.7558 91.0369 42.8544 91.1C42.9529 91.163 43.0697 91.1946 43.2047 91.1946C43.2944 91.1946 43.3765 91.1805 43.451 91.1526C43.5255 91.1245 43.5892 91.0824 43.6423 91.0264C43.6952 90.9703 43.7357 90.9017 43.7635 90.8204L44.5097 90.875C44.4718 91.0741 44.3941 91.2478 44.2767 91.3965C44.1605 91.5436 44.0103 91.6585 43.8259 91.7412C43.6429 91.8225 43.4313 91.8631 43.1915 91.8631ZM46.3028 87.4945H47.3142L48.3824 90.3873H48.4279L49.4961 87.4945H50.5074V91.8H49.7119V88.9977H49.6797L48.676 91.779H48.1343L47.1305 88.9871H47.0983V91.8H46.3028V87.4945ZM53.0335 90.4252V88.5709H53.8403V91.8H53.0657V91.2135H53.0354C52.9697 91.4027 52.8605 91.5548 52.7077 91.6697C52.5562 91.7846 52.3712 91.8421 52.1528 91.8421C51.9584 91.8421 51.7873 91.7931 51.6395 91.6949C51.4918 91.5968 51.3763 91.4573 51.2929 91.2766C51.2109 91.0958 51.1692 90.8793 51.168 90.6269V88.5709H51.9748V90.4672C51.976 90.6578 52.0221 90.8084 52.113 90.9192C52.204 91.0299 52.3258 91.0852 52.4785 91.0852C52.5758 91.0852 52.6667 91.0608 52.7513 91.0117C52.8359 90.9613 52.904 90.8869 52.9558 90.7888C53.0089 90.6907 53.0347 90.5695 53.0335 90.4252ZM55.2925 89.9332V91.8H54.4857V88.5709H55.2547V89.1407H55.2887C55.3531 88.9528 55.4611 88.8043 55.6126 88.6949C55.7642 88.5842 55.9478 88.5289 56.1638 88.5289C56.3658 88.5289 56.5419 88.5779 56.6922 88.676C56.8424 88.7741 56.9592 88.9143 57.0426 89.0965C57.1259 89.2773 57.1676 89.4931 57.1676 89.744V91.8H56.3607V89.9038C56.3619 89.7061 56.3165 89.552 56.2244 89.4412C56.1322 89.3291 56.0053 89.2731 55.8437 89.2731C55.7351 89.2731 55.6391 89.299 55.5558 89.3509C55.4737 89.4027 55.4093 89.4784 55.3626 89.578C55.3171 89.6761 55.2937 89.7945 55.2925 89.9332ZM57.8035 91.8V88.5709H58.6103V91.8H57.8035ZM58.2087 88.1547C58.0888 88.1547 57.9859 88.1105 57.9 88.0222C57.8155 87.9325 57.7732 87.8253 57.7732 87.7006C57.7732 87.5772 57.8155 87.4714 57.9 87.3831C57.9859 87.2934 58.0888 87.2485 58.2087 87.2485C58.3287 87.2485 58.431 87.2934 58.5156 87.3831C58.6014 87.4714 58.6444 87.5772 58.6444 87.7006C58.6444 87.8253 58.6014 87.9325 58.5156 88.0222C58.431 88.1105 58.3287 88.1547 58.2087 88.1547ZM60.571 91.8631C60.2731 91.8631 60.0167 91.793 59.8021 91.6529C59.5887 91.5114 59.4246 91.3152 59.3096 91.0642C59.196 90.8134 59.1392 90.5247 59.1392 90.1981C59.1392 89.8673 59.1966 89.5773 59.3115 89.3277C59.4277 89.0769 59.5924 88.8814 59.8059 88.7412C60.0192 88.5996 60.2731 88.5289 60.5672 88.5289C60.821 88.5289 61.0432 88.58 61.2339 88.6823C61.4245 88.7847 61.5755 88.9283 61.6865 89.1133C61.7977 89.2983 61.8589 89.5156 61.8703 89.765H61.1089C61.0874 89.6038 61.0307 89.4742 60.9384 89.3761C60.8475 89.2766 60.7282 89.2268 60.5805 89.2268C60.4555 89.2268 60.3463 89.2646 60.2528 89.3404C60.1606 89.4147 60.0887 89.5232 60.0369 89.6662C59.9851 89.8092 59.9592 89.9822 59.9592 90.1855C59.9592 90.3915 59.9845 90.5667 60.0351 90.711C60.0868 90.8554 60.1594 90.9654 60.2528 91.0412C60.3463 91.1168 60.4555 91.1547 60.5805 91.1547C60.6727 91.1547 60.7554 91.1336 60.8286 91.0916C60.9031 91.0495 60.9643 90.9885 61.0123 90.9087C61.0616 90.8274 61.0938 90.73 61.1089 90.6165H61.8703C61.8576 90.8632 61.7971 91.0804 61.6885 91.2682C61.5811 91.4546 61.4328 91.6003 61.2434 91.7055C61.054 91.8106 60.8299 91.8631 60.571 91.8631ZM62.3869 91.8V88.5709H63.1937V91.8H62.3869ZM62.7922 88.1547C62.6723 88.1547 62.5693 88.1105 62.4835 88.0222C62.3989 87.9325 62.3566 87.8253 62.3566 87.7006C62.3566 87.5772 62.3989 87.4714 62.4835 87.3831C62.5693 87.2934 62.6723 87.2485 62.7922 87.2485C62.9121 87.2485 63.0144 87.2934 63.099 87.3831C63.1849 87.4714 63.2277 87.5772 63.2277 87.7006C63.2277 87.8253 63.1849 87.9325 63.099 88.0222C63.0144 88.1105 62.9121 88.1547 62.7922 88.1547ZM63.84 93.011V88.5709H64.6355V89.1133H64.6714C64.7068 89.0264 64.7579 88.9381 64.8249 88.8484C64.8931 88.7573 64.9815 88.6816 65.09 88.6214C65.1999 88.5597 65.3363 88.5289 65.4991 88.5289C65.7113 88.5289 65.907 88.5905 66.0863 88.7138C66.2655 88.8358 66.4089 89.0201 66.5162 89.2667C66.6235 89.5121 66.6772 89.8196 66.6772 90.1897C66.6772 90.5498 66.6248 90.854 66.52 91.102C66.4165 91.3488 66.275 91.5359 66.0957 91.6634C65.9177 91.7896 65.7182 91.8526 65.4972 91.8526C65.3407 91.8526 65.2075 91.8239 65.0976 91.7664C64.989 91.709 64.9 91.6367 64.8305 91.5499C64.7612 91.4616 64.7081 91.3726 64.6714 91.2829H64.6469V93.011H63.84ZM64.6298 90.1855C64.6298 90.3775 64.6538 90.545 64.7018 90.6879C64.7498 90.8309 64.8192 90.9424 64.9101 91.0222C65.001 91.1006 65.1115 91.14 65.2415 91.14C65.3728 91.14 65.484 91.1 65.5749 91.0201C65.6658 90.9388 65.7346 90.8266 65.7813 90.6838C65.8294 90.5394 65.8533 90.3733 65.8533 90.1855C65.8533 89.9991 65.83 89.8351 65.7832 89.6936C65.7365 89.552 65.6677 89.4412 65.5768 89.3613C65.4859 89.2815 65.3741 89.2416 65.2415 89.2416C65.1102 89.2416 64.9991 89.2801 64.9082 89.3572C64.8185 89.4343 64.7498 89.5435 64.7018 89.6851C64.6538 89.8267 64.6298 89.9935 64.6298 90.1855ZM68.0446 91.861C67.859 91.861 67.6936 91.8253 67.5484 91.7538C67.4032 91.6809 67.2883 91.5737 67.2037 91.4322C67.1204 91.2892 67.0787 91.1112 67.0787 90.8982C67.0787 90.7188 67.1084 90.5681 67.1677 90.4462C67.2271 90.3243 67.3079 90.2262 67.4102 90.1518C67.5125 90.0775 67.6286 90.0215 67.7586 89.9837C67.8899 89.9458 68.0276 89.9192 68.1716 89.9038C68.3407 89.8841 68.4771 89.8659 68.5807 89.8491C68.6842 89.8309 68.7593 89.8043 68.806 89.7692C68.8527 89.7342 68.8761 89.6823 68.8761 89.6137V89.601C68.8761 89.4679 68.8382 89.3648 68.7624 89.292C68.688 89.2191 68.5819 89.1827 68.4442 89.1827C68.299 89.1827 68.1835 89.2184 68.0977 89.2899C68.0118 89.36 67.955 89.4483 67.9272 89.5548L67.181 89.4875C67.2189 89.2913 67.2934 89.1217 67.4044 88.9788C67.5156 88.8344 67.6589 88.7237 67.8344 88.6466C68.0112 88.5681 68.2157 88.5289 68.4481 88.5289C68.6097 88.5289 68.7643 88.5499 68.912 88.5919C69.061 88.6339 69.193 88.6991 69.3079 88.7874C69.424 88.8757 69.5156 88.9892 69.5825 89.128C69.6495 89.2653 69.6829 89.43 69.6829 89.622V91.8H68.9178V91.3523H68.895C68.8483 91.4532 68.7858 91.5422 68.7075 91.6192C68.6292 91.6949 68.5351 91.7545 68.4253 91.7979C68.3154 91.84 68.1886 91.861 68.0446 91.861ZM68.2757 91.2429C68.3944 91.2429 68.4992 91.2171 68.5901 91.1651C68.681 91.1119 68.7523 91.0405 68.8041 90.9507C68.8558 90.8611 68.8817 90.7594 68.8817 90.6459V90.3032C68.8565 90.3214 68.8218 90.3382 68.7776 90.3536C68.7346 90.3677 68.6861 90.381 68.6317 90.3936C68.5774 90.4049 68.5232 90.4153 68.4689 90.4252C68.4146 90.4335 68.3653 90.4413 68.3212 90.4483C68.2264 90.4637 68.1438 90.4882 68.073 90.5219C68.0023 90.5555 67.9474 90.6011 67.9083 90.6585C67.8691 90.7146 67.8496 90.7847 67.8496 90.8687C67.8496 90.9907 67.8893 91.0838 67.9689 91.1483C68.0497 91.2114 68.1519 91.2429 68.2757 91.2429ZM71.1157 87.4945V91.8H70.3088V87.4945H71.1157ZM71.762 91.8V88.5709H72.5688V91.8H71.762ZM72.1674 88.1547C72.0473 88.1547 71.9444 88.1105 71.8586 88.0222C71.774 87.9325 71.7317 87.8253 71.7317 87.7006C71.7317 87.5772 71.774 87.4714 71.8586 87.3831C71.9444 87.2934 72.0473 87.2485 72.1674 87.2485C72.2873 87.2485 72.3896 87.2934 72.4741 87.3831C72.56 87.4714 72.6029 87.5772 72.6029 87.7006C72.6029 87.8253 72.56 87.9325 72.4741 88.0222C72.3896 88.1105 72.2873 88.1547 72.1674 88.1547ZM74.7625 88.5709V89.2436H73.0106V88.5709H74.7625ZM73.4084 87.7973H74.2152V90.8077C74.2152 90.8904 74.2265 90.9549 74.2493 91.0012C74.272 91.046 74.3036 91.0776 74.344 91.0958C74.3856 91.114 74.4336 91.1231 74.4879 91.1231C74.5258 91.1231 74.5637 91.1197 74.6015 91.1126C74.6395 91.1042 74.6685 91.0979 74.6887 91.0937L74.8156 91.7601C74.7752 91.7741 74.7183 91.7903 74.6451 91.8085C74.5719 91.8281 74.4829 91.84 74.3781 91.8442C74.1836 91.8527 74.0132 91.8239 73.8667 91.758C73.7215 91.6922 73.6085 91.5898 73.5277 91.4511C73.4468 91.3123 73.407 91.1372 73.4084 90.9255V87.7973ZM75.7863 93.011C75.684 93.011 75.588 93.0018 75.4984 92.9836C75.41 92.9668 75.3367 92.9451 75.2786 92.9185L75.4604 92.2499C75.5552 92.2822 75.6404 92.2997 75.7162 92.3025C75.7932 92.3054 75.8595 92.2857 75.915 92.2437C75.9718 92.2016 76.0179 92.1301 76.0533 92.0293L76.1006 91.8925L75.0571 88.5709H75.9056L76.5078 90.9424H76.5381L77.1461 88.5709H78.0003L76.8696 92.149C76.8153 92.3229 76.7414 92.4742 76.6479 92.6032C76.5558 92.7335 76.439 92.8337 76.2976 92.9037C76.1562 92.9753 75.9857 93.011 75.7863 93.011Z" fill="#363087"/>
</svg>
