<svg width="134" height="122" viewBox="0 0 134 122" fill="none" xmlns="http://www.w3.org/2000/svg">
<path d="M81.1068 0V1.47139H79.6295V2.93722H78.1523V4.41349H82.5841V0H81.1068Z" fill="white"/>
<path d="M52.0398 0V1.47139H53.5171V2.93722H54.9942V4.41349H50.5625V0H52.0398Z" fill="white"/>
<path d="M50.5625 5.89062H82.5869V7.37016H50.5625V5.89062Z" fill="white"/>
<path d="M79.1088 57.1016L79.1055 96.7078L82.584 96.7085L82.5869 57.1016H79.1088Z" fill="white"/>
<path d="M73.3952 57.1016L73.3919 93.2349L71.1902 93.234L71.1911 91.2951V91.2662L71.1918 87.8175H67.7144V87.8208L50.5742 87.8175V91.2909L67.7128 91.2942L67.7121 93.234L50.5742 93.2318V96.706L67.7111 96.7078V96.7085L71.1887 96.7092V96.7085L76.8944 96.7092V96.7085V95.1764V93.2349L76.8978 57.1016H73.3952Z" fill="white"/>
<path d="M67.6795 60.5757L67.6802 62.7956L65.4923 62.7965L65.4909 60.5757H67.6795ZM54.055 60.5772L62.0131 60.5765L62.0142 62.7972H62.0131V66.2716L71.1587 66.2683V66.2338H71.1594L71.1578 60.575H71.1934V57.1016H71.1564H67.6788L65.4901 57.1023V57.1016H62.0124V57.1023L50.7949 57.1045V57.1176H50.5775L50.5742 85.5927L54.0517 85.5934L54.055 60.5772Z" fill="white"/>
<path d="M64.1504 74.1975V74.1952L65.5056 74.1959V74.1975H67.6723V74.1959L69.0275 74.1968V74.1975H70.9849H71.099H71.1936L71.1953 68.5243L69.0293 68.5234L69.0282 71.9968L67.6723 71.9961L67.6741 68.5243L65.5073 68.5234L65.5063 71.9953H64.1511L64.1522 68.5243L61.9861 68.5234L61.9844 71.9935V74.1943V74.1975H64.1504Z" fill="white"/>
<path d="M67.714 82.1209H65.4614L65.4632 79.7352L67.7147 79.7362L67.714 82.1209ZM71.1939 79.7369L71.1947 76.2633H71.1939H70.3977L62.1222 76.2602V76.2626H61.9862L61.984 82.1202L59.7581 82.1193L59.7557 62.7969H56.2773L56.2807 85.595H59.7588V85.5927L71.1923 85.595L71.1932 82.1217H71.1916L71.1932 79.7369H71.1939Z" fill="white"/>
<path d="M40.9022 62.939C40.8254 62.9861 40.7713 63.0595 40.7493 63.1475L40.1035 65.7738C40.0822 65.8609 40.096 65.9514 40.1429 66.0282C40.19 66.1056 40.2635 66.1598 40.3507 66.1809L42.9074 66.8082L42.3009 69.2732C42.28 69.3603 42.2936 69.4509 42.3407 69.5276C42.3868 69.6042 42.4611 69.6593 42.549 69.6809L45.1777 70.3253L45.2594 70.3351L45.4331 70.2866C45.5099 70.2399 45.5642 70.1662 45.586 70.0782L46.2313 67.452C46.2531 67.364 46.2395 67.2743 46.1924 67.1967C46.1463 67.1201 46.072 67.0659 45.9848 67.0441L43.4281 66.4175L44.0345 63.9525C44.0555 63.8647 44.0417 63.7751 43.9947 63.6974C43.948 63.6207 43.8745 63.5667 43.787 63.5447L41.1576 62.9004C41.0703 62.8794 40.9789 62.8922 40.9022 62.939Z" fill="white"/>
<path d="M25.7435 82.5438C25.7935 82.6189 25.8696 82.6697 25.9586 82.6877L26.0524 82.6933L26.2117 82.6375L28.4634 81.1363C28.6178 81.033 28.6599 80.8235 28.5564 80.6686L27.0533 78.4194C27.003 78.3443 26.9263 78.2934 26.8382 78.2758C26.7503 78.2589 26.6604 78.2765 26.5859 78.3267L24.3333 79.8278C24.1789 79.9312 24.1369 80.1405 24.2404 80.2948L25.7435 82.5438Z" fill="white"/>
<path d="M28.9036 86.9151C28.9537 86.99 29.0298 87.0409 29.1187 87.0589L29.2126 87.0645L29.3719 87.0087L31.6236 85.5066C31.778 85.4042 31.82 85.1942 31.7166 85.0398L30.2134 82.7905C30.1632 82.7149 30.0864 82.6647 29.9983 82.647C29.9104 82.6301 29.8206 82.647 29.7461 82.6978L27.4935 84.199C27.3391 84.3024 27.2971 84.5118 27.4005 84.666L28.9036 86.9151Z" fill="white"/>
<path d="M40.189 60.4954H42.8967C43.0825 60.4954 43.2337 60.3444 43.2337 60.1588V57.4542C43.2337 57.2683 43.0825 57.1172 42.8967 57.1172H40.189C40.003 57.1172 39.8516 57.2683 39.8516 57.4542V60.1588C39.8516 60.3444 40.003 60.4954 40.189 60.4954Z" fill="white"/>
<path d="M44.5638 60.4954H47.2715C47.4575 60.4954 47.6086 60.3444 47.6086 60.1588V57.4542C47.6086 57.2683 47.4575 57.1172 47.2715 57.1172H44.5638C44.378 57.1172 44.2266 57.2683 44.2266 57.4542V60.1588C44.2266 60.3444 44.378 60.4954 44.5638 60.4954Z" fill="white"/>
<path d="M20.8307 66.2707L18.2952 65.3226V65.3219C18.1207 65.2572 17.9257 65.3461 17.8601 65.5197L16.9174 68.038L14.5348 67.1462C14.4506 67.1148 14.3591 67.1179 14.2768 67.155C14.1942 67.1922 14.1321 67.2594 14.1005 67.3441L13.1505 69.876C13.1189 69.9607 13.1221 70.0527 13.1593 70.1342C13.1975 70.2158 13.2645 70.2789 13.3485 70.3104L15.8841 71.2585L16.0023 71.2801L16.1421 71.2495C16.2237 71.2124 16.2861 71.1454 16.3175 71.0613L17.2619 68.5426L19.6448 69.4341L19.7627 69.4559L19.9033 69.4252C19.9849 69.3881 20.0474 69.3212 20.0781 69.237L21.0289 66.7046C21.0936 66.53 21.0045 66.3362 20.8307 66.2707Z" fill="white"/>
<path d="M25.6094 76.2643C25.6263 76.1762 25.6085 76.0866 25.5584 76.0115L24.0497 73.7655C23.9452 73.6122 23.7359 73.5711 23.5808 73.6735L21.3331 75.1814C21.2586 75.2322 21.2077 75.3073 21.1899 75.3962C21.1728 75.484 21.1907 75.5746 21.2417 75.6497L22.7497 77.8948C22.8005 77.9692 22.8765 78.0201 22.9655 78.037L23.0505 78.0435L23.2186 77.9861L25.4663 76.4792C25.5415 76.429 25.5925 76.3523 25.6094 76.2643Z" fill="white"/>
<path d="M47.5794 85.6367L23.8359 105.601L26.4727 107.769L47.5794 90.1262V85.6367Z" fill="white"/>
<path d="M47.5805 78.7656L21.6387 98.8255L17.8489 94.9733L27.5862 88.3663C27.6939 88.292 27.7204 88.1467 27.6461 88.0392L25.9749 85.6059C25.9011 85.4993 25.7549 85.4728 25.6482 85.5462C25.6482 85.5462 23.3834 87.0759 20.8285 88.8017C20.4494 88.1774 20.0352 87.4968 19.6085 86.7997L24.4783 83.5322C24.5864 83.4593 24.6149 83.3142 24.5414 83.2066L22.896 80.7563C22.823 80.649 22.6777 80.62 22.5694 80.6934L22.389 80.8147L17.8104 83.8859L17.8055 83.8786C17.4351 83.2858 17.0414 82.609 16.6508 81.9055L21.3944 79.0775C21.5069 79.0113 21.5439 78.8674 21.4776 78.7559L19.9611 76.2234C19.8955 76.1112 19.7516 76.0741 19.6392 76.1403L15.0435 78.8805C14.7153 78.2376 14.4234 77.6537 14.1864 77.174L18.7823 74.6494C18.876 74.5896 18.9625 74.5114 18.8849 74.379L17.4166 71.7178C17.351 71.6056 17.2258 71.596 17.1133 71.6622L7.86289 76.7192C5.61427 70.8158 3.80573 63.5467 3.41193 57.6803C3.40309 57.5503 3.35937 57.5065 3.20654 57.5228C3.07466 57.5372 0.774386 57.782 0.145414 57.8483C0.0451592 57.8594 -0.00973716 57.9201 0.00142804 58.0532C0.525495 63.9971 1.60247 71.7502 5.07671 80.389L5.82129 81.7684L11.1803 78.8247C12.0477 80.5779 13.5711 83.567 14.9012 85.6917C15.8432 87.1963 17.0502 89.1755 17.9882 90.7206C15.759 92.226 13.8728 93.4994 13.7256 93.5979C13.3529 93.8467 13.3739 94.3967 13.5218 94.5986C15.8609 97.7885 18.694 100.937 21.0978 103.141C21.2386 103.27 21.6371 103.303 21.8885 103.102C22.1165 102.918 39.7474 89.4479 47.5805 83.1582V78.7656Z" fill="white"/>
<path d="M44.076 75.4276L39.7592 78.2428C38.9815 77.1478 37.3692 74.8799 37.3692 74.8799L44.076 75.4276ZM9.78676 72.6326L9.79979 72.6697L9.83376 72.6883C9.87818 72.7141 10.276 72.9281 10.4271 72.6721L12.2157 69.6445L12.1964 69.5976C11.7046 68.3893 10.4006 63.577 10.3285 63.4067C10.5227 63.2048 10.9956 62.5302 12.3371 60.3603L30.8088 60.0259L20.9729 63.6918L21.6828 65.3885C21.6992 65.4263 23.8603 70.1249 27.455 75.8178C30.9698 81.3829 33.9434 84.4483 34.0955 84.5834C34.0955 84.5834 34.2401 84.7207 34.4666 84.912C34.6937 85.1034 35.4278 85.2527 35.7303 85.026C35.9955 84.8263 45.3947 78.2979 47.2858 76.8788C47.5487 76.6817 47.6166 76.1684 47.6166 76.1684V73.4256C47.6166 73.4256 47.4526 73.0461 47.163 72.9854C45.0875 72.5484 35.6218 71.3276 35.2638 71.2499C34.8563 71.1612 34.5046 71.2936 34.3316 71.4032C34.1941 71.4907 32.6571 72.4597 32.0249 72.8586C31.859 72.9637 31.9125 73.239 32.0134 73.3747C32.0905 73.4789 35.6218 78.2817 36.9489 80.0753L35.4013 81.084C34.2056 79.8622 32.5688 77.5031 30.3519 73.9933C29.9323 73.3287 29.5515 72.7164 29.1877 72.1264L37.907 67.4421C38.1422 67.5108 38.2013 67.3058 38.1115 67.1424L36.8219 64.7157C36.7467 64.5737 36.589 64.4733 36.3634 64.5849L27.5115 69.3392C26.674 67.8976 26.0466 66.7242 25.592 65.7487L38.0995 60.7027C38.54 60.5567 38.8044 60.1172 38.7284 59.6603L38.4283 57.8608C38.3515 57.407 37.9627 57.1953 37.5018 57.1953H11.5753C10.9107 57.1953 10.4888 57.4732 10.2736 57.8066C10.0989 58.0774 8.02196 61.2908 7.24575 62.4917C7.06618 62.7711 7.03874 63.3743 7.09945 63.5826C7.8724 66.2493 9.76513 72.5671 9.78676 72.6326Z" fill="white"/>
<path d="M77.8745 104.409L78.2843 103.31C78.6378 102.408 78.9152 101.267 80.0997 101.267H82.6642V99.1992H79.6911C78.5052 99.1992 77.7152 100.16 77.2269 101.096C76.7449 100.538 76.3149 100.05 76.2842 100.016L76.0092 99.7047H73.4219V101.772H75.1781C75.7141 102.194 77.8745 104.409 77.8745 104.409Z" fill="white"/>
<path d="M43.8602 94.9885C43.7719 94.9691 43.6815 94.9851 43.6055 95.0338C43.5303 95.082 43.4778 95.1573 43.4582 95.2453L42.8916 97.8124L40.4101 97.2666C40.3229 97.2471 40.2315 97.2635 40.1563 97.3118C40.0803 97.3604 40.0277 97.4353 40.0084 97.5235L39.4262 100.164C39.4067 100.252 39.422 100.343 39.4705 100.419C39.5192 100.494 39.5951 100.546 39.6825 100.566L42.3271 101.148C42.4152 101.167 42.5059 101.151 42.5811 101.103C42.6571 101.054 42.7097 100.978 42.729 100.891L43.295 98.323L45.7771 98.8696C45.8645 98.8891 45.9551 98.8729 46.0311 98.8245C46.1072 98.776 46.1597 98.7009 46.1791 98.6129L46.7612 95.9721L46.7684 95.8906L46.7159 95.7177C46.6672 95.6426 46.5922 95.5902 46.5039 95.5699L43.8602 94.9885Z" fill="white"/>
<path d="M58.7293 103.24C58.7922 103.304 58.8765 103.34 58.966 103.342C59.0567 103.343 59.1417 103.309 59.2064 103.247L61.0968 101.418L62.8648 103.24C62.9281 103.305 63.012 103.34 63.1018 103.342C63.1924 103.344 63.2772 103.31 63.3419 103.247L65.2866 101.366L65.3375 101.302L65.3891 101.129C65.39 101.039 65.3567 100.954 65.2937 100.889L63.4098 98.9474C63.3468 98.8819 63.2629 98.8453 63.173 98.8446C63.0823 98.8431 62.9977 98.877 62.9328 98.9392L61.0426 100.769L59.2743 98.9464C59.2113 98.8819 59.127 98.8453 59.0372 98.8438C58.9468 98.8431 58.8619 98.8763 58.7971 98.9392L56.8526 100.821C56.7888 100.884 56.7516 100.968 56.7501 101.057C56.7483 101.147 56.7823 101.233 56.8453 101.297L58.7293 103.24Z" fill="white"/>
<path d="M132.77 57.1172H93.5385C93.3899 57.1172 93.2695 57.2374 93.2695 57.3862V60.2684C93.2695 60.417 93.3899 60.5374 93.5385 60.5374H132.812C133.032 60.5374 133.21 60.3597 133.21 60.1408V57.5565C133.21 57.3141 133.013 57.1172 132.77 57.1172Z" fill="white"/>
<path d="M101.564 66.4486C101.75 66.4486 101.902 66.2975 101.902 66.1119V63.4071C101.902 63.2214 101.75 63.0703 101.564 63.0703H98.8561C98.671 63.0703 98.5195 63.2214 98.5195 63.4071V66.1119C98.5195 66.2975 98.671 66.4486 98.8568 66.4486H101.564Z" fill="white"/>
<path d="M87.386 103.32L87.5549 103.274L89.8955 101.915C89.974 101.871 90.0292 101.798 90.0525 101.71C90.0759 101.624 90.063 101.533 90.0177 101.454L88.6569 99.1168C88.5639 98.9563 88.3579 98.9013 88.1962 98.9949L85.8548 100.354C85.6945 100.447 85.6395 100.654 85.7334 100.814L87.0941 103.152C87.1564 103.26 87.2695 103.32 87.386 103.32Z" fill="white"/>
<path d="M97.5668 69.8049C97.3501 69.9738 97.2266 70.2282 97.2266 70.5027V74.3977C97.2266 74.6804 97.363 74.9477 97.5926 75.1141C98.2435 75.5656 111.744 85.7597 112.187 86.0068C112.244 86.0392 112.344 86.0537 112.485 86.0537C112.803 86.0537 116.258 85.7373 117.113 85.6475C117.234 85.6346 117.354 85.5449 117.383 85.4956C118.108 84.2868 120.416 79.3361 120.723 78.3468C120.771 78.1902 120.757 78.0327 120.684 77.902C120.224 77.0903 119.925 76.6857 119.135 75.6172L118.896 75.2925C118.844 75.224 118.734 75.1197 118.675 75.2054C118.3 76.3166 115.763 81.9833 115.584 82.2404C115.063 82.3017 113.196 82.4768 112.744 82.4827L100.672 73.7178L112.256 76.2351C112.713 76.3497 113.196 76.256 113.58 75.9807C113.963 75.7052 114.205 75.2772 114.243 74.8065L114.847 66.9646C114.864 66.766 114.81 66.5657 114.696 66.4016L112.643 63.4233C112.479 63.1875 112.212 63.0469 111.924 63.0469L104.247 63.0753C104.099 63.0753 103.979 63.1946 103.979 63.3428V66.2273C103.979 66.3751 104.099 66.4955 104.248 66.4955L111.164 66.4682C111.239 66.4682 111.309 66.4978 111.359 66.5527C111.41 66.6077 111.434 66.6788 111.428 66.7539L110.999 71.8765L98.3267 69.6425C98.0599 69.5763 97.7834 69.6354 97.5668 69.8049Z" fill="white"/>
<path d="M126.531 74.07C125.533 72.2741 124.162 69.8778 122.412 67.0037L122.401 66.8015C122.435 66.7364 122.5 66.6975 122.574 66.6975L128.34 66.9235L128.496 67.0005L128.529 67.1708L126.531 74.07ZM129.938 63.6594C129.938 63.6594 129.732 63.405 129.264 63.405C128.795 63.405 118.395 63.1797 118.395 63.1797C118.285 63.1797 118.183 63.2403 118.107 63.3193C118.031 63.3986 117.993 63.5026 117.997 63.6118L118.006 66.0814L118.072 66.2865L125.095 78.7954C124.618 80.1011 123.576 82.6321 121.561 86.2939C120.135 88.8806 118.543 90.9689 117.54 92.1787C117.408 92.3378 117.279 92.4938 117.151 92.6487C117.058 92.7642 116.89 92.786 116.767 92.6973L85.4961 70.3399V74.5522L117.101 97.1666C117.186 97.2286 117.287 97.2586 117.386 97.2586C117.515 97.2586 117.643 97.2084 117.738 97.1098L118.478 96.3403L118.529 96.2918C119.398 95.4624 121.925 92.241 124.348 87.8402C127.194 82.6725 128.569 79.2467 128.627 79.0658L128.651 78.99L128.696 78.8987C128.696 78.8987 130.995 73.117 132.143 66.935C132.161 66.8348 132.159 66.7493 132.088 66.6499C132.017 66.5497 129.938 63.6594 129.938 63.6594Z" fill="white"/>
<path d="M85.4961 77.2227V81.4795L112.692 101.728C112.845 101.841 113.024 101.896 113.203 101.896C113.466 101.896 113.725 101.777 113.893 101.551L115.318 99.9549C115.396 99.8507 115.429 99.7222 115.41 99.5938C115.391 99.4656 115.323 99.3514 115.219 99.2748L85.4961 77.2227Z" fill="white"/>
<path d="M85.568 61.6152H85.6917H87.121H89.3495V62.9722C89.3566 63.0495 89.4481 63.144 89.5459 63.144H90.9747C91.0426 63.144 91.1752 63.0706 91.1752 62.9373V57.3117C91.1752 57.1953 91.1227 57.1016 90.995 57.1016H89.5993C89.5379 57.1016 89.4262 57.1273 89.3495 57.1734V59.7917H87.3209V57.3117C87.3209 57.1953 87.2689 57.1016 87.1412 57.1016H85.7459C85.6835 57.1016 85.5718 57.1273 85.4961 57.1734V59.9719V61.3657V61.4424L85.513 61.4731L85.568 61.6152Z" fill="white"/>
<path d="M105.897 103.973C104.894 104.794 103.507 105.853 101.777 107.012L98.1962 103.026L100.976 100.252L105.897 103.973ZM71.5065 117.433V116.258L81.8106 109.325C81.9372 109.24 82.0942 109.217 82.2406 109.261C82.387 109.306 82.5042 109.413 82.5623 109.553L84.7875 114.955C79.7767 116.426 75.1449 117.124 71.5065 117.433ZM85.498 88.545L98.2187 98.1666L94.8376 101.542L94.6265 104.173L98.8357 108.861C97.7644 109.492 96.6048 110.133 95.3597 110.765L90.913 103.3L90.895 103.309L90.8467 103.226C90.7535 103.065 90.5475 103.011 90.3856 103.104L88.0451 104.463C87.8841 104.556 87.8289 104.763 87.923 104.923L87.9893 105.038L87.9697 105.05L92.2493 112.233C90.9995 112.782 89.6871 113.313 88.3021 113.811C88.2058 113.845 88.1114 113.875 88.0151 113.909L83.9613 104.966C83.8665 104.758 83.6863 104.601 83.4661 104.539C83.247 104.475 83.0103 104.51 82.8186 104.635L71.5298 112.048L71.5443 99.9457C71.5443 99.76 71.3941 99.5969 71.2073 99.596L68.4584 99.593C68.2722 99.593 68.1203 99.7438 68.1203 99.9297L68.0992 117.629C67.531 117.646 67.0029 117.654 66.5346 117.654H65.4028V107.397C65.4028 107.269 65.3122 107.014 65.1601 106.914C64.4244 106.434 62.255 105.017 62.0666 104.863C61.9044 104.73 61.6399 104.774 61.3908 104.89C61.183 104.988 54.2402 108.741 52.6844 109.583C52.4872 109.689 52.3199 109.853 52.2739 110.196C52.2374 110.46 51.9375 112.656 51.8023 113.642C51.7629 113.932 51.8719 114.257 52.0975 114.492C52.2472 114.647 52.9869 115.347 53.9167 116.218C50.9318 115.721 48.5909 115.038 47.0791 114.514L53.9759 100.327C54.0177 100.248 54.0268 100.157 54.0001 100.07C53.9743 99.9844 53.9152 99.9133 53.8358 99.8715L50.9607 98.1181C50.7959 98.0317 50.5565 98.0577 50.3786 98.1683C50.3786 98.1683 35.9341 105.655 35.6819 105.789C35.4296 105.923 35.3068 106.176 35.2825 106.352C35.263 106.496 34.9064 109.105 34.7836 110.004C34.7578 110.192 34.8103 110.397 34.9727 110.614C35.1346 110.831 39.2936 115.422 39.2936 115.422L42.045 113.535L37.8205 108.537L49.4269 102.266C49.4269 102.266 42.6046 115.81 42.535 115.933C42.3346 116.289 42.3894 116.582 42.6669 116.697C44.1625 117.322 49.338 118.994 53.2189 119.572L58.6686 120.65L61.0569 117.198L55.4272 112.019L61.9171 108.541V120.938L65.1716 121.09L65.211 121.086C65.3687 121.089 65.5743 121.09 65.8241 121.09C70.4091 121.09 78.9692 120.798 89.4608 117.03C101.743 112.62 109.461 105.647 109.784 105.344L111.249 103.965L85.498 84.2422V88.545Z" fill="white"/>
<path d="M93.4511 69.9216L91.6868 71.7485C91.6247 71.8131 91.5906 71.8985 91.5922 71.9882C91.5947 72.078 91.6311 72.1618 91.6958 72.225L93.6443 74.1024C93.7091 74.1638 93.7939 74.1986 93.8844 74.1962C93.9743 74.1955 94.0582 74.1582 94.1215 74.0937L96.0011 72.1473C96.0635 72.0829 96.0974 71.9971 96.0958 71.9067C96.0942 71.8169 96.0569 71.7331 95.9924 71.6709L94.0979 69.8456L95.862 68.0189C95.925 67.9534 95.9583 67.8687 95.9568 67.7791C95.955 67.6885 95.9179 67.6047 95.8531 67.5425L93.9053 65.6648L93.839 65.6154L93.6646 65.5703C93.5747 65.5719 93.4907 65.6092 93.4275 65.6736L91.5479 67.6201C91.4855 67.6847 91.4516 67.7694 91.4532 67.8598C91.4547 67.9496 91.4921 68.0334 91.5566 68.0966L93.4511 69.9216Z" fill="white"/>
<path d="M50.5605 22.0859H47.6094V23.5615H50.5605V22.0859Z" fill="white"/>
<path d="M60.2159 22.0859H54.8125V23.5615H60.2159V22.0859Z" fill="white"/>
<path d="M82.5859 23.5615H85.5508V22.0859H82.5859V23.5615Z" fill="white"/>
<path d="M78.0716 22.0859H72.668V23.5615H78.0716V22.0859Z" fill="white"/>
<path d="M69.1417 22.0859H63.7383V23.5615H69.1417V22.0859Z" fill="white"/>
<path d="M53.4788 23.5572H52.0039V21.9961H53.4788V23.5572Z" fill="white"/>
<path d="M81.0645 23.5552H79.5898V22.0352H81.0645V23.5552Z" fill="white"/>
<path d="M50.5605 30.2109H47.6094V31.6865H50.5605V30.2109Z" fill="white"/>
<path d="M60.2159 30.2109H54.8125V31.6865H60.2159V30.2109Z" fill="white"/>
<path d="M82.5859 31.6865H85.5508V30.2109H82.5859V31.6865Z" fill="white"/>
<path d="M78.0716 30.2109H72.668V31.6865H78.0716V30.2109Z" fill="white"/>
<path d="M69.1417 30.2109H63.7383V31.6865H69.1417V30.2109Z" fill="white"/>
<path d="M53.4788 31.6783H52.0039V30.1172H53.4788V31.6783Z" fill="white"/>
<path d="M81.0645 31.6802H79.5898V30.1602H81.0645V31.6802Z" fill="white"/>
<path d="M50.5605 38.332H47.6094V39.8083H50.5605V38.332Z" fill="white"/>
<path d="M60.2159 38.332H54.8125V39.8083H60.2159V38.332Z" fill="white"/>
<path d="M82.5859 39.8083H85.5508V38.332H82.5859V39.8083Z" fill="white"/>
<path d="M78.0716 38.332H72.668V39.8083H78.0716V38.332Z" fill="white"/>
<path d="M69.1417 38.332H63.7383V39.8083H69.1417V38.332Z" fill="white"/>
<path d="M53.4788 39.8031H52.0039V38.2422H53.4788V39.8031Z" fill="white"/>
<path d="M81.0645 39.8002H79.5898V38.2812H81.0645V39.8002Z" fill="white"/>
<path d="M81.0663 23.5164H79.5917V22.0401H81.0663V23.5164ZM81.0663 31.6632H79.5917V30.1869H81.0663V31.6632ZM81.0663 39.8047H79.5917V38.3284H81.0663V39.8047ZM78.0722 47.9444H72.6687V14.5544L74.4742 12.7059H76.2248L78.0722 14.5544V47.9444ZM78.0722 50.9551H72.6687V49.4499H78.0722V50.9551ZM69.1435 47.9444H63.74V14.5544L65.5448 12.7059H67.2962L69.1435 14.5544V47.9444ZM69.1435 50.9551H63.74V49.4499H69.1435V50.9551ZM60.2141 47.9444H54.8107V14.5544L56.6161 12.7059H58.3675L60.2141 14.5544V47.9444ZM60.2141 50.9551H54.8107V49.4499H60.2141V50.9551ZM53.4832 23.5164H52.0084V22.0401H53.4832V23.5164ZM53.4832 31.6632H52.0084V30.1869H53.4832V31.6632ZM53.4832 39.8047H52.0084V38.3284H53.4832V39.8047ZM50.5625 54.2349H82.5869V8.73828H50.5625V54.2349Z" fill="white"/>
</svg>
