<svg width="102" height="67" viewBox="0 0 102 67" fill="none" xmlns="http://www.w3.org/2000/svg">
<g clip-path="url(#clip0_1_9499)">
<path d="M72.3757 38.0426V38.1158C72.3757 42.9486 68.8062 46.4998 63.0056 46.4998C58.3209 46.4998 55.086 44.6692 52.8554 42.0698L56.7968 38.3717C58.5813 40.3492 60.4405 41.447 63.0803 41.447C65.2368 41.447 66.7613 40.2392 66.7613 38.3353C66.7327 38.2848 67.1819 35.0041 61.6673 35.0041H59.2878L58.3951 31.4155L66.7445 23.1454L63.3986 25.2653H54.38V20.433H71.9664V24.6798L65.3856 30.8668C68.9178 31.4528 72.3757 33.283 72.3757 38.0426ZM56.0529 8.71418C56.0529 6.39393 57.7423 4.52643 60.113 4.52643H62.7846L62.0853 4.87015C62.117 11.2298 61.9574 12.0308 62.3697 12.9605L60.1427 12.96C57.7719 12.96 56.0529 11.0632 56.0529 8.74345V8.71418ZM60.113 14.0255H62.4853V13.1841C62.6583 13.4798 62.891 13.7095 63.2343 13.87C63.989 14.2233 63.4405 14.0012 85.0814 14.0668V3.46144H83.94V12.9428C83.94 12.9428 64.1522 13.018 63.7761 12.8515C63.4497 12.7066 63.331 12.3755 63.2768 12.0227C63.1903 11.4498 63.243 11.4392 63.2272 3.46144H60.1427C56.9866 3.46144 54.8379 5.92705 54.8379 8.74345V8.77273C54.8379 11.5886 56.9569 14.0255 60.113 14.0255ZM93.4937 2.3369H90.993C91.0472 1.52126 90.6645 0 92.3493 0H93.1545V0.783342C92.3748 0.840377 91.9262 0.596087 91.9262 1.21034V1.47028H93.4937V2.3369ZM96.3843 14.1814C96.0799 14.1814 95.7703 14.1395 95.4567 14.0547L95.7565 12.9731C96.2727 13.118 96.9327 13.1265 97.2049 12.6713C97.5226 12.1322 97.409 11.9424 97.4259 3.46144H98.5673C98.5345 11.3781 98.6461 11.5992 98.4604 12.5168C98.2414 13.5904 97.5814 14.1814 96.3843 14.1814ZM63.2272 2.3369H62.0853V1.21287H63.2272V2.3369ZM88.35 6.21526C88.8857 5.18611 90.0102 4.61324 91.1598 4.60113V4.59911H93.0041L92.3523 4.91961V9.96692C91.4539 9.94067 90.8226 10.0512 89.9908 9.79077C88.855 9.43847 88.0855 8.57639 88.0855 7.32516C88.0855 6.92289 88.1735 6.55242 88.35 6.21526ZM88.35 10.1986C89.8362 11.2434 91.8627 11.0708 91.9686 11.0905L92.3523 10.2975C92.2904 11.0662 92.5667 12.1403 91.8387 12.6783C91.2232 13.1321 90.1258 13.1175 89.4484 12.959C89.1681 12.8939 88.8468 12.7813 88.4851 12.6223L88.1285 13.7039C88.8519 13.9669 89.5436 14.1814 90.3115 14.1814C91.4248 14.1814 92.2331 13.9215 92.7376 13.4021C93.2415 12.8817 93.4937 12.1817 93.4937 11.3014V3.46144C92.0888 3.50485 91.0232 3.32163 89.7411 3.75671C86.3057 4.92214 86.2371 8.71468 88.35 10.1986ZM60.9439 2.3369H59.802V1.21287H60.9439V2.3369ZM49.1284 3.44933H50.3071V14.0038H49.3422L41.7505 4.51027L42.4217 6.0487V14.0038H41.2425V3.44933H42.3757L49.6251 12.5294L49.1284 11.2343V3.44933ZM4.60905 14.079L0 3.44933H1.34757C1.41612 3.61286 5.08944 12.3725 5.46189 13.2608L5.34525 12.1009L8.98838 3.44933H10.2894L5.68086 14.079H4.60905ZM25.0338 3.44933H26.2433V14.0033H25.0338V3.44933ZM38.0071 8.75658C38.0071 11.154 36.262 13.0836 33.812 13.0836C31.3619 13.0836 29.5856 11.1238 29.5856 8.7268V8.69601C29.5856 6.29904 31.3317 4.36945 33.7813 4.36945C36.2313 4.36945 38.0071 6.32933 38.0071 8.7268V8.75658ZM33.812 3.26864C30.5505 3.26864 28.3301 5.81652 28.3301 8.7268V8.75658C28.3301 11.6664 30.5198 14.1845 33.7813 14.1845C37.0427 14.1845 39.2631 11.6366 39.2631 8.7268V8.69601C39.2631 5.78674 37.0734 3.26864 33.812 3.26864ZM23.0381 11.1389V11.1687C23.0381 12.9776 21.5068 14.1542 19.3786 14.1542C17.679 14.1542 16.2859 13.5964 14.9997 12.4653L15.7497 11.5911C16.8676 12.586 17.9394 13.0831 19.4251 13.0831C20.8643 13.0831 21.8133 12.3301 21.8133 11.2893V11.2595C21.8133 8.31393 15.4285 10.2571 15.4285 6.20819V6.17841C15.4285 4.51987 16.9137 3.29842 18.9503 3.29842C20.5118 3.29842 21.6296 3.73602 22.7168 4.59557L22.0128 5.51469C19.5827 3.56441 16.6379 4.31141 16.6379 6.07292V6.10321C16.6379 7.09803 17.1889 7.65576 19.5474 8.15342C21.9361 8.66623 23.0381 9.52579 23.0381 11.1389ZM13.1421 14.0038H11.9327V3.44984H13.1421V14.0038ZM83.5415 15.1904H84.6834V16.3144H83.5415V15.1904ZM81.2582 15.1904H82.4001V16.3144H81.2582V15.1904ZM9.57212 41.1906H19.4962V46.0607H0.23585V41.5939C9.85965 33.5363 13.3984 31.9616 13.3984 28.4507C13.3984 26.2904 11.948 25.1189 9.90313 25.1189C7.89508 25.1189 6.51938 26.2167 4.58602 28.5597L0.570439 25.3753C3.13614 21.9336 5.62765 20.0661 10.2751 20.0661C15.6664 20.0661 19.2358 23.1783 19.2358 27.9747V28.0474C19.2358 34.0618 14.6206 36.0004 6.70663 42.2924L5.60156 43.1323L9.57212 41.1906ZM95.5294 33.3198C95.5294 37.713 92.3319 41.3011 87.7208 41.3011C83.1102 41.3011 79.8385 37.6398 79.8385 33.2461V33.1729C79.8385 28.7798 83.0365 25.1921 87.6466 25.1921C92.2566 25.1921 95.5294 28.8534 95.5294 33.2461V33.3198ZM87.7208 19.9934C79.6901 19.9934 73.8522 25.9608 73.8522 33.2461V33.3198C73.8522 40.6056 79.6149 46.4998 87.6466 46.4998C95.6783 46.4998 101.515 40.5319 101.515 33.2461V33.1729C101.515 25.8876 95.7519 19.9934 87.7208 19.9934Z" fill="#FDFDFD"/>
<path d="M35.0542 18.3076L36.3726 19.5533L35.1074 20.8509L33.7896 19.6052" fill="#FDFDFD"/>
<path d="M38.0713 19.6052L39.3887 20.8509L40.6539 19.5533L39.336 18.3076" fill="#FDFDFD"/>
<path d="M36.2153 21.2411L37.2421 22.2107L38.2264 21.2002L37.2007 20.2306" fill="#FDFDFD"/>
<path d="M39.978 21.7958L41.0043 22.7659L41.9886 21.7554L40.9624 20.7853" fill="#FDFDFD"/>
<path d="M34.5371 22.7861L35.5634 23.7562L36.5477 22.7457L35.5225 21.7756" fill="#FDFDFD"/>
<path d="M37.981 22.904L39.0067 23.8741L39.9916 22.8636L38.9653 21.8936" fill="#FDFDFD"/>
<path d="M36.6338 24.0657L37.3557 24.7481L38.0484 24.0369L37.3265 23.3545" fill="#FDFDFD"/>
<path d="M39.3569 24.6014L40.0788 25.2838L40.772 24.5726L40.0502 23.8907" fill="#FDFDFD"/>
<path d="M45.3047 19.1946L47.544 18.7895L47.9538 20.9948L45.7145 21.3998L45.3047 19.1946Z" fill="#FDFDFD"/>
<path d="M42.3818 20.1191L44.1784 19.7946L44.5068 21.5641L42.7102 21.8886L42.3818 20.1191Z" fill="#FDFDFD"/>
<path d="M45.855 22.584L47.6515 22.259L47.9803 24.0284L46.1838 24.3533L45.855 22.584Z" fill="#FDFDFD"/>
<path d="M43.3774 22.8436L44.7764 22.5907L45.0322 23.9679L43.6332 24.2208L43.3774 22.8436Z" fill="#FDFDFD"/>
<path d="M46.0991 25.4609L47.4981 25.2081L47.7539 26.5858L46.355 26.8386L46.0991 25.4609Z" fill="#FDFDFD"/>
<path d="M41.2812 23.4035L42.6807 23.1506L42.9366 24.5282L41.5371 24.7812L41.2812 23.4035Z" fill="#FDFDFD"/>
<path d="M43.8203 25.208L45.2193 24.9551L45.4751 26.3328L44.0762 26.5857L43.8203 25.208Z" fill="#FDFDFD"/>
<path d="M42.0376 25.375L43.0219 25.197L43.202 26.166L42.2177 26.3441L42.0376 25.375Z" fill="#FDFDFD"/>
<path d="M43.9287 27.3779L44.9126 27.2005L45.0921 28.1692L44.1082 28.3466L43.9287 27.3779Z" fill="#FDFDFD"/>
<path d="M51.965 26.4189L50.9863 28.4439L53.043 29.407L54.0207 27.3825" fill="#FDFDFD"/>
<path d="M49.0465 25.4834L48.2617 27.1076L49.9111 27.8803L50.6959 26.2561" fill="#FDFDFD"/>
<path d="M50.3961 29.4844L49.6113 31.1091L51.2613 31.8813L52.0461 30.2571" fill="#FDFDFD"/>
<path d="M48.2344 28.2656L47.6235 29.5305L48.9082 30.1321L49.5195 28.8673" fill="#FDFDFD"/>
<path d="M48.8863 31.9569L48.2749 33.2218L49.559 33.8234L50.1709 32.5586" fill="#FDFDFD"/>
<path d="M46.2012 27.5129L45.5898 28.7777L46.8745 29.3794L47.4859 28.1145" fill="#FDFDFD"/>
<path d="M47.189 30.4393L46.5776 31.7042L47.8618 32.3058L48.4736 31.0409" fill="#FDFDFD"/>
<path d="M45.6441 29.5479L45.2139 30.4377L46.1174 30.8607L46.5476 29.9713" fill="#FDFDFD"/>
<path d="M45.5557 33.1475L45.9848 32.2578L46.8879 32.6818L46.4588 33.5715L45.5557 33.1475Z" fill="#FDFDFD"/>
<path d="M53.0725 36.1142L51.0762 37.1923L52.1715 39.1582L54.1678 38.0801" fill="#FDFDFD"/>
<path d="M51.262 33.674L49.6606 34.5391L50.5391 36.1159L52.1404 35.2508" fill="#FDFDFD"/>
<path d="M49.9793 37.6963L48.3774 38.5614L49.2564 40.1387L50.8577 39.2736" fill="#FDFDFD"/>
<path d="M48.9504 35.4629L47.7036 36.1367L48.3871 37.3642L49.6349 36.6909" fill="#FDFDFD"/>
<path d="M47.2859 38.832L46.0386 39.5058L46.7226 40.7333L47.9699 40.06" fill="#FDFDFD"/>
<path d="M47.7492 33.6816L46.502 34.355L47.186 35.5835L48.4338 34.9097" fill="#FDFDFD"/>
<path d="M46.8113 36.6233L45.564 37.2971L46.248 38.5246L47.4953 37.8513" fill="#FDFDFD"/>
<path d="M46.0878 35.0098L45.2104 35.4837L45.6919 36.3473L46.5688 35.8739" fill="#FDFDFD"/>
<path d="M44.7529 37.4072L43.8755 37.8812L44.3564 38.7448L45.2338 38.2713" fill="#FDFDFD"/>
<path d="M45.6689 46.5577L45.9476 44.3321L48.2076 44.6075L47.9289 46.8331L45.6689 46.5577Z" fill="#FDFDFD"/>
<path d="M46.1567 43.1582L46.381 41.373L48.1936 41.5946L47.9693 43.3798L46.1567 43.1582Z" fill="#FDFDFD"/>
<path d="M42.7256 45.6816L42.9499 43.8964L44.7629 44.1181L44.5387 45.9033L42.7256 45.6816Z" fill="#FDFDFD"/>
<path d="M43.6699 42.9358L43.8441 41.5457L45.2556 41.7179L45.0814 43.1079L43.6699 42.9358Z" fill="#FDFDFD"/>
<path d="M40.3174 44.708L40.4916 43.318L41.9031 43.4901L41.7289 44.8802L40.3174 44.708Z" fill="#FDFDFD"/>
<path d="M43.7529 40.7949L43.9276 39.4044L45.3396 39.5771L45.1649 40.9676L43.7529 40.7949Z" fill="#FDFDFD"/>
<path d="M41.2446 42.6389L41.4192 41.2489L42.8312 41.4216L42.6566 42.8116L41.2446 42.6389Z" fill="#FDFDFD"/>
<path d="M42.0884 40.5568L42.211 39.579L43.2036 39.7002L43.081 40.6779L42.0884 40.5568Z" fill="#FDFDFD"/>
<path d="M39.5786 41.7303L39.7011 40.7525L40.6943 40.8736L40.5718 41.8514L39.5786 41.7303Z" fill="#FDFDFD"/>
<path d="M39.2156 48.7075L37.5467 47.1817L35.9976 48.8251L37.6664 50.3504" fill="#FDFDFD"/>
<path d="M38.9084 17.3012L37.2396 15.7754L35.6904 17.4188L37.3593 18.9441" fill="#FDFDFD"/>
<path d="M40.9966 46.2464L39.6577 45.0225L38.415 46.3408L39.7539 47.5643" fill="#FDFDFD"/>
<path d="M36.7154 46.3159L35.376 45.0919L34.1333 46.4103L35.4722 47.6338" fill="#FDFDFD"/>
<path d="M38.5433 44.65L37.5007 43.6971L36.5332 44.7232L37.5753 45.6761" fill="#FDFDFD"/>
<path d="M34.7718 44.1569L33.7297 43.2039L32.7622 44.2301L33.8049 45.1835" fill="#FDFDFD"/>
<path d="M39.8822 42.9657L38.8395 42.0128L37.8721 43.0389L38.9142 43.9918" fill="#FDFDFD"/>
<path d="M36.7503 43.0164L35.7077 42.0635L34.7402 43.0896L35.7824 44.0425" fill="#FDFDFD"/>
<path d="M38.0771 41.8329L37.344 41.1621L36.6636 41.8844L37.3967 42.5547" fill="#FDFDFD"/>
<path d="M35.3457 41.341L34.6126 40.6707L33.9316 41.3925L34.6648 42.0628" fill="#FDFDFD"/>
<path d="M26.8101 45.0869L29.0428 44.6454L29.4894 46.8437L27.2566 47.2852L26.8101 45.0869Z" fill="#FDFDFD"/>
<path d="M30.2471 44.4629L32.0379 44.1088L32.3962 45.8726L30.6054 46.2267L30.2471 44.4629Z" fill="#FDFDFD"/>
<path d="M26.7349 42.0527L28.5256 41.6983L28.8843 43.462L27.0935 43.8165L26.7349 42.0527Z" fill="#FDFDFD"/>
<path d="M29.6812 42.0673L31.0757 41.7915L31.3547 43.1648L29.9601 43.4406L29.6812 42.0673Z" fill="#FDFDFD"/>
<path d="M31.7676 41.4727L33.1621 41.1969L33.4412 42.5707L32.0467 42.8465L31.7676 41.4727Z" fill="#FDFDFD"/>
<path d="M29.1978 39.7098L30.5923 39.434L30.8713 40.8074L29.4767 41.0831L29.1978 39.7098Z" fill="#FDFDFD"/>
<path d="M31.4736 39.842L32.4549 39.6484L32.6508 40.6144L31.6696 40.8081L31.4736 39.842Z" fill="#FDFDFD"/>
<path d="M29.5508 37.8682L30.5314 37.6741L30.7279 38.6401L29.7472 38.8341L29.5508 37.8682Z" fill="#FDFDFD"/>
<path d="M22.7092 39.7296L23.6531 37.6895L21.5806 36.7598L20.6367 38.7999" fill="#FDFDFD"/>
<path d="M25.6432 40.6177L26.4004 38.9809L24.7382 38.2354L23.9805 39.8722" fill="#FDFDFD"/>
<path d="M24.2252 36.6397L24.9829 35.0028L23.3202 34.2568L22.563 35.8942" fill="#FDFDFD"/>
<path d="M25.1123 37.2432L25.7016 35.9684L26.9952 36.5504L26.4059 37.8252L25.1123 37.2432Z" fill="#FDFDFD"/>
<path d="M28.1396 41.0092L28.7295 39.7347L27.4351 39.1543L26.8452 40.4287" fill="#FDFDFD"/>
<path d="M24.4014 33.5615L24.9909 32.2868L26.2844 32.8691L25.6948 34.1438L24.4014 33.5615Z" fill="#FDFDFD"/>
<path d="M27.1606 37.961L27.7502 36.6863L29.0437 37.2686L28.4541 38.5433L27.1606 37.961Z" fill="#FDFDFD"/>
<path d="M26.1226 35.0538L26.7125 33.7793L28.0058 34.362L27.4158 35.6365L26.1226 35.0538Z" fill="#FDFDFD"/>
<path d="M28.9761 36.4976L29.391 35.6012L28.4803 35.1924L28.0654 36.0893" fill="#FDFDFD"/>
<path d="M28.5884 33.7907L29.0033 32.8938L28.0926 32.4855L27.6777 33.3824" fill="#FDFDFD"/>
<path d="M21.4377 30.0533L23.416 28.9429L22.2874 26.9951L20.3096 28.1055" fill="#FDFDFD"/>
<path d="M23.2898 32.4643L24.8768 31.5735L23.9713 30.0108L22.3848 30.9022" fill="#FDFDFD"/>
<path d="M24.5046 28.4218L26.0916 27.5309L25.1861 25.9678L23.5996 26.8591" fill="#FDFDFD"/>
<path d="M25.5712 30.6379L26.8062 29.9439L26.1017 28.7275L24.8662 29.421" fill="#FDFDFD"/>
<path d="M27.1786 27.2423L28.4136 26.5483L27.7092 25.3319L26.4736 26.0254" fill="#FDFDFD"/>
<path d="M26.8016 32.3997L28.0377 31.7062L27.3332 30.4893L26.0972 31.1833" fill="#FDFDFD"/>
<path d="M27.6903 29.4426L28.9258 28.7491L28.2214 27.5322L26.9858 28.2262" fill="#FDFDFD"/>
<path d="M28.4411 31.044L29.3103 30.5559L28.8145 29.7004L27.9453 30.1879" fill="#FDFDFD"/>
<path d="M29.735 28.6248L30.6047 28.1367L30.109 27.2812L29.2393 27.7693" fill="#FDFDFD"/>
<path d="M26.1577 21.4767L26.3993 19.2474L28.663 19.4861L28.4215 21.7154L26.1577 21.4767Z" fill="#FDFDFD"/>
<path d="M26.2256 24.497L26.4195 22.7088L28.2361 22.9006L28.0422 24.6888L26.2256 24.497Z" fill="#FDFDFD"/>
<path d="M29.6128 21.918L29.8068 20.1293L31.6234 20.3211L31.4294 22.1097L29.6128 21.918Z" fill="#FDFDFD"/>
<path d="M29.1626 24.3311L29.3138 22.9384L30.728 23.0878L30.5768 24.4805L29.1626 24.3311Z" fill="#FDFDFD"/>
<path d="M32.4814 22.499L32.6321 21.1063L34.0463 21.2552L33.8957 22.6479L32.4814 22.499Z" fill="#FDFDFD"/>
<path d="M29.1123 26.4688L29.2635 25.0761L30.6777 25.2255L30.5265 26.6182L29.1123 26.4688Z" fill="#FDFDFD"/>
<path d="M31.5908 24.5819L31.742 23.1893L33.1562 23.3387L33.005 24.7314L31.5908 24.5819Z" fill="#FDFDFD"/>
<path d="M31.2471 26.3133L31.3533 25.3337L32.3483 25.4387L32.2421 26.4183L31.2471 26.3133Z" fill="#FDFDFD"/>
<path d="M33.7363 25.0967L33.842 24.117L34.8376 24.2215L34.7319 25.2012L33.7363 25.0967Z" fill="#FDFDFD"/>
<path d="M44.4799 34.4403C43.2879 33.763 41.6293 33.5661 39.9108 34.187C39.1597 34.4671 38.4077 34.9562 37.7733 35.4352C37.3737 33.0452 37.5687 30.827 37.6618 29.7372C37.6623 29.7312 37.6694 29.7282 37.6751 29.7317C38.533 30.2642 38.2926 31.7521 38.1125 32.1776C38.1089 32.1862 38.1217 32.1917 38.1278 32.1847C39.1971 30.939 38.6747 29.5636 38.4553 29.2154C38.4154 29.1523 38.6573 29.3436 38.8558 29.5944C39.6033 30.5332 39.258 31.5876 39.3414 31.5629C39.3434 31.5623 39.346 31.5629 39.347 31.5603C39.8438 30.5988 39.6841 29.3794 38.6625 28.4986C38.6159 28.4598 38.798 28.5183 38.8558 28.5385C39.7271 28.8368 40.1814 29.7221 40.1753 30.5115C40.1753 30.6851 40.7636 29.0286 39.3414 28.1867C39.0753 28.0297 38.8021 27.9434 38.6236 27.9222C38.4844 27.9076 39.3854 27.7738 40.0182 28.1968C40.3983 28.4497 40.4981 28.7555 40.4884 28.6697C40.3779 27.5608 39.0528 27.1227 38.2496 27.4554C38.1647 27.4972 38.5658 26.9108 39.3414 26.9562C39.4908 26.9648 39.6289 26.9966 39.7394 27.0485C39.7471 27.0521 39.7542 27.042 39.7486 27.0354C39.1628 26.3747 38.1989 26.3611 37.6873 27.1253C37.6838 27.1303 37.6761 27.1303 37.673 27.1253C37.4791 26.7825 37.3169 26.3439 37.2469 25.9301C37.23 25.8241 37.1942 26.4424 36.8053 27.1253C36.8023 27.1303 36.7951 27.1303 36.7915 27.1253C36.2784 26.3591 35.3155 26.3742 34.7303 27.0354C34.7241 27.042 34.7313 27.0521 34.7395 27.0485C35.1303 26.8653 35.8686 26.9193 36.2385 27.4427C36.2431 27.4498 36.2364 27.4589 36.2282 27.4554C35.4005 27.1121 34.1 27.578 33.99 28.6697C33.9895 28.6788 34.0017 28.6839 34.0064 28.6758C34.0432 28.6077 34.1343 28.4623 34.3046 28.3149C34.9666 27.7395 36.0077 27.9061 35.8548 27.9222C35.4481 27.9717 34.6131 28.329 34.3046 29.1457C34.0524 29.813 34.2954 30.6917 34.3046 30.4741C34.3128 29.7317 34.7441 28.7374 35.8087 28.484C35.8169 28.482 35.8231 28.4931 35.8164 28.4986C34.1619 29.9336 35.1626 31.6956 35.1472 31.5563C35.0961 30.9875 35.0536 29.9719 36.0098 29.2053C36.017 29.1997 36.0282 29.2073 36.0231 29.2154C35.8036 29.5636 35.2818 30.939 36.3505 32.1847C36.3567 32.1917 36.3695 32.1862 36.3659 32.1776C36.1863 31.7521 35.9458 30.2642 36.8033 29.7317C36.8089 29.7282 36.8161 29.7312 36.8166 29.7372C36.9102 30.827 37.1051 33.0452 36.7051 35.4352C35.3462 34.4105 34.0084 33.7387 32.2853 33.8134C31.4187 33.8508 30.5965 34.0996 29.9984 34.4403C29.977 34.4524 29.9928 34.4832 30.0158 34.4762C32.5222 33.6858 34.6914 34.6447 36.7081 36.3003C35.6895 37.176 34.7651 38.0926 34.2279 38.3691C34.1025 38.2001 33.8851 38.1027 33.6472 38.1536C33.199 38.251 33.0921 38.8047 33.3351 39.043C34.2156 39.9096 35.5923 38.19 37.2392 36.7525C38.8241 38.1345 40.2643 39.9091 41.1432 39.043C41.2133 38.9738 41.2947 38.7457 41.2527 38.5645C41.1468 38.1122 40.5375 37.9815 40.2505 38.3691C39.7338 38.1122 38.8267 37.2078 37.7702 36.3003C39.8013 34.6301 41.947 33.6979 44.462 34.4762C44.4855 34.4832 44.5014 34.4524 44.4799 34.4403Z" fill="#FDFDFD"/>
<path d="M36.4598 58.0983H37.1132V52.3262H36.4598V58.0983ZM19.341 57.4547L18.3204 54.9861C19.3763 54.1043 20.6866 54.2664 21.5297 54.9861L20.509 57.4547H19.341ZM15.7393 57.4547C15.2257 57.4396 14.8645 57.5027 14.3877 57.3548C12.6221 56.8047 13.102 54.383 15.0778 54.383H15.7393V57.4547ZM33.9034 57.4547C32.851 57.4229 31.903 57.638 31.4205 56.8117C31.5157 56.3988 31.4635 56.0284 31.4778 54.1336H30.8245V56.313C30.8245 57.9125 28.8681 57.8086 28.4067 56.8481C28.2215 56.4619 28.3345 56.3004 28.3008 54.1336H27.6469V56.3615C27.6469 57.0883 27.186 57.4547 26.5444 57.4547H25.2787V54.1336H24.6254V57.4547H21.1951L22.3385 54.761C21.6898 54.2018 20.7868 53.6753 19.9212 53.6753C19.0418 53.6753 18.1562 54.179 17.5034 54.761L18.655 57.4547H16.3927V53.7318H15.3475C13.8699 53.7318 12.6436 54.5697 12.6436 55.9431C12.6436 58.3875 15.6831 58.0862 15.7393 58.0983C15.7291 58.1775 15.8207 58.7297 15.4452 59.0073C15.0942 59.2667 14.4675 59.2592 14.0771 59.1683C13.9165 59.1304 13.7328 59.0664 13.5261 58.975L13.322 59.5943C13.7364 59.7447 14.1319 59.8679 14.5714 59.8679C15.8166 59.8679 16.3927 59.2551 16.3927 58.2189V58.0983C27.0555 58.0322 26.7404 58.2497 27.3901 57.8974C27.6377 57.7636 27.8378 57.584 27.9902 57.3583C28.1483 57.6158 28.3632 57.8171 28.6354 57.962C29.2068 58.2643 30.0786 58.2361 30.6081 57.9776C30.8828 57.8439 31.0941 57.6375 31.241 57.3583C31.4932 57.7833 31.8846 58.0564 32.6704 58.0907V58.0983H34.5567V52.3262H33.9034V57.4547ZM92.5281 57.1696C91.95 58.5026 89.9599 58.5409 89.3838 57.1494C89.2145 56.7411 89.2145 56.257 89.3838 55.8426C90.0811 54.1377 92.6632 54.6272 92.6632 56.4983C92.6632 56.739 92.6182 56.9631 92.5281 57.1696ZM86.1904 57.1696C85.6905 58.3153 84.1844 58.4849 83.397 57.6844C82.7509 57.0252 82.7698 55.9517 83.3934 55.3041C83.9015 54.7716 84.6847 54.6858 85.2838 54.9296C86.2282 55.3182 86.5429 56.3615 86.1904 57.1696ZM70.301 57.4547C69.8011 57.4396 69.4389 57.5042 68.9652 57.3508C67.2446 56.793 67.6549 54.3749 69.6553 54.3749H70.301V57.4547ZM95.3578 57.4547H93.1124C93.8133 55.937 92.7246 54.1578 90.9314 54.1578C89.28 54.1578 88.1248 55.8275 88.7996 57.4547H86.7741C87.4571 55.9814 86.4221 54.1578 84.5937 54.1578C82.9412 54.1578 81.787 55.828 82.4618 57.4547H80.3872V52.3262H79.7339V57.4547H77.6517C77.6159 56.7941 77.8036 55.8164 77.2429 55.1991C76.8628 54.7761 76.4397 54.6444 75.8626 54.6444H72.9715L74.2014 52.3262H73.4908L72.2364 54.6363C72.2768 54.8927 72.3556 55.0931 72.5305 55.2874C75.7981 55.3147 76.0115 55.2198 76.3977 55.3803C76.7006 55.504 76.8853 55.7296 76.9493 56.0036C77.027 56.3337 76.9876 56.5821 76.9984 57.4547H70.9543V53.7318H69.9249C68.1937 53.7318 67.2298 54.7479 67.2298 55.9188C67.2298 57.3861 68.4259 58.0983 69.9249 58.0983H82.8864C83.8477 59.1199 85.4659 59.033 86.3495 58.0983H89.2242C90.1824 59.1168 91.7991 59.0366 92.6878 58.0983H96.0117V52.3262H95.3578V57.4547ZM97.9143 58.0983H98.5676V52.3262H97.9143V58.0983ZM49.7733 59.5146H50.4446V58.8539H49.7733V59.5146ZM56.1612 57.4547L55.1401 54.9861C56.1878 54.1109 57.496 54.2588 58.3499 54.9861L57.3292 57.4547H56.1612ZM60.7918 57.4547H58.0153L59.1582 54.761C58.508 54.1987 57.6019 53.6753 56.7409 53.6753C55.8584 53.6753 54.9753 54.1816 54.323 54.761L55.4747 57.4547H53.0415V53.7318H52.3876V58.2351C52.3876 58.8039 52.3457 59.2243 51.7671 59.2243C51.6325 59.2243 51.5614 59.2127 51.4325 59.1759L51.2611 59.7957C51.807 59.9431 52.4516 59.8936 52.7718 59.4293C53.0614 59.0088 53.0271 58.4284 53.0415 58.0983H61.4456V52.3262H60.7918V57.4547ZM11.1902 54.2946C10.4637 53.5123 9.6226 53.796 9.3361 53.7318V54.3749C9.81292 54.393 10.0334 54.3229 10.3568 54.4753C10.6289 54.6045 10.8213 54.813 10.9001 55.1067C10.9886 55.4444 10.939 55.7079 10.9533 57.4547H7.89031V58.0983H11.6066C11.5795 55.6604 11.6741 55.402 11.5043 54.8574C11.4362 54.6378 11.3314 54.4501 11.1902 54.2946ZM47.3847 59.5221H48.0559V58.8614H47.3847V59.5221ZM43.412 57.4547C42.9132 57.4396 42.5505 57.5042 42.0762 57.3508C40.3537 56.7925 40.7686 54.3749 42.7664 54.3749H43.412V57.4547ZM50.4359 53.7318H49.7825V57.4547H47.3161V53.7318H46.6628V57.4547H44.0654V53.7318C43.2437 53.7571 42.0179 53.5678 41.0761 54.3547C39.7408 55.4706 40.0851 58.0983 43.0365 58.0983H50.4359V53.7318ZM46.2402 59.5221H46.9114V58.8614H46.2402V59.5221ZM2.5773 52.3262H1.90607V52.9869H2.5773V52.3262ZM69.8067 52.3262H69.1355V52.9869H69.8067V52.3262ZM44.0623 52.3262H43.3911V52.9869H44.0623V52.3262ZM6.43173 59.5221H7.10295V58.8614H6.43173V59.5221ZM42.9178 52.3262H42.2466V52.9869H42.9178V52.3262ZM3.72176 52.3262H3.05053V52.9869H3.72176V52.3262ZM5.28727 59.5221H5.95849V58.8614H5.28727V59.5221ZM3.07151 57.4547C2.57371 57.4396 2.20894 57.5042 1.73622 57.3508C0.0167146 56.7946 0.422929 54.3749 2.42637 54.3749H3.07151V57.4547ZM6.97556 53.7318H6.32224V57.4547H3.72482V53.7318C2.94156 53.7556 2.31894 53.6546 1.58478 53.8964C0.969322 54.1003 0.466415 54.4753 0.192195 55.0507C-0.0932804 55.6493 -0.0416083 56.4115 0.221356 56.9C0.694591 57.7813 1.68455 58.0983 2.69548 58.0983H6.97556V53.7318ZM63.3482 58.0983H64.0016V52.3262H63.3482V58.0983ZM70.9507 52.3262H70.2795V52.9869H70.9507V52.3262Z" fill="#FDFDFD"/>
<path d="M0.640137 62.3262H1.46024V64.6369L3.68009 62.3262H4.68693L2.74692 64.3022L4.77339 66.9213H3.78037L2.18723 64.8534L1.46024 65.5888V66.9213H0.640137" fill="#FDFDFD"/>
<path d="M5.52148 62.3262H6.34159V66.9213H5.52148V62.3262Z" fill="#FDFDFD"/>
<path d="M7.604 62.3262H8.36425L10.8645 65.5035V62.3262H11.6707V66.9213H10.9842L8.4108 63.6522V66.9213H7.604" fill="#FDFDFD"/>
<path d="M12.6865 64.6368V64.6237C12.6865 63.3372 13.6867 62.2469 15.0931 62.2469C15.9066 62.2469 16.4069 62.4705 16.8868 62.8708L16.367 63.4815C15.1033 62.4226 13.547 63.1852 13.547 64.6106V64.6237C13.547 65.5691 14.1799 66.2646 15.133 66.2646C15.5735 66.2646 15.9736 66.1268 16.2601 65.9168V65.0568H15.0665V64.3547H17.0536V66.2843C15.3847 67.691 12.6865 66.9682 12.6865 64.6368Z" fill="#FDFDFD"/>
<path d="M19.9265 66.1859C22.1029 66.1859 22.0768 63.0611 19.9265 63.0611H19.0066V66.1859H19.9265ZM18.1865 62.3262H19.9265C23.256 62.3262 23.211 66.9213 19.9265 66.9213H18.1865V62.3262Z" fill="#FDFDFD"/>
<path d="M27.1945 64.6368V64.6237C27.1945 63.7309 26.5345 62.9894 25.6075 62.9894C24.681 62.9894 24.0343 63.7177 24.0343 64.6106V64.6237C24.0343 65.5166 24.6943 66.2585 25.6208 66.2585C26.5478 66.2585 27.1945 65.5297 27.1945 64.6368ZM23.1743 64.6368V64.6237C23.1743 63.3306 24.1878 62.2469 25.6208 62.2469C27.0543 62.2469 28.0545 63.3175 28.0545 64.6106V64.6237C28.0545 65.9168 27.0415 67 25.6075 67C24.1745 67 23.1743 65.93 23.1743 64.6368Z" fill="#FDFDFD"/>
<path d="M29.0732 62.3262H29.9466L31.3668 64.4991L32.7865 62.3262H33.6598V66.9213H32.8397V63.6259L31.3668 65.7922H31.3402L29.88 63.639V66.9213H29.0732" fill="#FDFDFD"/>
<path d="M40.6759 64.6368V64.6237C40.6759 63.7309 40.016 62.9894 39.089 62.9894C38.1624 62.9894 37.5158 63.7177 37.5158 64.6106V64.6237C37.5158 65.5166 38.1757 66.2585 39.1023 66.2585C40.0293 66.2585 40.6759 65.5297 40.6759 64.6368ZM36.6558 64.6368V64.6237C36.6558 63.3306 37.6692 62.2469 39.1023 62.2469C40.5358 62.2469 41.536 63.3175 41.536 64.6106V64.6237C41.536 65.9168 40.5225 67 39.089 67C37.6559 67 36.6558 65.93 36.6558 64.6368Z" fill="#FDFDFD"/>
<path d="M42.5552 62.3262H46.0285V63.0616H43.3753V64.3153H45.7287V65.0502H43.3753V66.9213H42.5552" fill="#FDFDFD"/>
<path d="M48.6167 66.252L49.1099 65.6741C49.5565 66.0551 50.0031 66.2717 50.5833 66.2717C51.0898 66.2717 51.4101 66.042 51.4101 65.6938V65.6811C51.4101 64.6545 48.8029 65.3551 48.8029 63.6062V63.5931C48.8029 62.1828 50.8038 61.823 52.09 62.8385L51.65 63.4487C50.5767 62.6608 49.6235 62.9707 49.6235 63.5214V63.5345C49.6235 64.5465 52.2302 63.9065 52.2302 65.6019V65.615C52.2302 67.2261 49.9146 67.3922 48.6167 66.252Z" fill="#FDFDFD"/>
<path d="M55.9167 65.0962L55.1099 63.258L54.3097 65.0962H55.9167ZM54.743 62.293H55.5028L57.5563 66.9208H56.6897L56.2165 65.8114H54.0094L53.53 66.9208H52.6895L54.743 62.293Z" fill="#FDFDFD"/>
<path d="M58.0391 64.972V62.3262H58.8592V64.9392C58.8592 65.7927 59.3058 66.252 60.0389 66.252C60.7659 66.252 61.2125 65.8189 61.2125 64.972V62.3262H62.0326V64.9326C62.0326 66.3045 61.2458 66.994 60.0256 66.994C58.8121 66.994 58.0391 66.3045 58.0391 64.972Z" fill="#FDFDFD"/>
<path d="M64.9724 66.1859C67.1488 66.1859 67.1232 63.0611 64.9724 63.0611H64.0525V66.1859H64.9724ZM63.2324 62.3262H64.9724C68.3019 62.3262 68.2569 66.9213 64.9724 66.9213H63.2324V62.3262Z" fill="#FDFDFD"/>
<path d="M68.4912 62.3262H69.3113V66.9213H68.4912V62.3262Z" fill="#FDFDFD"/>
<path d="M75.3864 65.0962L74.5796 63.258L73.7794 65.0962H75.3864ZM74.2128 62.293H74.9725L77.0261 66.9208H76.1594L75.6862 65.8114H73.4791L72.9997 66.9208H72.1592L74.2128 62.293Z" fill="#FDFDFD"/>
<path d="M79.8211 64.6041C80.4079 64.6041 80.7814 64.3022 80.7814 63.8359V63.8227C80.7814 63.3306 80.4212 63.0611 79.8144 63.0611H78.6214V64.6041H79.8211ZM77.8013 62.3262H79.8809C80.8673 62.3262 81.6148 62.8153 81.6148 63.7768C81.5958 63.8273 81.712 64.8408 80.501 65.182L81.7611 66.9213H80.7942L79.6476 65.3193C79.5581 65.3193 78.5687 65.3193 78.6214 65.3193V66.9213H77.8013V62.3262Z" fill="#FDFDFD"/>
<path d="M85.5915 65.0962L84.7847 63.258L83.9845 65.0962H85.5915ZM84.4178 62.293H85.1781L87.2312 66.9208H86.3645L85.8913 65.8114H83.6842L83.2048 66.9208H82.3643L84.4178 62.293Z" fill="#FDFDFD"/>
<path d="M90.172 66.2061C90.7322 66.2061 91.0719 65.9891 91.0719 65.5757V65.5626C91.0719 65.1754 90.7588 64.9453 90.1122 64.9453H88.8122V66.2061H90.172ZM89.9321 64.2629C90.4585 64.2629 90.812 64.0595 90.812 63.639V63.6259C90.812 63.265 90.5189 63.0419 89.9919 63.0419H88.8122V64.2629H89.9321ZM88.0054 62.3262H90.0989C90.9195 62.3262 91.6321 62.7048 91.6321 63.4947C91.6132 63.5452 91.716 64.1478 90.9655 64.5319C91.5124 64.7156 91.892 65.0245 91.892 65.6479V65.661C91.892 66.4817 91.2055 66.9213 90.1654 66.9213H88.0054V62.3262Z" fill="#FDFDFD"/>
<path d="M92.9077 62.3262H93.7278V66.9213H92.9077V62.3262Z" fill="#FDFDFD"/>
<path d="M97.7379 65.0962L96.9311 63.258L96.131 65.0962H97.7379ZM96.5643 62.293H97.3241L99.3776 66.9208H98.511L98.0377 65.8114H95.8307L95.3513 66.9208H94.5107L96.5643 62.293Z" fill="#FDFDFD"/>
</g>
<defs>
<clipPath id="clip0_1_9499">
<rect width="101.515" height="67" fill="white"/>
</clipPath>
</defs>
</svg>
