<svg width="1704" height="744" viewBox="0 0 1704 744" fill="none" xmlns="http://www.w3.org/2000/svg">
<g clip-path="url(#clip0_8_2367)">
<g opacity="0.33">
<path d="M1206.12 746.221C1206.75 745.983 1207.43 745.898 1208.1 745.971C1208.77 746.044 1209.42 746.275 1210.02 746.648L1235.96 762.558C1237.18 763.308 1238.1 764.588 1238.54 766.12C1238.98 767.652 1238.9 769.31 1238.31 770.733L1225.61 801.04C1225 802.449 1223.94 803.503 1222.66 803.972C1221.39 804.454 1219.99 804.316 1218.77 803.587L1192.83 787.676C1191.62 786.926 1190.69 785.645 1190.25 784.112C1189.81 782.579 1189.9 780.92 1190.49 779.496L1203.19 749.192C1203.48 748.487 1203.89 747.861 1204.39 747.351C1204.9 746.841 1205.48 746.457 1206.12 746.221ZM1221.68 800.544C1222.2 800.36 1222.64 799.938 1222.89 799.368L1235.59 769.064C1235.83 768.482 1235.86 767.805 1235.68 767.179C1235.5 766.553 1235.13 766.03 1234.63 765.724L1208.69 749.814C1208.19 749.527 1207.62 749.475 1207.1 749.668C1206.58 749.862 1206.15 750.287 1205.9 750.855L1193.2 781.158C1192.96 781.74 1192.93 782.418 1193.1 783.044C1193.28 783.671 1193.66 784.194 1194.16 784.501L1220.1 800.408C1220.6 800.697 1221.16 800.746 1221.68 800.544L1221.68 800.544Z" fill="#213874" fill-opacity="0.17"/>
<path d="M1169.45 365.98C1170.29 365.664 1171.2 365.62 1172.08 365.852C1172.96 366.084 1173.78 366.584 1174.46 367.302L1196.28 390.435C1197.31 391.522 1197.93 393.033 1198.03 394.636C1198.13 396.239 1197.68 397.804 1196.8 398.989L1177.88 424.214C1177.44 424.8 1176.9 425.275 1176.3 425.611C1175.7 425.946 1175.05 426.136 1174.38 426.17C1173.71 426.204 1173.04 426.081 1172.4 425.808C1171.76 425.535 1171.17 425.117 1170.67 424.578L1148.85 401.443C1148.34 400.907 1147.92 400.259 1147.62 399.537C1147.32 398.815 1147.14 398.033 1147.09 397.237C1147.04 396.44 1147.13 395.645 1147.34 394.896C1147.55 394.147 1147.89 393.461 1148.34 392.877L1167.25 367.663C1167.84 366.877 1168.59 366.296 1169.45 365.98ZM1174.7 422.476C1175.04 422.347 1175.35 422.11 1175.59 421.79L1194.51 396.564C1194.87 396.081 1195.05 395.443 1195.01 394.789C1194.97 394.136 1194.72 393.521 1194.3 393.078L1172.47 369.942C1172.05 369.516 1171.51 369.294 1170.96 369.323C1170.42 369.351 1169.91 369.628 1169.54 370.096L1150.62 395.314C1150.44 395.548 1150.3 395.825 1150.21 396.127C1150.12 396.43 1150.09 396.752 1150.11 397.074C1150.13 397.4 1150.2 397.72 1150.32 398.015C1150.45 398.31 1150.62 398.575 1150.83 398.793L1172.66 421.936C1172.94 422.229 1173.27 422.433 1173.63 422.527C1173.99 422.621 1174.36 422.603 1174.7 422.473L1174.7 422.476Z" fill="#213874" fill-opacity="0.17"/>
<path d="M1461.45 256.301C1462.08 256.062 1462.75 255.975 1463.42 256.045C1464.09 256.115 1464.74 256.34 1465.34 256.707L1491.29 272.626C1492.5 273.378 1493.43 274.658 1493.87 276.188C1494.31 277.718 1494.22 279.375 1493.64 280.798L1480.93 311.113C1480.34 312.534 1479.28 313.6 1478 314.079C1476.72 314.557 1475.31 314.407 1474.1 313.663L1448.15 297.748C1447.55 297.379 1447.01 296.875 1446.56 296.264C1446.12 295.653 1445.78 294.948 1445.56 294.188C1445.34 293.429 1445.25 292.63 1445.29 291.838C1445.34 291.045 1445.51 290.275 1445.81 289.571L1458.5 259.265C1458.8 258.559 1459.21 257.934 1459.72 257.426C1460.22 256.917 1460.81 256.535 1461.45 256.301ZM1477.02 310.654C1477.28 310.558 1477.52 310.403 1477.73 310.196C1477.93 309.989 1478.1 309.734 1478.22 309.448L1490.92 279.137C1491.16 278.555 1491.19 277.879 1491.01 277.254C1490.83 276.628 1490.45 276.105 1489.96 275.797L1464.02 259.885C1463.52 259.602 1462.95 259.552 1462.43 259.745C1461.91 259.939 1461.48 260.361 1461.22 260.927L1448.53 291.229C1448.41 291.516 1448.34 291.83 1448.32 292.152C1448.3 292.475 1448.34 292.801 1448.43 293.11C1448.52 293.42 1448.66 293.707 1448.84 293.956C1449.02 294.205 1449.24 294.41 1449.49 294.561L1475.44 310.476C1475.93 310.781 1476.5 310.845 1477.02 310.654Z" fill="#213874" fill-opacity="0.17"/>
<path d="M1413.03 274.343C1413.67 274.104 1414.34 274.017 1415.01 274.088C1415.67 274.159 1416.33 274.386 1416.93 274.757L1442.88 290.67C1444.09 291.42 1445.02 292.7 1445.46 294.232C1445.9 295.763 1445.81 297.421 1445.22 298.845L1432.53 329.155C1432.23 329.861 1431.83 330.488 1431.32 330.999C1430.82 331.509 1430.23 331.894 1429.6 332.13C1428.96 332.369 1428.29 332.455 1427.62 332.382C1426.95 332.309 1426.29 332.079 1425.69 331.704L1399.75 315.792C1399.14 315.423 1398.61 314.918 1398.16 314.307C1397.72 313.696 1397.38 312.99 1397.16 312.231C1396.94 311.471 1396.85 310.672 1396.89 309.88C1396.93 309.087 1397.11 308.317 1397.4 307.612L1410.1 277.304C1410.4 276.601 1410.81 275.977 1411.31 275.469C1411.81 274.961 1412.4 274.578 1413.03 274.343ZM1428.61 328.698C1428.87 328.603 1429.11 328.447 1429.31 328.24C1429.52 328.034 1429.69 327.779 1429.8 327.492L1442.5 297.182C1442.74 296.601 1442.78 295.924 1442.6 295.299C1442.42 294.674 1442.04 294.151 1441.55 293.845L1415.6 277.933C1415.1 277.649 1414.54 277.598 1414.02 277.792C1413.5 277.985 1413.07 278.408 1412.81 278.973L1400.12 309.28C1399.87 309.86 1399.84 310.537 1400.02 311.162C1400.2 311.787 1400.58 312.31 1401.07 312.615L1427.01 328.53C1427.26 328.681 1427.53 328.774 1427.8 328.802C1428.08 328.831 1428.35 328.795 1428.61 328.698Z" fill="#213874" fill-opacity="0.17"/>
<path d="M1707.52 597.566C1707.9 597.423 1708.3 597.334 1708.71 597.3L1737.5 595.204C1738.17 595.156 1738.85 595.264 1739.49 595.523C1740.13 595.782 1740.72 596.186 1741.24 596.713C1741.75 597.24 1742.18 597.879 1742.49 598.594C1742.8 599.309 1742.99 600.086 1743.05 600.88L1745.63 635.043C1745.69 635.838 1745.62 636.634 1745.42 637.386C1745.22 638.139 1744.89 638.833 1744.46 639.429C1744.03 640.025 1743.5 640.511 1742.91 640.86C1742.31 641.208 1741.66 641.412 1740.99 641.459L1712.23 643.55C1711.56 643.601 1710.88 643.494 1710.24 643.236C1709.6 642.978 1709.01 642.573 1708.49 642.046C1707.98 641.52 1707.55 640.88 1707.24 640.164C1706.93 639.448 1706.74 638.67 1706.68 637.875L1704.1 603.711C1704 602.36 1704.28 601.021 1704.9 599.907C1705.52 598.792 1706.45 597.967 1707.53 597.562L1707.52 597.566ZM1741.21 637.775C1741.57 637.64 1741.89 637.391 1742.13 637.054C1742.31 636.812 1742.44 636.53 1742.52 636.224C1742.6 635.917 1742.63 635.593 1742.6 635.27L1740.03 601.1C1739.98 600.446 1739.71 599.835 1739.29 599.401C1738.86 598.967 1738.31 598.746 1737.76 598.787L1709 600.878C1708.45 600.927 1707.94 601.228 1707.59 601.718C1707.41 601.961 1707.28 602.244 1707.2 602.552C1707.11 602.859 1707.09 603.184 1707.11 603.509L1709.69 637.676C1709.71 638 1709.79 638.317 1709.92 638.608C1710.04 638.9 1710.22 639.161 1710.43 639.376C1710.64 639.591 1710.88 639.756 1711.14 639.862C1711.4 639.967 1711.68 640.01 1711.95 639.989L1740.72 637.898C1740.89 637.883 1741.06 637.844 1741.22 637.781L1741.21 637.775Z" fill="#213874" fill-opacity="0.17"/>
<path d="M1637.01 220.877C1637.44 220.717 1637.89 220.627 1638.35 220.611L1667.16 219.409C1667.83 219.382 1668.5 219.512 1669.14 219.792C1669.77 220.072 1670.36 220.496 1670.86 221.041C1671.37 221.585 1671.78 222.239 1672.07 222.964C1672.37 223.69 1672.54 224.473 1672.58 225.269L1674.4 259.471C1674.49 261.077 1674.03 262.638 1673.14 263.812C1672.24 264.987 1670.98 265.679 1669.62 265.737L1640.8 266.942C1640.13 266.97 1639.46 266.84 1638.82 266.561C1638.19 266.281 1637.6 265.858 1637.1 265.314C1636.59 264.771 1636.18 264.118 1635.89 263.393C1635.59 262.668 1635.42 261.885 1635.38 261.09L1633.55 226.893C1633.49 225.637 1633.75 224.398 1634.31 223.347C1634.86 222.296 1635.69 221.484 1636.66 221.024C1636.77 220.972 1636.89 220.923 1637.01 220.877ZM1669.98 262.034C1670.41 261.871 1670.78 261.545 1671.03 261.104C1671.29 260.664 1671.41 260.134 1671.38 259.594L1669.56 225.389C1669.54 225.063 1669.47 224.743 1669.35 224.447C1669.23 224.151 1669.06 223.884 1668.85 223.661C1668.65 223.439 1668.41 223.266 1668.15 223.151C1667.89 223.037 1667.61 222.984 1667.34 222.995L1638.52 224.197C1638.24 224.208 1637.98 224.282 1637.73 224.417C1637.48 224.552 1637.26 224.744 1637.08 224.982C1636.9 225.219 1636.76 225.499 1636.67 225.804C1636.59 226.108 1636.55 226.432 1636.57 226.757L1638.39 260.954C1638.41 261.279 1638.48 261.598 1638.6 261.894C1638.72 262.19 1638.89 262.456 1639.09 262.678C1639.3 262.9 1639.54 263.073 1639.8 263.188C1640.05 263.302 1640.33 263.355 1640.6 263.344L1669.43 262.146C1669.62 262.135 1669.8 262.094 1669.97 262.025L1669.98 262.034Z" fill="#213874" fill-opacity="0.17"/>
<path d="M1603.12 265.091C1603.54 264.932 1603.99 264.841 1604.44 264.821L1633.27 263.629C1633.94 263.6 1634.62 263.729 1635.25 264.007C1635.89 264.286 1636.48 264.709 1636.98 265.253C1637.48 265.796 1637.89 266.449 1638.19 267.175C1638.48 267.9 1638.66 268.683 1638.7 269.479L1640.53 303.691C1640.61 305.291 1640.15 306.846 1639.26 308.018C1638.37 309.191 1637.11 309.886 1635.77 309.954L1606.93 311.149C1605.58 311.204 1604.25 310.619 1603.23 309.522C1602.21 308.426 1601.59 306.908 1601.51 305.302L1599.68 271.102C1599.62 269.845 1599.88 268.605 1600.44 267.554C1601 266.502 1601.82 265.691 1602.8 265.232C1602.9 265.179 1603.01 265.132 1603.12 265.091ZM1636.09 306.255C1636.52 306.093 1636.9 305.765 1637.15 305.321C1637.41 304.878 1637.53 304.344 1637.5 303.8L1635.68 269.598C1635.66 269.274 1635.59 268.955 1635.47 268.659C1635.35 268.363 1635.18 268.097 1634.98 267.875C1634.77 267.653 1634.54 267.481 1634.28 267.367C1634.02 267.253 1633.74 267.201 1633.47 267.213L1604.64 268.404C1604.4 268.415 1604.18 268.472 1603.96 268.573C1603.56 268.761 1603.23 269.092 1603 269.521C1602.77 269.95 1602.66 270.456 1602.69 270.969L1604.51 305.169C1604.53 305.493 1604.6 305.812 1604.72 306.108C1604.84 306.403 1605.01 306.669 1605.21 306.889C1605.63 307.337 1606.18 307.576 1606.73 307.554L1635.55 306.361C1635.74 306.353 1635.92 306.318 1636.09 306.254L1636.09 306.255Z" fill="#213874" fill-opacity="0.17"/>
<path d="M975.155 668.335C976.881 667.692 978.128 667.5 979.083 667.73C982.127 668.478 1031.95 689.31 1096.75 716.441C1131.22 730.873 1160.98 743.337 1164.22 744.532C1165.88 745.19 1167.4 746.3 1168.65 747.771C1169.9 749.242 1170.85 751.033 1171.42 752.998L1184.91 800.075C1185.45 801.961 1185.62 803.955 1185.41 805.908C1185.21 807.86 1184.63 809.718 1183.72 811.342C1182.81 812.966 1181.6 814.313 1180.17 815.281C1178.74 816.249 1177.13 816.813 1175.47 816.929L1041.6 837.307L1054.6 898.906C1054.65 899.115 1054.73 899.313 1054.84 899.485C1054.95 899.658 1055.09 899.802 1055.25 899.91C1055.41 900.017 1055.59 900.085 1055.77 900.108C1055.95 900.132 1056.13 900.112 1056.3 900.049L1126 873.715C1127.1 873.305 1128.3 873.433 1129.34 874.071C1130.39 874.709 1131.18 875.804 1131.56 877.116L1141.56 911.975C1141.94 913.287 1141.86 914.708 1141.35 915.924C1140.84 917.141 1139.94 918.054 1138.84 918.464L1061.45 947.672C1059.79 948.29 1058.02 948.417 1056.29 948.042C1054.56 947.666 1052.92 946.8 1051.51 945.517L1020.48 917.244C1018.48 915.421 1017.05 912.857 1016.44 909.981L995.388 812.968C994.717 809.84 994.625 806.596 995.118 803.461C995.611 800.326 996.677 797.375 998.243 794.813C999.809 792.251 1001.84 790.14 1004.18 788.626C1006.53 787.112 1009.15 786.232 1011.84 786.047L1130.24 773.654L985.429 716.069C980.501 718.105 964.626 726.026 958.914 729.051C957.777 737.678 952.196 809.579 952.253 824.453L952.201 824.921C952.117 825.333 951.948 825.71 951.71 826.021C951.471 826.332 951.171 826.567 950.834 826.706C949.523 827.195 948.113 826.267 947.365 825.648L943.81 822.614C932.058 812.605 927.661 808.862 920.132 800.684C919.374 799.839 918.767 798.823 918.347 797.7C917.927 796.577 917.704 795.37 917.692 794.154C917.351 780.755 923.557 712.036 926.668 694.784C926.904 693.459 928.137 691.524 929.701 690.718C938.221 686.313 971.855 669.566 975.155 668.335ZM1177.11 812.92C1179.1 812.175 1180.74 810.515 1181.67 808.305C1182.59 806.095 1182.73 803.516 1182.04 801.134L1168.56 754.074C1168.15 752.654 1167.46 751.359 1166.56 750.295C1165.66 749.231 1164.56 748.428 1163.36 747.95C1160.1 746.746 1130.31 734.273 1095.82 719.829C1047.63 699.648 981.633 672.015 978.551 671.244C978.407 671.209 977.796 671.139 976.137 671.758C973.112 672.886 940.002 689.346 930.984 694.003C930.391 694.369 929.915 694.948 929.622 695.66C926.543 712.746 920.382 780.88 920.72 794.142C920.722 794.87 920.849 795.593 921.093 796.268C921.338 796.943 921.695 797.556 922.143 798.069C929.533 806.092 933.889 809.803 945.532 819.715L949.071 822.739L949.24 822.868C949.539 805.56 955.109 731.422 956.123 727.236L956.309 726.466L956.923 726.137C962.133 723.356 980.34 714.241 984.879 712.469L985.353 712.293L1144.89 775.752L1012.14 789.63C1009.88 789.779 1007.69 790.512 1005.71 791.777C1003.74 793.043 1002.04 794.81 1000.72 796.957C999.406 799.103 998.509 801.577 998.093 804.207C997.677 806.836 997.753 809.557 998.314 812.181L1019.37 909.21C1019.81 911.282 1020.84 913.13 1022.28 914.44L1053.31 942.703C1054.33 943.624 1055.51 944.246 1056.76 944.515C1058 944.785 1059.28 944.693 1060.47 944.249L1137.84 915.049C1138.01 914.987 1138.17 914.886 1138.3 914.752C1138.43 914.618 1138.54 914.453 1138.62 914.268C1138.7 914.082 1138.74 913.879 1138.76 913.669C1138.77 913.46 1138.74 913.249 1138.69 913.048L1128.69 878.19C1128.57 877.785 1128.32 877.448 1128 877.251C1127.68 877.055 1127.31 877.015 1126.97 877.142L1057.27 903.475C1056.71 903.688 1056.1 903.758 1055.51 903.681C1054.91 903.603 1054.33 903.38 1053.8 903.025C1053.27 902.67 1052.81 902.191 1052.44 901.619C1052.07 901.046 1051.8 900.392 1051.65 899.698L1037.84 834.253L1039.48 834.006L1175.09 813.36C1175.78 813.312 1176.46 813.164 1177.11 812.92Z" fill="#213874" fill-opacity="0.17"/>
<path d="M886.886 551.495C888.228 550.986 889.686 551.012 891.04 551.569L1289.16 706.35L1304.96 761.491L1302.14 760.391L909.005 607.739C908.642 607.586 908.248 607.601 907.903 607.782C907.557 607.964 907.288 608.297 907.15 608.714L906.274 611.455C905.804 612.92 905.329 614.396 904.851 615.883C898.61 635.213 890.052 665.81 884.718 701.828C877.018 753.933 875.342 788.348 875.046 804.669L988.751 928.905C989.555 929.68 990.174 930.693 990.54 931.837L999.209 961.717C999.479 962.576 999.603 963.486 999.574 964.392C999.545 965.298 999.363 966.184 999.04 966.996C998.321 968.854 997.143 970.175 995.734 970.701C994.645 971.076 889.887 1007.1 885.236 1008.84C879.892 1010.83 876.405 1008.2 876.264 1008.1C876.188 1008.04 845.187 980.913 844.122 979.972C842.518 978.564 842.127 976.926 841.955 975.511C832.372 898.415 835.171 820.817 835.293 817.654C835.266 817.068 835.308 816.484 835.42 815.917C835.407 815.58 835.405 815.392 835.405 815.392C835.346 811.523 837.76 763.707 848.24 692.906C857.841 627.98 872.614 580.186 877.861 568.346C878.014 568.031 878.098 567.846 878.134 567.745L882.985 555.541C883.363 554.581 883.904 553.728 884.575 553.033C885.245 552.337 886.032 551.814 886.886 551.495ZM1286.79 709.18L890.15 554.963C889.297 554.633 888.382 554.672 887.569 555.07C886.756 555.469 886.097 556.203 885.712 557.14L880.906 569.223C880.788 569.538 880.654 569.844 880.504 570.139C875.342 581.759 860.748 629.088 851.21 693.611C840.771 764.145 838.366 811.59 838.419 815.436C838.426 815.461 838.42 815.595 838.429 815.818L838.519 816.133L838.386 816.695C838.314 816.996 838.287 817.311 838.307 817.626L838.308 817.829C838.271 818.616 835.248 897.12 844.94 975.092C845.066 976.125 845.282 976.594 845.869 977.113C846.927 978.053 877.928 1005.17 877.928 1005.17C877.928 1005.17 880.327 1006.85 884.248 1005.39C888.932 1003.64 990.459 968.731 994.777 967.246C995.574 966.948 996.067 965.957 996.284 965.396C996.442 965.001 996.53 964.569 996.542 964.127C996.555 963.685 996.491 963.243 996.355 962.826L987.696 932.97C987.511 932.428 987.209 931.95 986.821 931.585L871.984 806.14L871.997 805.316C872.255 789.248 873.862 754.344 881.728 701.116C887.103 664.822 895.722 633.995 902.011 614.522C902.492 613.038 902.965 611.567 903.43 610.108L904.301 607.377C904.709 606.113 905.514 605.095 906.551 604.533C907.588 603.971 908.779 603.907 909.879 604.354L1300.18 755.91L1286.79 709.18ZM873.705 863.656L876.398 866.637C897.128 889.478 919.328 912.979 942.381 936.486C942.896 936.97 943.295 937.606 943.536 938.328C943.776 939.049 943.848 939.829 943.746 940.584C943.648 941.349 943.372 942.06 942.95 942.64C942.528 943.22 941.976 943.645 941.354 943.869L882.299 962.858C881.783 963.041 881.235 963.081 880.698 962.974C880.16 962.867 879.647 962.616 879.197 962.241C878.737 961.861 878.354 961.364 878.077 960.787C877.8 960.21 877.637 959.57 877.599 958.915L873.705 863.656ZM940.435 940.421C940.521 940.387 940.597 940.325 940.654 940.242C940.712 940.159 940.748 940.059 940.76 939.952C940.784 939.822 940.774 939.686 940.733 939.561C940.691 939.435 940.619 939.326 940.527 939.247L940.476 939.197C918.389 916.661 897.081 894.149 877.09 872.198L880.624 958.807C880.635 958.91 880.665 959.009 880.712 959.097C880.758 959.186 880.821 959.261 880.895 959.318C880.966 959.376 881.046 959.413 881.13 959.429C881.214 959.444 881.299 959.437 881.38 959.407L940.435 940.421Z" fill="#213874" fill-opacity="0.17"/>
<path d="M913.365 479.985C915.529 479.173 917.876 479.22 920.056 480.121L1265.41 622.901L1281.38 678.599L902.133 522.656C901.294 522.31 900.516 521.773 899.844 521.076C899.172 520.379 898.619 519.535 898.216 518.594C897.813 517.652 897.569 516.631 897.497 515.588C897.425 514.546 897.527 513.503 897.797 512.518L906.697 487.725C907.214 485.896 908.085 484.244 909.242 482.901C910.399 481.559 911.81 480.56 913.365 479.985ZM1263.05 625.684L919.144 483.503C917.583 482.859 915.902 482.825 914.352 483.407C913.223 483.829 912.201 484.559 911.365 485.54C910.529 486.521 909.903 487.726 909.537 489.059L900.638 513.857C900.379 514.91 900.477 516.053 900.912 517.045C901.132 517.561 901.434 518.023 901.802 518.405C902.17 518.786 902.596 519.079 903.056 519.266L1276.57 672.86L1263.05 625.684Z" fill="#213874" fill-opacity="0.17"/>
<path d="M1332.46 67.3779L1367.37 56.5253L1409.97 205.224L1460.31 142.672L1386.24 101.632L1399.02 48.2735L1458.78 40.6775C1501.33 32.8138 1559.61 33.9575 1575.61 35.7405C1577.39 35.9478 1578.85 36.8762 1579.85 38.4272C1581.13 40.4199 1581.53 43.2654 1581 46.6498C1580.64 49.0586 1563.05 200.772 1559.41 232.169L1650.38 118.335L1590.54 73.8991L1613.6 37.9076L1614.76 38.703C1617.13 40.3345 1672.77 78.6449 1675.19 80.6958C1677.77 82.8745 1679.34 85.5158 1679.84 88.5329L1683.5 110.643C1685.42 122.217 1687.29 133.517 1687.48 134.569C1687.73 136.349 1687.65 138.164 1687.22 139.875C1686.79 141.586 1686.04 143.146 1685.01 144.437C1682.95 146.993 1567.86 286.019 1562.96 291.934C1561.22 294.39 1558.36 295.745 1555.93 295.206L1520.72 284.796C1519.4 284.478 1518.22 283.556 1517.44 282.231C1516.66 280.906 1516.35 279.284 1516.57 277.72L1536.84 82.2737C1521.33 81.7765 1497.65 82.2311 1468.72 86.6342C1479.06 92.4989 1486.82 96.9772 1488.63 98.1307C1492.08 100.35 1494.65 104.348 1495.35 108.565L1497.75 123.225C1499.82 135.741 1502.14 149.718 1502.51 152.015C1503.45 157.574 1501.58 160.676 1500.12 162.521L1496.41 167.156C1467.92 202.845 1429.86 250.477 1428.38 252.122C1425.48 255.363 1422.53 256.504 1420.07 255.326C1418.17 254.429 1399.09 247.97 1381.87 242.224C1379.41 241.415 1377.27 238.148 1376.69 236.102C1376.27 234.66 1345.88 128.592 1341.64 113.763L1331.63 117.494L1331.48 117.552C1326.65 119.352 1322.01 121.169 1317.33 123.088L1377.99 335.584C1378.43 337.121 1378.34 338.784 1377.74 340.208C1377.14 341.632 1376.09 342.701 1374.8 343.182L1347.03 353.487C1346.4 353.718 1345.74 353.798 1345.07 353.721C1344.41 353.644 1343.77 353.412 1343.17 353.039C1342.55 352.653 1341.99 352.126 1341.53 351.489C1341.07 350.852 1340.72 350.117 1340.49 349.326L1299.61 206.101L1212.98 335.65C1212.1 336.953 1211 338.008 1209.73 338.743C1208.47 339.478 1207.08 339.875 1205.65 339.907C1204.23 339.947 1202.8 339.617 1201.48 338.941C1200.16 338.265 1198.97 337.258 1198 335.992L1126.99 244.297C1126.51 244.726 1126.03 245.158 1125.56 245.598C1114.27 255.915 1103.15 266.84 1092.47 278.092L1160.52 348.808L1160.34 349.035C1161.31 350.136 1161.9 351.633 1161.98 353.209C1162.05 354.784 1161.61 356.316 1160.74 357.479L1141.81 382.719C1140.98 383.819 1139.83 384.507 1138.58 384.651C1137.32 384.795 1136.06 384.386 1135.02 383.501L1134.88 383.703L1063.98 310.028C1055 320.728 1046.18 331.892 1037.72 343.254L1095.44 383.385L1102.72 417.431L1080.77 469.703L1241.67 537.805L1257.82 594.178L1254.91 592.922L924.768 450.553L935.635 426.542C936.154 425.405 990.544 309.104 1100.79 208.168C1199.42 117.885 1291.84 82.5326 1324.27 70.4343C1327.48 69.2367 1330.09 68.2613 1332.05 67.5957L1332.46 67.3779ZM1333.18 70.9732L1333.08 71.0104C1331.14 71.6838 1328.51 72.6549 1325.27 73.8585C1292.97 85.9082 1200.92 121.11 1102.69 211.028C992.914 311.522 938.828 427.16 938.324 428.297L929.13 448.636L1252.98 588.288L1239.31 540.567L1076.53 471.693L1099.51 416.937L1092.83 385.696L1033.02 344.11L1034.22 342.49C1043.4 330.093 1053.01 317.918 1062.79 306.304L1063.77 305.134L1134.46 378.586L1134.62 378.354L1136.58 380.483C1137 380.922 1137.54 381.151 1138.09 381.123C1138.64 381.094 1139.16 380.809 1139.52 380.33L1158.45 355.049C1158.81 354.564 1158.99 353.922 1158.95 353.266C1158.91 352.609 1158.65 351.992 1158.23 351.548L1155.97 349.173L1156.13 348.972L1087.9 278.052L1089.15 276.72C1100.27 264.936 1111.88 253.504 1123.66 242.741C1124.49 241.967 1125.35 241.201 1126.2 240.434L1127.29 239.456L1200.21 333.61C1200.88 334.486 1201.7 335.183 1202.62 335.652C1203.53 336.12 1204.52 336.348 1205.51 336.32C1206.49 336.295 1207.46 336.019 1208.33 335.51C1209.21 335 1209.98 334.27 1210.59 333.368L1300.66 198.661L1343.35 348.282C1343.55 348.965 1343.96 349.534 1344.5 349.866C1344.74 350.019 1345 350.116 1345.26 350.151C1345.52 350.186 1345.79 350.158 1346.04 350.07L1373.82 339.762C1374.34 339.565 1374.77 339.129 1375.01 338.547C1375.26 337.966 1375.29 337.287 1375.11 336.66L1313.51 120.826L1314.88 120.258C1319.98 118.146 1325.24 116.079 1330.49 114.119L1330.64 114.062L1343.51 109.263L1344 110.966C1344 110.966 1379.1 233.466 1379.54 235.007C1379.88 236.199 1381.39 238.345 1382.6 238.743C1393.36 242.334 1418.63 250.81 1421.11 251.971C1422.38 252.577 1424.3 251.634 1426.26 249.447C1427.85 247.677 1477.77 185.169 1494.18 164.629L1497.88 159.994C1499.06 158.515 1500.18 156.479 1499.53 152.591C1499.15 150.288 1496.84 136.314 1494.77 123.803L1492.34 109.131C1491.82 105.97 1489.85 102.949 1487.21 101.25C1485.19 99.9574 1475.39 94.3222 1462.84 87.2318L1458.27 84.6474L1463.21 83.8355C1495.72 78.4988 1522.11 78.1142 1538.53 78.7319L1540.23 78.7937L1519.55 278.346C1519.49 278.669 1519.5 279.003 1519.55 279.329C1519.61 279.654 1519.73 279.964 1519.89 280.24C1520.05 280.516 1520.25 280.752 1520.49 280.935C1520.73 281.118 1520.99 281.243 1521.27 281.303L1556.47 291.716C1557.75 291.998 1559.56 291.07 1560.68 289.495C1561.96 287.951 1680.73 144.487 1682.79 141.933C1683.49 141.047 1684 139.98 1684.3 138.811C1684.59 137.643 1684.66 136.403 1684.5 135.184C1684.32 134.141 1682.45 122.831 1680.52 111.252L1676.86 89.1419C1676.52 87.0861 1675.38 85.2253 1673.47 83.6119C1671.6 82.0362 1631.31 54.2215 1614.44 42.6072L1594.97 73.0058L1655.13 117.681L1555.1 242.859L1555.76 237.224C1558.01 217.826 1577.74 47.6358 1578.03 45.8999C1578.38 43.5887 1578.18 41.6876 1577.46 40.5543C1576.99 39.8453 1576.31 39.4294 1575.41 39.3221C1559.52 37.5559 1501.62 36.4219 1459.27 44.2458L1401.4 51.5912L1389.87 99.7236L1465.42 141.604L1408.75 212.017L1365.44 60.8567L1333.56 70.7733L1333.18 70.9732ZM1282.59 134.776L1287.46 151.763L1286.97 152.509L1206.92 275.119C1206.3 276.065 1205.51 276.829 1204.59 277.358C1203.68 277.886 1202.68 278.165 1201.65 278.174C1200.63 278.184 1199.61 277.923 1198.66 277.412C1197.72 276.9 1196.88 276.151 1196.2 275.217L1153.88 216.717L1155.25 215.612C1194.28 184.175 1236.61 157.223 1281.08 135.506L1282.59 134.776ZM1284.07 151.002L1280.8 139.57C1237.82 160.66 1196.82 186.76 1158.37 217.494L1198.47 272.916C1198.85 273.445 1199.32 273.869 1199.85 274.158C1200.38 274.446 1200.96 274.59 1201.54 274.58C1202.11 274.576 1202.68 274.419 1203.2 274.122C1203.71 273.824 1204.16 273.392 1204.51 272.858L1284.07 151.002ZM1011.65 374.755L1064.03 411.166L1044.36 458.09L978.691 430.274L979.703 428.372C985.937 416.643 996.403 398.029 1010.86 375.972L1011.65 374.755ZM1060.05 412.508L1012.47 379.436C999.251 399.7 989.465 416.946 983.305 428.437L1042.81 453.635L1060.05 412.508Z" fill="#213874" fill-opacity="0.17"/>
<path d="M1769.88 81.9589L1806.87 99.6236L1805.94 101.439L1633.78 435.217L1616.95 376.486L1769.88 81.9589ZM1802.41 101.321L1771.17 86.4029L1620.26 377.014L1634.54 426.771L1802.41 101.321Z" fill="#213874" fill-opacity="0.17"/>
<path d="M1836.56 117.58C1838.37 116.904 1840.23 116.901 1841.53 117.61C1874.89 136.025 1914.62 164.041 1947.82 192.541C1949.44 193.933 1950.74 196.787 1951.15 199.845C1951.56 202.904 1950.99 205.784 1949.56 207.972C1948.42 209.708 1933.9 231.991 1917.38 257.416C1931 271.343 1949.91 290.589 1964.82 305.429C1985.38 325.907 2011 356.133 2025.15 373.214L2069.02 317.524L2082.53 332.794C2148.58 425.641 2186.06 515.858 2211.33 584.083C2212.36 586.916 2211.24 588.706 2209.85 589.439C2203.72 592.61 2181.37 604.201 2180.09 604.869C2179.29 605.276 2178.25 605.683 2177.22 605.172C2176.18 604.661 2175.74 603.631 2175.43 602.761C2152.88 538.303 2111 457.53 2065.93 391.493L1991.25 485.897C1990.91 486.38 1990.49 486.776 1990.01 487.061C1989.54 487.347 1989.02 487.516 1988.48 487.56C1988.01 487.586 1987.54 487.5 1987.1 487.306C1986.66 487.113 1986.25 486.817 1985.9 486.435L1961.83 459.768C1960.92 458.817 1959.64 456.714 1961.78 453.667L1998.49 407.041C1994.17 401.805 1990.11 396.944 1986.14 392.261L1950.28 441.237C1949.93 441.71 1949.51 442.094 1949.03 442.365C1948.56 442.637 1948.04 442.791 1947.5 442.818C1946.98 442.848 1946.45 442.754 1945.95 442.54C1945.45 442.327 1944.99 441.998 1944.6 441.573L1920.53 416.694C1920.13 416.271 1919.8 415.761 1919.56 415.192C1919.32 414.623 1919.17 414.007 1919.13 413.379C1919.09 412.751 1919.15 412.124 1919.32 411.533C1919.49 410.941 1919.75 410.399 1920.1 409.939L1957.22 359.239C1951.24 352.68 1945.81 346.949 1941.03 342.139L1905 397.174C1904.35 398.153 1903.39 398.779 1902.34 398.918C1901.28 399.056 1900.21 398.695 1899.36 397.914L1874.27 374.488C1873.42 373.696 1872.86 372.547 1872.72 371.291C1872.57 370.036 1872.85 368.778 1873.49 367.791L1910.44 311.333C1904.58 305.378 1898.83 299.51 1893.53 294.096C1874.14 323.969 1857.14 350.086 1857.14 350.086C1856.82 350.58 1856.43 350.993 1855.98 351.301C1855.52 351.608 1855.02 351.805 1854.5 351.879C1853.97 351.954 1853.44 351.904 1852.93 351.734C1852.42 351.563 1851.93 351.275 1851.51 350.886L1826.22 327.768C1825.36 326.986 1824.79 325.843 1824.64 324.589C1824.48 323.335 1824.75 322.074 1825.38 321.081L1899.69 206.3L1850.93 175.768L1657.64 517.358L1641.2 459.974L1641.58 459.262C1673.95 399.66 1735.05 291.167 1823.19 136.794C1828.41 127.627 1831.57 122.113 1831.8 121.676C1832.91 119.656 1834.71 118.269 1836.56 117.58ZM2025.27 378.407L2024.15 377.049C2010.3 360.303 1983.93 329.086 1962.91 308.156C1947.59 292.895 1928.04 272.989 1914.33 258.98L1913.22 257.853L1914.09 256.519C1931.26 230.111 1945.97 207.531 1947.15 205.729C1948.34 203.927 1948.35 201.784 1948.16 200.329C1947.86 198.056 1946.86 196.105 1946.09 195.452C1913.05 167.061 1873.5 139.182 1840.31 120.863C1839.18 120.236 1835.82 121.02 1834.37 123.689C1834.11 124.162 1831.13 129.39 1825.71 138.875C1737.94 292.614 1676.99 400.836 1644.53 460.563L1658.51 509.325L1849.89 171.109L1904.29 205.177L1827.81 323.293C1827.66 323.54 1827.59 323.851 1827.63 324.159C1827.67 324.467 1827.81 324.748 1828.02 324.942L1853.31 348.055C1853.52 348.248 1853.79 348.334 1854.05 348.295C1854.32 348.256 1854.55 348.095 1854.71 347.847C1854.72 347.843 1872.28 320.851 1892.07 290.371L1893.03 288.896L1894.25 290.145C1900.21 296.246 1906.8 302.966 1913.49 309.767L1914.6 310.9L1875.9 370.021C1875.75 370.266 1875.68 370.578 1875.71 370.888C1875.75 371.199 1875.89 371.484 1876.1 371.68L1901.19 395.106C1901.4 395.298 1901.67 395.384 1901.93 395.345C1902.19 395.306 1902.43 395.146 1902.59 394.899L1903.98 392.756L1940.35 337.226L1941.79 338.256C1947.16 343.61 1953.4 350.194 1960.33 357.823L1961.43 359.023L1922.39 412.333C1922.3 412.449 1922.24 412.584 1922.19 412.732C1922.15 412.88 1922.14 413.037 1922.15 413.194C1922.16 413.352 1922.19 413.506 1922.25 413.648C1922.31 413.791 1922.39 413.918 1922.5 414.024L1946.56 438.9C1946.66 439.008 1946.77 439.092 1946.89 439.147C1947.02 439.202 1947.15 439.227 1947.28 439.22C1947.41 439.212 1947.54 439.172 1947.66 439.104C1947.78 439.036 1947.88 438.94 1947.97 438.822L1985.91 386.999L1987.07 388.367C1991.73 393.85 1996.49 399.557 2001.64 405.802L2002.66 407.043L1964.06 456.061C1963.66 456.645 1963.63 456.891 1963.63 456.917C1963.63 456.917 1963.69 457.006 1963.81 457.133L1987.88 483.824C1987.93 483.878 1987.98 483.92 1988.04 483.948C1988.1 483.976 1988.16 483.988 1988.22 483.985C1988.52 483.924 1988.79 483.731 1988.96 483.446L2066 386.038L2067.11 387.655C2112.78 454.248 2155.35 536.169 2178.18 601.455C2178.22 601.565 2178.26 601.673 2178.31 601.778C2178.47 601.722 2178.63 601.654 2178.78 601.573C2180.05 600.91 2202.41 589.306 2208.53 586.147C2208.6 586.117 2208.65 586.076 2208.71 586.024C2208.69 586.031 2208.67 585.817 2208.54 585.431C2183.36 517.468 2146.02 427.585 2080.27 335.135L2069.17 322.614L2025.27 378.407Z" fill="#213874" fill-opacity="0.17"/>
<path d="M1759.37 388.054C1762.98 386.708 1767.33 386.768 1769.44 387.815C1772.39 389.287 1774.31 390.373 1774.39 390.419C1778.78 392.762 1819.98 420.193 1872.12 471.682C1928.72 527.541 1966.43 575.868 1966.71 576.271L1980.78 595.536L1899.8 671.579L2076.05 601.666C2081.89 571.441 2084.15 562.373 2085.33 558.881C2084.45 557.409 2082.6 554.198 2079.07 548.059C2069.66 531.649 2052.15 501.102 2045.61 492.015L2044.76 490.814L2052.48 446.623C2053.16 442.791 2056.85 441.973 2060.2 442.854L2061.15 443.098L2061.76 444.034C2062.43 445.102 2103.7 514.847 2120.3 543.423C2121.77 545.969 2123.81 553.955 2122.83 558.631C2120.85 567.99 2117.11 585.757 2113.93 600.824C2111.19 613.841 2108.87 624.843 2108.48 626.669C2107.71 630.326 2105.13 636.954 2096.49 640.178L1834.73 737.693C1828.91 739.864 1823.75 737.771 1821.26 732.23L1812.01 711.587C1810.69 708.687 1810.28 705.352 1810.86 702.19C1811.44 699.028 1812.96 696.249 1815.15 694.36L1922.66 587.583C1915.04 578.049 1905.36 567.052 1893.16 554.061L1821.26 643.617C1818.55 646.747 1815.68 645.65 1814.03 643.771L1792.61 619.286C1791.31 617.847 1790.78 615.849 1791.28 614.22C1791.47 613.585 1792.09 612.174 1793.94 611.872L1864.29 524.286C1858.99 518.95 1853.28 513.262 1847.31 507.357C1811.26 471.776 1788.28 451.38 1773.13 441.552L1762.76 456.96C1775.98 468.222 1801.29 489.876 1818.04 504.202C1827.35 512.168 1834.08 517.926 1834.47 518.251C1835.66 519.263 1836.98 521.271 1837.26 523.491C1837.35 524.14 1837.33 524.801 1837.2 525.431C1837.06 526.061 1836.81 526.647 1836.47 527.149L1828.81 538.171C1823.92 545.219 1818.89 552.459 1818.22 553.427C1816.44 556.006 1812.9 558.943 1808.34 559.413C1807.22 559.516 1796.76 561.625 1783.51 564.277C1751.5 570.686 1697.94 581.413 1682.19 583.183C1678.4 583.613 1675.14 579.429 1674.78 578.951L1674.57 578.668L1664.91 544.921C1664.79 544.185 1663.77 537.625 1666.03 533.747C1676.39 516.022 1717.75 450.251 1739.97 414.915C1748.09 402.012 1753.96 392.685 1754.48 391.785C1755.51 390.033 1757.32 388.819 1759.37 388.054ZM1976.45 594.973L1964.46 578.56C1964.14 578.132 1926.35 529.78 1870.23 474.401C1814.24 419.113 1773.53 393.837 1773.2 393.66C1773.15 393.631 1771.21 392.544 1768.35 391.109C1765.79 389.842 1758.75 390.882 1757 393.881C1756.45 394.833 1750.88 403.704 1742.43 417.113C1720.22 452.438 1678.87 518.174 1668.54 535.844C1667.25 538.053 1667.61 542.52 1667.87 544.205L1677.24 576.861C1678.09 577.885 1680.09 579.809 1681.83 579.608C1697.47 577.856 1750.97 567.139 1782.94 560.736C1798.59 557.599 1806.82 555.957 1807.99 555.832C1811.06 555.505 1813.87 553.813 1815.87 551.095C1816.55 550.121 1821.58 542.883 1826.46 535.839L1834.12 524.818C1834.2 524.691 1834.25 524.545 1834.28 524.389C1834.3 524.233 1834.3 524.071 1834.26 523.915C1834.13 522.868 1833.4 521.685 1832.76 521.149C1832.36 520.815 1825.98 515.352 1816.31 507.08C1798.99 492.261 1772.51 469.607 1759.72 458.717L1758.4 457.592L1772.28 436.975L1773.39 437.675C1788.72 447.346 1812.1 467.988 1849.2 504.614C1855.66 511 1861.8 517.118 1867.45 522.818L1868.69 524.07L1795.36 615.382L1794.74 615.396C1794.52 615.378 1794.3 615.432 1794.11 615.552C1794.16 616.005 1794.36 616.422 1794.66 616.716L1816.1 641.22C1817.53 642.848 1818.7 641.508 1819.07 641.052L1892.93 549.063L1894.04 550.235C1907.44 564.459 1917.88 576.343 1925.95 586.56L1927.06 587.96L1817.05 697.201C1815.42 698.591 1814.28 700.647 1813.85 702.991C1813.41 705.335 1813.7 707.811 1814.68 709.965L1823.94 730.587C1826.47 736.235 1831.66 735.028 1833.76 734.241L2095.52 636.726C2102.8 634.009 2104.94 628.635 2105.56 625.674C2105.95 623.846 2108.27 612.849 2111.01 599.835C2114.19 584.766 2117.93 566.998 2119.91 557.642C2120.63 554.215 2118.96 547.319 2117.83 545.368C2101.42 517.116 2061.98 450.448 2059.48 446.306C2058.75 446.159 2055.77 445.666 2055.46 447.433L2048.04 489.905C2054.78 499.348 2072.19 529.719 2081.58 546.085C2084.93 551.934 2087.83 556.99 2088.21 557.536L2088.83 558.431L2088.44 559.48C2086.95 563.242 2083.89 577.23 2078.83 603.495L2078.65 604.442L1884.22 681.566L1976.45 594.973ZM1738.26 487.542L1739.44 488.586C1751.12 498.901 1775.23 520.243 1775.23 520.243L1777.87 522.578L1700.82 543.169L1738.26 487.542ZM1770.82 520.759C1764.52 515.181 1748.39 500.91 1738.86 492.484L1708.64 537.377L1770.82 520.759Z" fill="#213874" fill-opacity="0.17"/>
</g>
<g opacity="0.33">
<path d="M1260.98 315.728L1263.11 317.078C1263.4 317.259 1291.29 334.881 1298.81 338.486L1317.46 331.528L1325.62 359.949L1297.42 370.467L1292.97 367.318C1292.92 367.284 1287.85 363.697 1281.58 359.167C1278.97 375.829 1272.45 386.533 1262.65 390.189L1231.19 401.922L1223.04 373.502L1250.37 363.308C1260.01 359.712 1260.25 348.431 1260.48 337.521C1260.51 336.112 1260.54 334.716 1260.6 333.353L1260.98 315.728ZM1315.58 336.031L1298.79 342.294L1298.3 342.07C1292.41 339.428 1270.83 325.954 1263.88 321.582L1263.61 333.593C1263.56 334.963 1263.53 336.336 1263.5 337.718C1263.25 349.285 1262.96 362.4 1251.34 366.736L1226.88 375.862L1233.06 397.427L1261.66 386.776C1273.25 382.453 1277.46 367.632 1278.96 355.959L1279.29 353.356L1281.22 354.757C1288.31 359.903 1294.41 364.217 1294.47 364.264L1297.73 366.573L1321.77 357.604L1315.58 336.031Z" fill="#213874" fill-opacity="0.17"/>
</g>
<g opacity="0.33">
<path d="M1239.55 428.019L1277.43 413.914L1277.92 415.612L1415.18 894.877L1377.3 908.991L1376.81 907.293L1239.55 428.019ZM1275.55 418.395L1243.38 430.376L1379.17 904.521L1411.35 892.532L1275.55 418.395Z" fill="#213874" fill-opacity="0.17"/>
<path d="M1356.16 384.664L1392.76 371.024L1393.75 374.457L1392.32 375.009L1357.14 388.095L1356.16 384.664Z" fill="#213874" fill-opacity="0.17"/>
<path d="M1385.38 492.328L1423.41 478.155L1424.4 481.585L1422.97 482.16L1386.37 495.798L1385.38 492.328Z" fill="#213874" fill-opacity="0.17"/>
<path d="M1468.04 643.215L1491.39 634.537L1492.37 637.97L1469.03 646.664L1468.04 643.215Z" fill="#213874" fill-opacity="0.17"/>
<path d="M1503.67 629.935L1528.45 620.725L1529.43 624.155L1528 624.71L1504.67 633.404L1503.67 629.935Z" fill="#213874" fill-opacity="0.17"/>
<path d="M1297.25 406.035L1391.3 371.019L1565.58 306.112L1578.58 351.502L1577.16 352.032L1405.72 415.875L1411.46 435.866L1584.33 371.507L1597.35 416.872L1595.91 417.407L1386.52 495.371L1367.81 429.987L1348.47 437.2L1473.48 873.598L1435.3 887.841L1434.81 886.14L1297.25 406.035ZM1563.7 310.602L1301.09 408.389L1437.14 883.332L1469.61 871.24L1344.6 434.842L1369.66 425.495L1388.37 490.882L1593.47 414.515L1582.43 375.989L1409.56 440.349L1401.86 413.519L1403.29 412.988L1574.72 349.146L1563.7 310.602Z" fill="#213874" fill-opacity="0.17"/>
<path d="M1297.5 408.433L1300.36 407.373L1312.85 450.955L1309.99 452.021L1309.48 450.315L1297.5 408.433Z" fill="#213874" fill-opacity="0.17"/>
<path d="M1432.47 656.345L1528.33 620.676L1548.94 692.684L1524.2 701.878L1512.2 659.913L1501.37 663.93L1513.38 705.933L1488.64 715.124L1476.63 673.141L1465.8 677.159L1477.82 719.179L1453.08 728.372L1432.47 656.345ZM1526.46 625.163L1436.33 658.699L1454.98 723.873L1474 716.812L1461.97 674.789L1478.53 668.647L1490.55 710.626L1509.56 703.563L1497.54 661.561L1514.1 655.419L1526.1 697.381L1545.11 690.315L1526.46 625.163Z" fill="#213874" fill-opacity="0.17"/>
<path d="M1393.21 518.757L1508.56 475.828L1509.97 475.26L1546.46 461.649L1626.37 740.403L1588.43 754.537L1521.54 521.188L1501.94 528.47L1522.19 599.208L1426.45 634.872L1406.2 564.115L1405.7 562.42L1393.21 518.757ZM1510.95 478.725L1397.05 521.114L1408.1 559.718L1408.58 561.348L1428.35 630.397L1517.03 597.402L1518.35 596.868L1498.1 526.125L1523.42 516.719L1590.32 750.061L1622.53 738.065L1544.58 466.155L1512.37 478.151L1510.95 478.725ZM1440.3 547.639L1465.9 538.125L1475.14 570.348L1449.55 579.893L1440.3 547.639ZM1464.01 542.613L1444.14 549.996L1451.43 575.397L1471.29 567.988L1464.01 542.613Z" fill="#213874" fill-opacity="0.17"/>
<path d="M1413.28 589.75L1416.14 588.684L1416.64 590.388L1428.63 632.27L1425.77 633.332L1413.28 589.75Z" fill="#213874" fill-opacity="0.17"/>
<path d="M1566.12 454.232L1604.07 440.079L1604.55 441.779L1703.57 787.442L1701.35 788.269L1699.97 788.949L1529.67 852.432L1493.18 866.045L1460.44 751.921L1555.55 716.446L1575.26 785.236L1652.67 756.38L1566.12 454.232ZM1602.19 444.584L1569.96 456.588L1656.5 758.743L1573.37 789.733L1553.66 720.94L1464.28 754.28L1475.83 794.528L1483.51 821.327L1495.06 861.576L1528.71 849.024L1697.57 786.075L1699.74 785.101L1602.19 444.584ZM1507.55 780.792L1532.48 771.492L1541.15 801.713L1516.2 811.018L1507.55 780.792ZM1530.61 775.995L1511.4 783.16L1518.11 806.555L1537.33 799.384L1530.61 775.995Z" fill="#213874" fill-opacity="0.17"/>
</g>
</g>
<defs>
<clipPath id="clip0_8_2367">
<rect width="1704" height="744" fill="white"/>
</clipPath>
</defs>
</svg>
