<svg width="1440" height="440" viewBox="0 0 1440 440" fill="none" xmlns="http://www.w3.org/2000/svg">
<g clip-path="url(#clip0_1_14374)">
<rect width="1440" height="440" fill="#1F3673"/>
<g opacity="0.33">
<path d="M-49.7179 413.744L406.825 413.908C408.094 413.909 409.31 414.416 410.207 415.316C411.103 416.216 411.607 417.436 411.608 418.709V452.356C411.606 453.629 411.101 454.848 410.204 455.747C409.307 456.647 408.091 457.153 406.823 457.154L-49.2372 456.987C-51.0306 456.985 -52.7499 456.269 -54.0178 454.996C-55.2857 453.724 -55.9986 451.999 -56 450.2V420.029C-55.9957 418.361 -55.3319 416.762 -54.1542 415.584C-52.9766 414.405 -51.3812 413.744 -49.7179 413.744ZM406.817 453.847C407.211 453.846 407.589 453.689 407.867 453.409C408.146 453.13 408.302 452.751 408.303 452.356V418.709C408.302 418.313 408.146 417.935 407.867 417.655C407.589 417.376 407.211 417.219 406.817 417.218L-49.7179 417.051C-50.5063 417.051 -51.2625 417.365 -51.8202 417.924C-52.3779 418.483 -52.6916 419.241 -52.6923 420.032V450.203C-52.6902 451.124 -52.3247 452.006 -51.6757 452.658C-51.0268 453.309 -50.1471 453.677 -49.229 453.68L406.817 453.847Z" fill="white" fill-opacity="0.15"/>
<path d="M313.55 344.897H345.029C346.505 344.903 347.918 345.494 348.961 346.541C350.004 347.588 350.591 349.007 350.596 350.487V382.063C350.592 383.542 350.005 384.96 348.963 386.007C347.921 387.054 346.509 387.644 345.035 387.65H313.545C312.069 387.646 310.654 387.056 309.611 386.009C308.568 384.961 307.981 383.541 307.979 382.06V350.484C307.981 349.003 308.569 347.583 309.614 346.536C310.658 345.489 312.074 344.899 313.55 344.897ZM345.018 384.354C345.62 384.351 346.195 384.11 346.62 383.682C347.045 383.255 347.284 382.677 347.285 382.074V350.498C347.282 349.893 347.041 349.314 346.615 348.886C346.188 348.459 345.61 348.218 345.007 348.215H313.537C312.934 348.216 312.357 348.457 311.931 348.884C311.505 349.311 311.265 349.891 311.264 350.495V382.071C311.265 382.676 311.505 383.256 311.931 383.683C312.356 384.111 312.934 384.352 313.537 384.354H345.018Z" fill="white" fill-opacity="0.15"/>
<path d="M403.335 322.583C404.064 322.581 404.787 322.724 405.461 323.002C406.136 323.281 406.749 323.691 407.265 324.207L429.518 346.55C430.559 347.6 431.144 349.021 431.144 350.502C431.144 351.984 430.559 353.405 429.518 354.455L407.254 376.772C405.236 378.803 401.398 378.808 399.374 376.772L377.128 354.438C376.086 353.389 375.5 351.968 375.5 350.487C375.5 349.006 376.086 347.585 377.128 346.536L399.391 324.216C399.908 323.696 400.523 323.284 401.2 323.004C401.877 322.723 402.603 322.58 403.335 322.583ZM404.941 326.553C404.504 326.142 403.928 325.914 403.329 325.914C402.731 325.914 402.155 326.142 401.718 326.553L379.46 348.871C379.034 349.299 378.795 349.879 378.795 350.484C378.795 351.089 379.034 351.67 379.46 352.098L401.707 374.432C402.51 375.241 404.127 375.235 404.922 374.432L427.174 352.115C427.6 351.686 427.839 351.106 427.839 350.501C427.839 349.896 427.6 349.315 427.174 348.887L404.941 326.553Z" fill="white" fill-opacity="0.15"/>
<path d="M403.357 259.227C404.089 259.226 404.814 259.371 405.489 259.653C406.165 259.935 406.778 260.349 407.293 260.871L429.539 283.205C430.579 284.255 431.163 285.675 431.163 287.155C431.163 288.635 430.579 290.055 429.539 291.105L407.276 313.425C406.223 314.458 404.807 315.033 403.335 315.025C401.864 315.031 400.45 314.455 399.399 313.422L377.155 291.088C376.114 290.038 375.53 288.617 375.53 287.136C375.53 285.655 376.114 284.234 377.155 283.183L399.418 260.866C399.935 260.346 400.548 259.933 401.224 259.652C401.9 259.371 402.625 259.226 403.357 259.227ZM403.335 311.713C403.933 311.723 404.512 311.495 404.944 311.08L427.207 288.762C427.631 288.333 427.87 287.753 427.87 287.148C427.87 286.544 427.631 285.963 427.207 285.534L404.96 263.2C404.526 262.787 403.95 262.557 403.351 262.557C402.753 262.557 402.177 262.787 401.743 263.2L379.482 285.518C379.057 285.947 378.819 286.528 378.819 287.133C378.819 287.738 379.057 288.319 379.482 288.748L401.729 311.08C402.16 311.494 402.736 311.721 403.332 311.713H403.335Z" fill="white" fill-opacity="0.15"/>
<path d="M993.621 340.617C994.073 340.619 994.523 340.675 994.962 340.785L1025.52 348.325C1026.23 348.5 1026.9 348.813 1027.49 349.247C1028.08 349.681 1028.58 350.228 1028.96 350.856C1029.34 351.483 1029.59 352.18 1029.7 352.906C1029.81 353.632 1029.78 354.372 1029.6 355.085L1022.08 385.746C1021.91 386.459 1021.6 387.13 1021.17 387.722C1020.73 388.313 1020.19 388.814 1019.56 389.194C1018.94 389.574 1018.24 389.827 1017.52 389.938C1016.8 390.048 1016.06 390.015 1015.35 389.839L984.782 382.296C983.348 381.942 982.112 381.031 981.347 379.764C980.582 378.496 980.35 376.976 980.701 375.536L988.221 344.875C988.517 343.662 989.209 342.583 990.188 341.811C991.167 341.039 992.376 340.619 993.621 340.617ZM1016.68 386.691C1017.19 386.693 1017.68 386.522 1018.08 386.207C1018.48 385.892 1018.76 385.45 1018.88 384.954L1026.4 354.293C1026.47 354.002 1026.49 353.7 1026.44 353.404C1026.4 353.108 1026.29 352.824 1026.14 352.568C1025.98 352.312 1025.78 352.089 1025.54 351.913C1025.3 351.736 1025.02 351.609 1024.73 351.539L994.17 343.996C993.879 343.923 993.576 343.91 993.28 343.957C992.984 344.004 992.7 344.11 992.446 344.27C991.933 344.585 991.564 345.091 991.422 345.678L983.903 376.339C983.765 376.924 983.862 377.539 984.173 378.052C984.485 378.565 984.985 378.934 985.566 379.079L1016.13 386.623C1016.31 386.667 1016.49 386.69 1016.68 386.691Z" fill="white" fill-opacity="0.15"/>
<path d="M968.091 292.875C968.536 292.876 968.98 292.928 969.413 293.031L1000 300.577C1000.71 300.753 1001.38 301.066 1001.97 301.501C1002.56 301.935 1003.06 302.482 1003.44 303.11C1003.82 303.738 1004.07 304.434 1004.18 305.159C1004.29 305.884 1004.26 306.624 1004.08 307.337L996.565 337.998C996.391 338.711 996.079 339.383 995.646 339.975C995.213 340.566 994.667 341.066 994.041 341.446C993.415 341.826 992.72 342.079 991.997 342.189C991.273 342.299 990.535 342.265 989.824 342.089L959.264 334.548C958.553 334.375 957.883 334.062 957.294 333.628C956.704 333.194 956.206 332.647 955.828 332.019C955.447 331.392 955.194 330.695 955.083 329.968C954.973 329.242 955.008 328.501 955.186 327.789L962.705 297.128C963.001 295.915 963.694 294.838 964.672 294.067C965.651 293.296 966.858 292.876 968.102 292.875H968.091ZM991.157 338.946C991.57 338.944 991.974 338.83 992.326 338.614C992.582 338.461 992.804 338.258 992.98 338.017C993.156 337.776 993.282 337.502 993.351 337.212L1000.87 306.545C1001.01 305.958 1000.92 305.338 1000.61 304.821C1000.29 304.304 999.789 303.933 999.204 303.789L968.643 296.248C968.057 296.112 967.44 296.21 966.925 296.522C966.669 296.677 966.446 296.881 966.269 297.123C966.093 297.364 965.965 297.639 965.895 297.93L958.376 328.594C958.304 328.884 958.29 329.186 958.334 329.482C958.379 329.778 958.481 330.062 958.635 330.318C958.79 330.574 958.994 330.798 959.236 330.975C959.477 331.152 959.751 331.28 960.042 331.351L990.603 338.891C990.785 338.934 990.971 338.954 991.157 338.951V338.946Z" fill="white" fill-opacity="0.15"/>
<path d="M1157.49 101.579C1158.4 101.578 1159.29 101.798 1160.09 102.219C1160.89 102.64 1161.57 103.25 1162.08 103.996L1179.94 129.999C1180.77 131.22 1181.09 132.724 1180.83 134.181C1180.56 135.639 1179.73 136.93 1178.51 137.772L1152.59 155.681C1151.99 156.098 1151.31 156.392 1150.6 156.546C1149.88 156.699 1149.14 156.71 1148.42 156.577C1147.7 156.444 1147.02 156.169 1146.4 155.77C1145.79 155.37 1145.26 154.853 1144.84 154.248L1127.02 128.292L1126.99 128.253L1129.6 126.456C1129.38 126.347 1129.14 126.289 1128.9 126.285C1128.66 126.281 1128.42 126.332 1128.2 126.434C1127.9 126.565 1127.65 126.784 1127.49 127.061C1127.32 127.338 1127.24 127.659 1127.27 127.982C1127.25 127.87 1127.21 127.708 1127.16 127.494C1126.76 125.779 1125.93 122.206 1128.42 120.483L1154.34 102.574C1155.26 101.927 1156.37 101.58 1157.49 101.579ZM1149.44 153.366C1149.9 153.366 1150.35 153.225 1150.72 152.963L1176.65 135.049C1177.15 134.705 1177.49 134.178 1177.6 133.583C1177.71 132.989 1177.58 132.375 1177.24 131.876L1159.38 105.87C1159.03 105.386 1158.5 105.056 1157.91 104.948C1157.33 104.839 1156.72 104.962 1156.22 105.289L1130.3 123.198C1130.01 123.401 1129.78 124.179 1130.38 126.735C1130.45 127.005 1130.5 127.28 1130.52 127.557L1147.57 152.385C1147.74 152.632 1147.96 152.842 1148.21 153.005C1148.46 153.168 1148.74 153.279 1149.03 153.333C1149.17 153.355 1149.3 153.364 1149.44 153.36V153.366Z" fill="white" fill-opacity="0.15"/>
<path d="M1191.79 155.509C1192.15 155.508 1192.52 155.544 1192.88 155.615C1193.6 155.758 1194.28 156.042 1194.89 156.452C1195.5 156.862 1196.02 157.388 1196.43 158.002L1213.89 184.265C1214.71 185.499 1215 187.006 1214.72 188.458C1214.43 189.91 1213.58 191.188 1212.35 192.014L1186.17 209.531C1185.56 209.939 1184.88 210.223 1184.16 210.366C1183.44 210.509 1182.7 210.509 1181.99 210.366C1181.27 210.222 1180.59 209.939 1179.98 209.531C1179.37 209.123 1178.85 208.599 1178.44 207.988L1160.98 181.722C1160.16 180.489 1159.86 178.98 1160.15 177.527C1160.44 176.073 1161.29 174.795 1162.52 173.971L1188.7 156.451C1189.48 155.923 1190.39 155.606 1191.33 155.53C1191.48 155.517 1191.63 155.509 1191.79 155.509ZM1183.07 207.166C1183.52 207.167 1183.96 207.033 1184.33 206.783L1210.52 189.263C1211.02 188.926 1211.37 188.404 1211.48 187.81C1211.6 187.217 1211.48 186.602 1211.14 186.098L1193.68 159.838C1193.52 159.587 1193.3 159.371 1193.06 159.203C1192.81 159.036 1192.53 158.919 1192.23 158.86C1192.02 158.819 1191.81 158.807 1191.6 158.824C1191.22 158.855 1190.86 158.984 1190.54 159.197L1164.35 176.733C1163.84 177.069 1163.5 177.591 1163.38 178.185C1163.26 178.778 1163.38 179.394 1163.72 179.898L1181.18 206.164C1181.35 206.412 1181.56 206.625 1181.81 206.791C1182.05 206.956 1182.33 207.071 1182.62 207.128C1182.77 207.157 1182.92 207.17 1183.07 207.166Z" fill="white" fill-opacity="0.15"/>
<path d="M1226.5 209.827C1226.87 209.827 1227.24 209.862 1227.6 209.931C1228.31 210.071 1229 210.353 1229.61 210.76C1230.22 211.167 1230.74 211.691 1231.15 212.301L1248.68 238.523C1249.08 239.133 1249.37 239.817 1249.51 240.537C1249.66 241.257 1249.66 241.998 1249.52 242.719C1249.38 243.439 1249.1 244.125 1248.69 244.736C1248.29 245.347 1247.76 245.872 1247.15 246.28L1221.02 263.869C1219.79 264.69 1218.29 264.99 1216.84 264.705C1215.39 264.419 1214.11 263.571 1213.29 262.345L1195.75 236.118C1194.93 234.887 1194.63 233.379 1194.92 231.926C1195.2 230.472 1196.05 229.191 1197.27 228.363L1223.41 210.775C1224.24 210.223 1225.19 209.898 1226.18 209.835L1226.5 209.827ZM1217.91 261.504C1218.36 261.504 1218.81 261.37 1219.18 261.118L1245.31 243.532C1245.56 243.367 1245.78 243.154 1245.94 242.904C1246.11 242.655 1246.22 242.374 1246.28 242.08C1246.34 241.785 1246.34 241.481 1246.28 241.187C1246.22 240.892 1246.1 240.612 1245.93 240.362L1228.4 214.145C1228.24 213.896 1228.03 213.682 1227.78 213.515C1227.53 213.349 1227.25 213.235 1226.95 213.178C1226.76 213.141 1226.57 213.127 1226.37 213.137C1225.97 213.164 1225.58 213.299 1225.24 213.526L1199.11 231.109C1198.61 231.447 1198.26 231.97 1198.15 232.564C1198.03 233.158 1198.15 233.774 1198.49 234.276L1216.02 260.501C1216.23 260.811 1216.51 261.065 1216.84 261.239C1217.17 261.414 1217.54 261.505 1217.91 261.504Z" fill="white" fill-opacity="0.15"/>
<path d="M995.531 414.615H1027C1028.48 414.62 1029.89 415.21 1030.94 416.257C1031.98 417.304 1032.57 418.722 1032.57 420.202V451.781C1032.57 453.262 1031.98 454.681 1030.94 455.728C1029.89 456.776 1028.48 457.366 1027 457.371L995.525 457.357C994.048 457.355 992.632 456.765 991.588 455.717C990.543 454.669 989.955 453.249 989.953 451.767L989.967 420.191C989.969 418.71 990.556 417.29 991.6 416.243C992.644 415.196 994.06 414.606 995.536 414.604L995.531 414.615ZM1027 454.072C1027.6 454.069 1028.18 453.828 1028.6 453.4C1029.03 452.973 1029.27 452.393 1029.27 451.789V420.213C1029.27 419.609 1029.02 419.03 1028.6 418.604C1028.17 418.177 1027.6 417.936 1026.99 417.933H995.522C994.92 417.935 994.343 418.177 993.917 418.604C993.491 419.032 993.251 419.611 993.25 420.216V451.789C993.251 452.394 993.491 452.974 993.918 453.401C994.344 453.829 994.922 454.07 995.525 454.072H1027Z" fill="white" fill-opacity="0.15"/>
<path d="M944.654 414.596H976.132C977.607 414.601 979.02 415.192 980.063 416.239C981.106 417.285 981.694 418.703 981.699 420.183V451.762C981.696 453.242 981.109 454.661 980.065 455.708C979.022 456.755 977.608 457.345 976.132 457.349H944.651C943.174 457.347 941.757 456.757 940.714 455.708C939.67 454.66 939.084 453.238 939.084 451.756V420.183C939.087 418.702 939.674 417.282 940.718 416.235C941.762 415.187 943.177 414.598 944.654 414.596ZM976.121 454.052C976.723 454.049 977.3 453.808 977.725 453.38C978.15 452.953 978.39 452.374 978.391 451.77V420.196C978.388 419.592 978.146 419.013 977.72 418.585C977.293 418.158 976.716 417.917 976.113 417.914H944.643C944.04 417.915 943.463 418.155 943.037 418.582C942.611 419.01 942.371 419.589 942.37 420.194V451.77C942.37 452.374 942.609 452.954 943.035 453.382C943.46 453.81 944.038 454.051 944.64 454.052H976.121Z" fill="white" fill-opacity="0.15"/>
<path d="M958.693 -32.2115C959.184 -32.2113 959.674 -32.1459 960.148 -32.017L990.515 -23.6681C991.222 -23.475 991.884 -23.1439 992.462 -22.6936C993.041 -22.2434 993.525 -21.6829 993.887 -21.0444C994.25 -20.4059 994.482 -19.7019 994.573 -18.9728C994.663 -18.2438 994.609 -17.5041 994.413 -16.7961L986.107 13.6649C985.711 15.0874 984.772 16.296 983.494 17.0289C982.216 17.7618 980.702 17.96 979.279 17.5805L948.912 9.23428C947.487 8.84171 946.276 7.89753 945.545 6.60933C944.814 5.32113 944.623 3.79443 945.014 2.36501L953.326 -28.0823C953.632 -29.2014 954.276 -30.1976 955.171 -30.9337C956.065 -31.6698 957.165 -32.1096 958.318 -32.1924C958.439 -32.2061 958.567 -32.2115 958.693 -32.2115ZM980.718 14.4568C981.219 14.4562 981.705 14.2915 982.103 13.9877C982.502 13.684 982.79 13.2579 982.925 12.7744L991.234 -17.6756C991.314 -17.9639 991.337 -18.2652 991.301 -18.5623C991.264 -18.8593 991.17 -19.1463 991.023 -19.4066C990.876 -19.6669 990.678 -19.8954 990.443 -20.0789C990.207 -20.2624 989.938 -20.3974 989.65 -20.476L959.285 -28.8249C959.041 -28.8908 958.787 -28.9149 958.534 -28.8961C958.063 -28.8619 957.614 -28.6823 957.249 -28.3821C956.884 -28.0819 956.62 -27.6757 956.494 -27.2192L948.182 3.22813C948.102 3.51606 948.079 3.81725 948.115 4.11413C948.152 4.411 948.247 4.69757 948.396 4.95708C948.696 5.48369 949.192 5.86979 949.775 6.03119L980.128 14.3746C980.321 14.4275 980.521 14.4552 980.721 14.4568H980.718Z" fill="white" fill-opacity="0.15"/>
<path d="M1308.22 288.814C1308.88 288.813 1309.55 288.934 1310.17 289.17L1339.65 300.254C1341.03 300.775 1342.15 301.826 1342.76 303.176C1343.37 304.526 1343.42 306.064 1342.9 307.452L1331.85 337.017C1331.6 337.705 1331.21 338.336 1330.71 338.872C1330.21 339.409 1329.61 339.842 1328.94 340.145C1328.27 340.448 1327.55 340.616 1326.82 340.64C1326.09 340.663 1325.36 340.541 1324.68 340.28L1298.54 330.454L1288.14 358.296C1287.62 359.681 1286.57 360.803 1285.22 361.416C1283.88 362.03 1282.35 362.085 1280.96 361.57L1280.88 361.537L1251.49 350.481C1250.11 349.963 1248.99 348.915 1248.37 347.567C1247.76 346.219 1247.7 344.681 1248.21 343.292L1259.27 313.718C1259.52 313.031 1259.91 312.401 1260.41 311.865C1260.91 311.329 1261.51 310.898 1262.17 310.597C1262.84 310.293 1263.56 310.123 1264.29 310.098C1265.03 310.073 1265.76 310.194 1266.44 310.452L1292.58 320.289L1302.99 292.436C1303.39 291.374 1304.11 290.458 1305.04 289.811C1305.97 289.163 1307.07 288.815 1308.21 288.811L1308.22 288.814ZM1326.64 337.335C1326.97 337.335 1327.29 337.264 1327.58 337.126C1327.85 337.005 1328.1 336.83 1328.3 336.612C1328.5 336.395 1328.66 336.139 1328.76 335.86L1339.82 306.301C1339.92 306.021 1339.97 305.722 1339.96 305.423C1339.95 305.123 1339.88 304.829 1339.76 304.556C1339.64 304.283 1339.46 304.037 1339.24 303.833C1339.02 303.628 1338.77 303.469 1338.49 303.364L1309.01 292.28C1308.45 292.07 1307.83 292.093 1307.28 292.343C1306.73 292.593 1306.3 293.05 1306.09 293.615L1294.52 324.561L1265.3 313.562C1264.74 313.35 1264.11 313.37 1263.56 313.62C1263.02 313.869 1262.59 314.326 1262.38 314.891L1251.32 344.467C1251.11 345.032 1251.13 345.657 1251.38 346.206C1251.63 346.755 1252.09 347.182 1252.65 347.393L1282.16 358.496C1282.73 358.696 1283.34 358.666 1283.89 358.413C1284.43 358.159 1284.85 357.703 1285.06 357.142L1296.61 326.207L1325.83 337.198C1326.09 337.292 1326.36 337.339 1326.64 337.335Z" fill="white" fill-opacity="0.15"/>
<path d="M186.685 115.926C188.674 115.926 190.028 116.164 190.954 116.677C193.899 118.321 239.526 152.725 298.872 197.508C330.43 221.327 357.684 241.897 360.699 243.995C362.232 245.111 363.481 246.574 364.343 248.265C365.206 249.956 365.657 251.828 365.662 253.728L365.645 299.213C365.644 301.034 365.229 302.832 364.432 304.469C363.635 306.106 362.478 307.54 361.047 308.661C359.616 309.783 357.949 310.563 356.173 310.943C354.397 311.322 352.558 311.292 350.795 310.852L205.389 285.052L200.528 343.053C200.513 343.251 200.538 343.449 200.603 343.637C200.668 343.824 200.771 343.996 200.905 344.141C201.039 344.287 201.202 344.403 201.382 344.482C201.563 344.562 201.759 344.604 201.956 344.604L282.353 344.311C283.618 344.311 284.832 344.814 285.727 345.711C286.623 346.607 287.127 347.823 287.13 349.092V382.776C287.128 384.043 286.625 385.258 285.731 386.154C284.837 387.05 283.625 387.554 282.361 387.554L193.098 387.85C191.188 387.85 189.306 387.384 187.615 386.492C185.924 385.601 184.475 384.31 183.391 382.732L159.541 347.95C158.006 345.708 157.286 343.005 157.504 340.294L164.561 248.76C164.797 245.812 165.67 242.95 167.119 240.374C168.568 237.798 170.559 235.569 172.953 233.843C175.347 232.116 178.088 230.934 180.984 230.377C183.88 229.82 186.862 229.903 189.723 230.619L316.64 258.35L183.126 160.937C177.391 161.109 158.503 162.855 151.656 163.635C147.898 170.795 120.622 231.739 116.241 244.741L116.047 245.132C115.837 245.464 115.548 245.739 115.208 245.933C114.867 246.127 114.483 246.234 114.092 246.245C112.581 246.245 111.39 244.976 110.798 244.193L108.004 240.387C98.7607 227.824 95.3028 223.124 89.9084 213.534C89.3724 212.55 89.0434 211.466 88.9419 210.349C88.8404 209.232 88.9686 208.106 89.3185 207.04C92.9648 195.234 119.94 137.271 128.327 123.225C128.969 122.146 130.829 120.858 132.698 120.663C142.88 119.592 182.883 115.926 186.685 115.926ZM353.701 307.888C355.995 307.885 358.195 306.97 359.816 305.341C361.438 303.713 362.349 301.506 362.349 299.204L362.365 253.736C362.363 252.364 362.038 251.011 361.416 249.788C360.794 248.565 359.893 247.507 358.787 246.7C355.752 244.587 328.469 223.999 296.887 200.16C252.762 166.855 192.328 121.247 189.351 119.57C189.212 119.493 188.597 119.233 186.685 119.233C183.2 119.233 143.828 122.82 133.053 123.949C132.327 124.075 131.658 124.425 131.141 124.952C122.835 138.863 96.0813 196.33 92.4732 208.016C92.258 208.651 92.1744 209.324 92.2275 209.993C92.2806 210.662 92.4692 211.313 92.7818 211.907C98.0779 221.316 101.503 225.974 110.661 238.417L113.442 242.209L113.578 242.376C119.057 227.366 146.988 164.466 149.293 161.142L149.717 160.531L150.454 160.443C156.706 159.712 178.377 157.684 183.629 157.616H184.175L331.266 264.954L188.963 233.844C186.565 233.237 184.064 233.163 181.634 233.625C179.204 234.088 176.903 235.076 174.893 236.521C172.882 237.966 171.21 239.834 169.992 241.993C168.775 244.153 168.041 246.553 167.842 249.026L160.787 340.576C160.627 342.529 161.145 344.476 162.253 346.089L186.112 380.863C186.893 381.998 187.937 382.925 189.153 383.566C190.37 384.207 191.724 384.542 193.098 384.543L282.34 384.247C282.533 384.248 282.724 384.21 282.903 384.137C283.082 384.063 283.244 383.955 283.381 383.818C283.518 383.682 283.627 383.519 283.701 383.34C283.776 383.161 283.814 382.969 283.814 382.776V349.092C283.813 348.701 283.657 348.326 283.381 348.05C283.104 347.773 282.73 347.618 282.34 347.618L201.945 347.911C201.291 347.913 200.644 347.778 200.045 347.516C199.445 347.253 198.907 346.869 198.463 346.387C198.019 345.906 197.68 345.337 197.466 344.717C197.253 344.096 197.17 343.439 197.223 342.785L202.385 281.161L204.163 281.479L351.464 307.614C352.196 307.795 352.947 307.887 353.701 307.888Z" fill="white" fill-opacity="0.15"/>
<path d="M129.731 -14.9054C131.279 -14.9124 132.788 -14.4153 134.03 -13.4888L502.013 251.144L501.994 304.4L499.388 302.523L135.956 41.3695C135.625 41.1174 135.21 41.0024 134.796 41.0483C134.383 41.0941 134.003 41.2974 133.735 41.6161L132.006 43.7232C131.079 44.8484 130.145 45.9819 129.204 47.1236C116.943 61.9581 98.9079 85.8705 82.61 115.562C59.0495 158.52 47.0343 188.003 41.8557 202.147L123.069 347.558C123.675 348.496 124.016 349.581 124.055 350.698L124.156 379.592C124.181 380.429 124.038 381.263 123.738 382.044C123.437 382.826 122.984 383.539 122.406 384.143C121.103 385.529 119.483 386.299 117.861 386.299C116.615 386.272 -3.11855 383.609 -8.47471 383.609C-14.6284 383.609 -17.4717 380.181 -17.5892 380.047C-17.6493 379.967 -41.8052 346.21 -42.6328 345.043C-43.8811 343.292 -43.7991 341.735 -43.556 340.445C-30.5166 270.056 -4.44598 203.259 -3.3753 200.538C-3.22904 200.019 -3.01019 199.522 -2.72524 199.064C-2.63783 198.766 -2.58321 198.601 -2.58321 198.601C-1.49067 195.206 15.2907 154.27 47.3238 95.9045C76.6885 42.3778 106.321 5.4832 115.312 -3.1397C115.566 -3.36438 115.708 -3.49867 115.777 -3.57539L124.465 -12.6449C125.145 -13.3591 125.962 -13.9277 126.867 -14.3162C127.772 -14.7047 128.747 -14.9052 129.731 -14.9054ZM498.705 252.843L132.091 -10.8173C131.303 -11.3822 130.34 -11.6467 129.374 -11.5633C128.409 -11.48 127.505 -11.0542 126.825 -10.3624L118.218 -1.38336C118.002 -1.14633 117.771 -0.923027 117.527 -0.714771C108.689 7.74373 79.3816 44.2904 50.2027 97.4855C18.2924 155.632 1.63125 196.247 0.538714 199.62C0.538714 199.645 0.49228 199.76 0.434922 199.957V200.262L0.129013 200.708C-0.0358501 200.947 -0.157861 201.213 -0.231526 201.495L-0.291612 201.673C-0.564745 202.347 -27.1379 269.861 -40.3249 341.05C-40.5024 341.993 -40.4177 342.472 -39.9616 343.116C-39.1422 344.281 -14.9835 378.033 -14.9835 378.033C-14.9835 378.033 -12.9896 380.282 -8.47471 380.282C-3.08031 380.282 112.961 382.863 117.896 382.973C118.814 382.973 119.622 382.269 120.016 381.85C120.298 381.556 120.519 381.208 120.663 380.826C120.808 380.445 120.874 380.038 120.857 379.63L120.759 350.761C120.728 350.228 120.556 349.713 120.262 349.268L38.2312 202.435L38.4907 201.719C43.5546 187.783 55.6435 157.851 79.712 113.967C96.1356 84.0484 114.302 59.9552 126.656 45.011C127.599 43.873 128.53 42.7432 129.45 41.6216L131.17 39.5227C131.972 38.5522 133.113 37.9263 134.36 37.7734C135.607 37.6206 136.865 37.9524 137.876 38.7007L498.686 297.974L498.705 252.843ZM22.8565 253.18L24.7684 256.657C39.5177 283.334 55.5998 311.066 72.5669 339.08C72.9587 339.67 73.1839 340.355 73.2185 341.063C73.2531 341.771 73.0959 342.475 72.7635 343.1C72.4335 343.735 71.9349 344.266 71.3227 344.635C70.7105 345.003 70.0086 345.195 69.2947 345.188L2.19117 342.535C1.59992 342.527 1.01838 342.383 0.491023 342.115C-0.0363382 341.847 -0.495559 341.461 -0.851537 340.987C-1.21648 340.506 -1.46657 339.947 -1.58258 339.354C-1.69859 338.761 -1.67742 338.149 -1.52071 337.565L22.8565 253.18ZM69.3685 341.881C69.4682 341.879 69.5655 341.849 69.6498 341.795C69.734 341.742 69.8021 341.666 69.8464 341.576C69.9097 341.471 69.9403 341.349 69.9345 341.226C69.9287 341.103 69.8866 340.985 69.8137 340.886L69.7754 340.826C53.524 313.973 38.0755 287.395 23.8288 261.734L1.65856 338.456C1.63895 338.549 1.64029 338.645 1.6625 338.737C1.68471 338.83 1.72723 338.916 1.78694 338.99C1.84362 339.063 1.91609 339.122 1.99889 339.163C2.0817 339.204 2.17266 339.225 2.26492 339.225L69.3685 341.881Z" fill="white" fill-opacity="0.15"/>
<path d="M178.374 -69.0295C180.867 -69.0345 183.296 -68.2289 185.295 -66.7334L502.021 170.294L502.013 224.1L153.95 -35.4476C153.18 -36.0228 152.531 -36.7446 152.04 -37.5717C151.549 -38.3988 151.225 -39.315 151.087 -40.2679C150.949 -41.2207 150.999 -42.1915 151.236 -43.1247C151.472 -44.0578 151.889 -44.9351 152.464 -45.7063L169.125 -64.4454C170.209 -65.8742 171.608 -67.0316 173.213 -67.8269C174.817 -68.6223 176.584 -69.0339 178.374 -69.0295ZM498.735 171.954L183.336 -64.0783C181.904 -65.1487 180.165 -65.7254 178.379 -65.7223C177.079 -65.7216 175.797 -65.4172 174.634 -64.8332C173.472 -64.2492 172.461 -63.4016 171.682 -62.3575L155.021 -43.6129C154.437 -42.7782 154.198 -41.749 154.354 -40.7413C154.428 -40.2197 154.605 -39.7181 154.874 -39.2656C155.144 -38.8131 155.5 -38.4187 155.922 -38.1054L498.713 217.524L498.735 171.954Z" fill="white" fill-opacity="0.15"/>
<path d="M436.657 383.526H453.267C455.37 383.526 457.022 385.373 457.192 387.028V387.198V401.372L498.047 401.389C498.722 401.414 499.38 401.604 499.965 401.942C500.55 402.28 501.044 402.756 501.404 403.329L501.592 403.729C501.827 404.452 501.958 405.204 501.98 405.965L501.964 455.833L501.166 456.313C500.019 456.975 498.726 457.343 497.402 457.384H481.2C480.716 457.399 480.234 457.316 479.783 457.14C479.332 456.963 478.921 456.697 478.575 456.357C477.838 455.617 477.45 454.556 477.45 453.285V425.986H457.172V455.852L456.353 456.332C455.204 456.98 453.918 457.345 452.6 457.395H436.379C434.136 457.395 432.631 455.751 432.631 453.299L432.653 387.617C432.667 385.077 434.991 383.526 436.657 383.526ZM453.9 387.346C453.836 387.222 453.746 387.113 453.637 387.027C453.528 386.94 453.402 386.877 453.267 386.842H436.657C436.578 386.861 435.966 387.132 435.966 387.609L435.942 453.29C435.942 454.08 436.152 454.08 436.392 454.08H452.614C453.045 454.055 453.47 453.971 453.878 453.83V422.682H480.749V453.293C480.724 453.548 480.78 453.804 480.908 454.025C480.998 454.072 481.099 454.091 481.2 454.08H497.402C497.832 454.055 498.257 453.972 498.664 453.833L498.683 405.956C498.668 405.623 498.614 405.293 498.522 404.973C498.397 404.833 498.23 404.737 498.047 404.699L453.895 404.682L453.9 387.346Z" fill="white" fill-opacity="0.15"/>
<path d="M494.936 393.539L501.398 403.318C501.733 403.805 501.933 404.372 501.98 404.962V405.973H498.683C498.66 405.55 498.58 405.133 498.445 404.732L494.936 393.539Z" fill="white" fill-opacity="0.15"/>
<path d="M498.049 401.394H500.456L500.934 402.216C501.206 402.697 501.426 403.205 501.592 403.732L505.32 415.514L498.637 405.14C498.504 404.926 498.293 404.773 498.049 404.712V401.394Z" fill="white" fill-opacity="0.15"/>
<path d="M736.78 -292.945L776.31 -291.055L776.259 -147.512L847.254 -185.689L782.483 -245.576L811.687 -287.953L876.094 -275.135C922.683 -268.151 982.936 -248.195 999.048 -241.433C1000.83 -240.674 1002.08 -239.389 1002.65 -237.712C1003.39 -235.558 1002.95 -232.947 1001.4 -230.166C1000.3 -228.182 936.76 -101.595 923.609 -75.3973L1052.16 -145.076L1003.19 -203.297L1037.9 -227.184L1038.87 -226.113C1040.84 -223.921 1087.27 -172.408 1089.18 -169.833C1091.21 -167.093 1092.06 -164.279 1091.68 -161.484L1088.89 -141.01C1087.43 -130.294 1086.01 -119.83 1085.89 -118.852C1085.62 -117.215 1084.99 -115.66 1084.04 -114.307C1083.08 -112.955 1081.83 -111.839 1080.38 -111.048C1077.47 -109.489 916.335 -25.6847 909.477 -22.1199C906.934 -20.5444 903.558 -20.2923 901.184 -21.5555L867.685 -42.0866C866.402 -42.7951 865.45 -43.983 865.035 -45.3921C864.621 -46.8011 864.778 -48.3172 865.472 -49.6107L944.85 -213.465C928.869 -218.945 904.11 -226.253 872.718 -231.823C881.718 -223.346 888.454 -216.915 889.991 -215.32C892.917 -212.262 894.4 -207.938 893.867 -204.034L891.991 -190.468C890.415 -178.878 888.648 -165.936 888.355 -163.81C887.667 -158.659 884.805 -156.56 882.729 -155.428L877.498 -152.59C837.225 -130.735 783.445 -101.576 781.407 -100.625C777.425 -98.7424 774.016 -98.7068 771.812 -100.534C770.102 -101.935 752.193 -113.774 736.004 -124.386C733.682 -125.893 732.44 -129.436 732.44 -131.412C732.44 -132.804 732.478 -235.194 732.483 -249.508H720.971H720.793C715.238 -249.508 709.868 -249.434 704.43 -249.283L704.118 -44.2293C704.115 -42.7468 703.527 -41.3259 702.481 -40.2781C701.436 -39.2303 700.019 -38.6411 698.541 -38.6396L666.584 -38.6889C665.862 -38.6916 665.148 -38.8383 664.483 -39.1206C663.818 -39.4028 663.216 -39.815 662.711 -40.333C662.176 -40.8736 661.751 -41.5149 661.463 -42.2201C661.175 -42.9254 661.028 -43.6808 661.031 -44.443L661.245 -182.651L532.519 -97.8546C531.221 -97.0028 529.755 -96.443 528.22 -96.2136C526.686 -95.9842 525.121 -96.0907 523.631 -96.5257C522.139 -96.9538 520.757 -97.7042 519.584 -98.7242C518.41 -99.7441 517.473 -101.009 516.839 -102.43L470.351 -205.5C469.728 -205.281 469.106 -205.059 468.483 -204.829C453.665 -199.505 438.842 -193.594 424.38 -187.257L474.044 -103.447L473.787 -103.307C474.475 -102.029 474.641 -100.532 474.249 -99.1338C473.857 -97.7352 472.938 -96.5444 471.687 -95.8133L444.474 -79.9594C443.285 -79.2697 441.883 -79.0441 440.538 -79.3257C439.192 -79.6072 437.998 -80.3762 437.182 -81.4856L436.98 -81.3541L385.229 -168.674C372.706 -162.262 360.202 -155.395 348.017 -148.238L396.064 -94.4624L393.475 -62.404L355.067 -23.9558L502.054 87.7803L502.032 142.197L499.383 140.156L198.561 -91.41L217.022 -108.815C217.902 -109.637 309.147 -193.37 453.895 -245.529C583.374 -292.181 690.016 -292.945 727.348 -292.945C731.044 -292.945 734.054 -292.945 736.283 -292.891L736.78 -292.945ZM736.457 -289.575H736.343C734.125 -289.619 731.093 -289.63 727.37 -289.633C690.189 -289.633 583.975 -288.879 455.009 -242.419C310.89 -190.49 220.158 -107.237 219.295 -106.409L203.669 -91.6621L498.757 135.487L498.776 89.4216L350.063 -23.5995L390.287 -63.8781L392.664 -93.2952L342.871 -149.022L344.606 -150.044C357.845 -157.87 371.471 -165.361 385.109 -172.307L386.474 -173.008L438.067 -85.9546L438.299 -86.1053L439.708 -83.6092C440.013 -83.0904 440.51 -82.7132 441.09 -82.5593C441.67 -82.4055 442.288 -82.4873 442.808 -82.7871L470.032 -98.6766C470.553 -98.9821 470.932 -99.4826 471.086 -100.068C471.239 -100.654 471.155 -101.277 470.851 -101.8L469.212 -104.606L469.439 -104.729L419.641 -188.777L421.343 -189.531C436.417 -196.192 451.898 -202.384 467.358 -207.938C468.45 -208.344 469.573 -208.733 470.687 -209.125L472.11 -209.624L519.846 -103.79C520.285 -102.805 520.934 -101.93 521.747 -101.223C522.559 -100.517 523.516 -99.9978 524.549 -99.7014C525.582 -99.4018 526.668 -99.329 527.731 -99.4879C528.795 -99.6467 529.812 -100.034 530.714 -100.622L664.549 -188.799L664.315 -44.4238C664.315 -43.7649 664.576 -43.1332 665.041 -42.6675C665.239 -42.4579 665.477 -42.29 665.741 -42.1738C666.004 -42.0576 666.288 -41.9953 666.576 -41.9907L698.533 -41.9441C699.136 -41.9448 699.714 -42.1855 700.141 -42.6134C700.567 -43.0413 700.807 -43.6215 700.808 -44.2266L701.128 -252.5L702.723 -252.549C708.661 -252.73 714.741 -252.823 720.79 -252.823H720.965H735.775V-251.179C735.775 -251.179 735.731 -132.927 735.731 -131.439C735.731 -130.288 736.657 -127.927 737.796 -127.187C747.915 -120.553 771.664 -104.94 773.896 -103.121C775.038 -102.178 777.318 -102.376 780.003 -103.647C782.188 -104.672 852.741 -142.945 875.925 -155.521L881.156 -158.36C882.827 -159.264 884.6 -160.676 885.081 -164.279C885.376 -166.41 887.14 -179.349 888.719 -190.934L890.571 -204.519C890.972 -207.445 889.828 -210.72 887.591 -213.06C885.87 -214.846 877.362 -222.948 866.425 -233.215L862.446 -236.955L867.824 -236.057C903.217 -230.136 930.773 -221.885 947.661 -216.005L949.415 -215.397L868.384 -48.0955C868.233 -47.8307 868.137 -47.538 868.101 -47.235C868.065 -46.9321 868.09 -46.625 868.175 -46.332C868.26 -46.039 868.402 -45.7661 868.595 -45.5296C868.787 -45.2931 869.024 -45.0979 869.293 -44.9554L902.793 -24.4216C904.042 -23.7585 906.197 -23.9804 907.833 -24.9888C909.619 -25.9204 1075.92 -112.396 1078.81 -113.955C1079.81 -114.5 1080.66 -115.263 1081.32 -116.185C1081.97 -117.108 1082.41 -118.167 1082.61 -119.284C1082.73 -120.252 1084.16 -130.724 1085.61 -141.449L1088.4 -161.922C1088.66 -163.827 1088.02 -165.821 1086.52 -167.849C1085.05 -169.83 1051.45 -207.196 1037.38 -222.811L1008.06 -202.636L1057.29 -144.101L915.942 -67.4758L918.302 -72.1777C926.428 -88.3631 997.716 -230.366 998.527 -231.788C999.589 -233.687 999.947 -235.41 999.529 -236.635C999.256 -237.405 998.674 -237.988 997.77 -238.375C981.773 -245.085 921.91 -264.909 875.532 -271.866L813.167 -284.287L786.823 -246.061L852.889 -184.958L772.962 -141.986L773.016 -287.904L736.908 -289.627L736.457 -289.575ZM664.814 -250.393V-233.993L664.088 -233.5L544.278 -152.614C543.348 -151.992 542.293 -151.584 541.188 -151.419C540.083 -151.255 538.955 -151.339 537.886 -151.664C536.817 -151.99 535.833 -152.549 535.005 -153.302C534.177 -154.054 533.526 -154.982 533.098 -156.017L506.544 -220.803L508.298 -221.321C558.257 -236.04 610.316 -245.773 663.028 -250.247L664.814 -250.393ZM661.523 -235.758V-246.795C610.547 -242.383 560.126 -232.96 510.985 -218.663L536.144 -157.286C536.38 -156.701 536.745 -156.177 537.212 -155.753C537.678 -155.329 538.233 -155.016 538.837 -154.836C539.44 -154.652 540.077 -154.604 540.701 -154.696C541.325 -154.789 541.921 -155.019 542.445 -155.371L661.523 -235.758ZM311.516 -129.247L355.119 -80.4526L320.671 -45.9281L260.68 -91.5525L262.3 -92.8814C272.28 -101.082 288.714 -113.911 310.325 -128.444L311.516 -129.247ZM350.574 -80.5787L310.969 -124.899C291.178 -111.527 275.858 -99.6713 266.025 -91.6539L320.379 -50.3204L350.574 -80.5787Z" fill="white" fill-opacity="0.15"/>
<path d="M1186.63 -137.741L1219.86 -110.278L1218.34 -108.998L939.538 126.281L939.559 69.5399L1186.63 -137.741ZM1214.71 -110.251L1186.65 -133.442L942.851 71.0798V119.157L1214.71 -110.251Z" fill="white" fill-opacity="0.15"/>
<path d="M1245.07 -84.4065C1247.16 -84.4065 1249.09 -83.8037 1250.23 -82.7625C1279.46 -55.8251 1312.44 -18.4346 1338.48 17.249C1339.75 18.9916 1340.25 21.9071 1339.77 24.7101C1339.28 27.5132 1337.83 29.8422 1335.69 31.2862C1333.98 32.4288 1312.22 47.1537 1287.43 63.9639C1297.45 80.5576 1311.39 103.514 1322.47 121.321C1337.75 145.888 1355.39 180.613 1365.02 200.13L1427.29 165.803L1436.8 183.531C1477.81 286.077 1489.89 377.027 1495.82 444.807C1496.05 447.616 1494.35 448.813 1492.68 449C1485.35 449.772 1458.63 452.611 1457.1 452.778C1456.15 452.874 1454.95 452.891 1454.02 452.107C1453.1 451.323 1452.95 450.282 1452.88 449.422C1448.66 385.817 1429.19 301.679 1402 229.361L1296.1 287.45C1295.6 287.76 1295.04 287.968 1294.46 288.062C1293.88 288.157 1293.29 288.134 1292.72 287.998C1292.22 287.868 1291.76 287.64 1291.36 287.327C1290.95 287.014 1290.62 286.622 1290.37 286.176L1273.28 255.062C1272.62 253.936 1271.91 251.684 1275.04 249.719L1327.17 220.976C1324.24 214.998 1321.46 209.433 1318.73 204.054L1266.79 235.126C1266.29 235.427 1265.73 235.624 1265.16 235.706C1264.58 235.788 1263.99 235.753 1263.43 235.603C1262.88 235.459 1262.35 235.205 1261.9 234.855C1261.44 234.506 1261.06 234.069 1260.78 233.57L1243.16 204.018C1242.87 203.518 1242.67 202.965 1242.59 202.39C1242.51 201.816 1242.55 201.231 1242.69 200.67C1242.84 200.108 1243.09 199.581 1243.44 199.119C1243.79 198.657 1244.23 198.271 1244.73 197.982L1298.5 165.814C1294.23 158.142 1290.29 151.371 1286.75 145.617L1232.82 181.923C1231.85 182.566 1230.67 182.802 1229.53 182.579C1228.4 182.357 1227.39 181.694 1226.74 180.733L1207.62 152.116C1206.97 151.149 1206.73 149.964 1206.95 148.821C1207.18 147.677 1207.84 146.669 1208.8 146.017L1264.12 108.769C1259.8 101.664 1255.56 94.6688 1251.67 88.2187C1222.56 107.977 1197.07 125.239 1197.07 125.239C1196.6 125.568 1196.06 125.8 1195.5 125.921C1194.94 126.042 1194.36 126.05 1193.79 125.945C1193.22 125.839 1192.68 125.622 1192.2 125.307C1191.72 124.991 1191.3 124.583 1190.98 124.105L1171.56 95.6908C1170.9 94.73 1170.65 93.5475 1170.86 92.4025C1171.08 91.2575 1171.73 90.2436 1172.69 89.5833L1284.28 13.5883L1242.65 -28.9371L939.519 206.29L939.538 150.848L940.152 150.352C991.635 108.868 1087.61 34.0619 1225.42 -71.9886C1233.59 -78.2907 1238.53 -82.072 1238.9 -82.3789C1240.65 -83.7818 1242.94 -84.4065 1245.07 -84.4065ZM1363.59 204.701L1362.83 203.15C1353.41 184.024 1335.29 148.19 1319.67 123.08C1308.28 104.769 1293.87 81.0289 1283.8 64.3393L1282.98 62.9939L1284.28 62.1117C1310.03 44.6521 1332.07 29.7299 1333.85 28.5434C1335.62 27.357 1336.28 25.491 1336.51 24.1594C1336.88 22.0769 1336.42 20.0493 1335.81 19.2273C1309.9 -16.311 1277.07 -53.5208 1248 -80.3184C1247.01 -81.2335 1243.27 -81.6445 1240.97 -79.7868C1240.56 -79.458 1235.89 -75.8658 1227.42 -69.35C1090.18 36.2649 994.44 110.882 942.834 152.448L942.818 199.56L1242.96 -33.3431L1289.41 14.1061L1174.55 92.3041C1174.32 92.4698 1174.16 92.7202 1174.11 93.0018C1174.06 93.2834 1174.12 93.5739 1174.28 93.8112L1193.69 122.22C1193.86 122.458 1194.11 122.62 1194.4 122.672C1194.68 122.723 1194.98 122.659 1195.21 122.494C1195.23 122.494 1221.56 104.651 1251.25 84.4895L1252.69 83.5141L1253.59 85.0019C1257.97 92.2685 1262.82 100.278 1267.75 108.394L1268.57 109.744L1210.65 148.749C1210.41 148.912 1210.25 149.162 1210.19 149.445C1210.14 149.728 1210.2 150.021 1210.36 150.261L1229.48 178.878C1229.64 179.116 1229.9 179.278 1230.18 179.329C1230.46 179.38 1230.76 179.317 1230.99 179.152L1233.08 177.736L1287.51 141.107L1288.71 142.477C1292.69 148.897 1297.22 156.676 1302.16 165.592L1302.94 166.995L1246.4 200.818C1246.27 200.89 1246.16 200.987 1246.07 201.102C1245.99 201.217 1245.92 201.349 1245.89 201.49C1245.85 201.63 1245.84 201.777 1245.86 201.92C1245.88 202.064 1245.93 202.203 1246 202.328L1263.62 231.876C1263.69 232.002 1263.78 232.112 1263.89 232.2C1264 232.288 1264.13 232.352 1264.27 232.389C1264.41 232.425 1264.56 232.432 1264.7 232.411C1264.84 232.39 1264.98 232.341 1265.11 232.265L1320.06 199.385L1320.86 200.958C1324.07 207.26 1327.33 213.792 1330.82 220.919L1331.51 222.335L1276.71 252.553C1276.11 252.931 1276.02 253.139 1276.01 253.161C1276.01 253.161 1276.04 253.257 1276.13 253.407L1293.21 284.543C1293.24 284.604 1293.28 284.659 1293.34 284.702C1293.39 284.746 1293.45 284.777 1293.52 284.795C1293.85 284.838 1294.18 284.756 1294.45 284.564L1403.7 224.623L1404.37 226.396C1432.03 299.394 1451.86 384.757 1456.14 449.178C1456.14 449.286 1456.16 449.394 1456.17 449.501C1456.36 449.504 1456.54 449.495 1456.72 449.474C1458.24 449.309 1484.97 446.46 1492.29 445.698C1492.37 445.692 1492.44 445.675 1492.51 445.646C1492.49 445.646 1492.53 445.454 1492.51 445.073C1486.59 377.553 1474.57 286.94 1433.75 184.838L1425.94 170.297L1363.59 204.701Z" fill="white" fill-opacity="0.15"/>
<path d="M1084.15 126.908C1088.3 126.908 1092.81 128.376 1094.7 129.977C1097.32 132.218 1099 133.794 1099.07 133.859C1102.93 137.331 1137.6 174.672 1176.47 236.564C1218.69 303.723 1243.49 358.159 1243.66 358.603L1252.55 379.992L1145.62 419.982L1349.83 416.346C1364.92 391.875 1369.98 384.699 1372.25 382.036C1371.77 380.466 1370.81 377.063 1368.97 370.558C1364.08 353.178 1354.97 320.826 1350.89 310.77L1350.36 309.447L1371.58 273.401C1373.42 270.278 1377.51 270.765 1380.73 272.626L1381.65 273.149L1382 274.163C1382.38 275.314 1404.5 349.596 1413.23 379.929C1414.01 382.63 1413.74 390.261 1411.34 394.023C1406.48 401.545 1397.29 415.829 1389.49 427.94C1382.75 438.404 1377.05 447.249 1376.1 448.715C1374.21 451.655 1369.55 456.598 1359.59 456.598L1058.2 456.488C1051.5 456.488 1046.75 452.981 1045.81 447.336L1042.35 426.315C1041.85 423.356 1042.42 420.314 1043.96 417.743C1045.51 415.172 1047.92 413.243 1050.76 412.308L1194.47 354.137C1189.38 343.338 1182.6 330.594 1173.78 315.288L1072.26 370.023C1068.51 371.873 1065.85 369.982 1064.7 367.807L1049.72 339.472C1048.8 337.792 1048.84 335.877 1049.84 334.617C1050.23 334.126 1051.3 333.096 1053.32 333.436L1152.64 279.914C1148.71 273.533 1144.47 266.713 1140.02 259.616C1113.14 216.841 1095.32 191.567 1082.5 178.062L1067.11 188.129C1077.5 202.259 1097.37 229.388 1110.51 247.338C1117.82 257.317 1123.1 264.532 1123.41 264.943C1124.35 266.214 1125.13 268.395 1124.75 270.423C1124.66 271.02 1124.44 271.589 1124.11 272.095C1123.78 272.601 1123.35 273.031 1122.84 273.357L1111.59 280.482C1104.39 285.038 1097 289.718 1096.02 290.346C1093.39 292.014 1088.83 293.426 1083.95 292.351C1082.75 292.077 1071.24 290.513 1056.67 288.515C1021.46 283.69 962.536 275.615 945.626 272.034C941.556 271.176 939.418 266.466 939.186 265.932L939.052 265.617L939.076 233.03C939.166 232.347 940.065 226.292 943.575 223.645C959.638 211.55 1022.29 167.628 1055.95 144.03C1068.24 135.413 1077.13 129.185 1077.95 128.571C1079.54 127.376 1081.79 126.908 1084.15 126.908ZM1248.21 378.09L1240.64 359.869C1240.43 359.389 1215.55 304.904 1173.7 238.323C1131.96 171.864 1097.15 136.561 1096.86 136.298C1096.81 136.257 1095.13 134.679 1092.57 132.495C1090.29 130.558 1082.66 129.174 1079.95 131.221C1079.08 131.87 1070.64 137.797 1057.86 146.748C1024.2 170.337 961.577 214.236 945.56 226.292C943.558 227.799 942.592 231.81 942.362 233.367V264.907C942.941 266.077 944.446 268.406 946.32 268.798C963.112 272.36 1021.96 280.421 1057.13 285.238C1074.35 287.597 1083.4 288.841 1084.66 289.115C1087.94 289.828 1091.38 289.267 1094.27 287.545C1095.27 286.918 1102.65 282.238 1109.83 277.681L1121.09 270.557C1121.21 270.473 1121.31 270.363 1121.38 270.235C1121.45 270.107 1121.5 269.964 1121.51 269.817C1121.69 268.861 1121.27 267.59 1120.77 266.916C1120.46 266.494 1115.44 259.649 1107.86 249.286C1094.26 230.72 1073.47 202.336 1063.42 188.671L1062.38 187.26L1082.97 173.79L1083.92 174.763C1096.98 188.189 1115.14 213.808 1142.81 257.841C1147.62 265.513 1152.18 272.848 1156.36 279.662L1157.28 281.158L1053.74 336.959L1053.1 336.77C1052.87 336.683 1052.63 336.659 1052.39 336.702C1052.31 337.114 1052.4 337.542 1052.62 337.896L1067.61 366.253C1068.61 368.138 1070.22 367.349 1070.75 367.075L1175.03 310.852L1175.84 312.236C1185.53 329.008 1192.85 342.774 1198.19 354.315L1198.93 355.896L1051.9 415.407C1049.78 416.088 1047.98 417.51 1046.83 419.413C1045.68 421.317 1045.25 423.573 1045.61 425.769L1049.09 446.775C1050.05 452.529 1055.8 453.162 1058.23 453.162L1359.62 453.271C1368.01 453.271 1371.83 449.276 1373.36 446.895C1374.31 445.427 1380 436.587 1386.74 426.126C1394.54 414.012 1403.74 399.728 1408.59 392.209C1410.36 389.453 1410.68 382.893 1410.09 380.825C1401.45 350.835 1380.32 279.832 1378.96 275.404C1378.23 275.037 1375.28 273.637 1374.44 275.078L1354.04 309.721C1358.23 320.152 1367.28 352.317 1372.16 369.651C1373.91 375.846 1375.41 381.2 1375.65 381.8L1376.03 382.784L1375.31 383.573C1372.63 386.368 1365.28 397.577 1352.17 418.845L1351.7 419.613L1126.43 423.624L1248.21 378.09ZM1032.5 206.838L1033.41 208.134C1042.48 220.932 1061.19 247.401 1061.19 247.401L1063.24 250.297L976.952 243.187L1032.5 206.838ZM1056.46 246.417C1051.56 239.499 1039.04 221.798 1031.64 211.345L986.817 240.68L1056.46 246.417Z" fill="white" fill-opacity="0.15"/>
</g>
<g opacity="0.33">
<path d="M532.696 -8.31287L576.425 -8.28822V-6.64419L576.22 457.428L532.489 457.412V455.768L532.696 -8.31287ZM573.12 -4.98374L535.988 -5.00017L535.78 454.113L572.926 454.126L573.12 -4.98374Z" fill="white" fill-opacity="0.15"/>
<path d="M665.021 95.4965L708.742 95.5129V98.8201L707.092 98.8585L665.021 98.842V95.4965Z" fill="white" fill-opacity="0.15"/>
<path d="M705.921 254.556L732.751 254.583L732.748 257.893L705.921 257.882V254.556Z" fill="white" fill-opacity="0.15"/>
<path d="M746.861 254.569L775.338 254.6V257.907L773.688 257.926L746.861 257.915V254.569Z" fill="white" fill-opacity="0.15"/>
<path d="M598.776 -8.29919L707.169 -8.24163L908.037 -8.15122L908.021 35.7278H906.382L708.794 35.6346V54.9628L908.032 55.0724V98.9322H906.379L665.054 98.809L665.098 35.6072H642.808L642.619 457.466H598.604V455.822L598.776 -8.29919ZM904.74 -4.84127L602.072 -4.99195L601.87 454.129L639.29 454.146L639.478 32.2863H668.362L668.321 95.4908L904.699 95.6113L904.716 58.3687L705.478 58.2591V32.3191H707.117L904.705 32.4123L904.74 -4.84127Z" fill="white" fill-opacity="0.15"/>
<path d="M598.775 -6.63037L602.072 -6.62492L602.059 35.5799H598.759L598.743 33.9222L598.775 -6.63037Z" fill="white" fill-opacity="0.15"/>
<path d="M664.986 254.542L775.332 254.619L775.288 324.144L746.811 324.114L746.844 283.597L734.381 283.578L734.348 324.131L705.871 324.098L705.907 283.564L693.444 283.545L693.408 324.114L664.934 324.084L664.986 254.542ZM772.054 257.926L668.294 257.849L668.253 320.777L690.133 320.804L690.169 280.233L709.225 280.263L709.193 320.793L731.073 320.818L731.106 280.265L750.163 280.296L750.13 320.81L772.011 320.832L772.054 257.926Z" fill="white" fill-opacity="0.15"/>
<path d="M665.033 121.477L797.97 121.562L799.608 121.527H841.671L841.614 391.018L797.89 391.004L797.937 165.408L775.354 165.384L775.31 233.761L664.964 233.72L665.008 165.323L664.992 163.679L665.033 121.477ZM799.595 124.872L668.329 124.787L668.297 162.101L668.313 163.682L668.275 230.429L770.476 230.503L772.014 230.468L772.057 162.085L801.231 162.118L801.187 387.708L838.312 387.724L838.372 124.85L801.247 124.834L799.595 124.872ZM705.44 162.044L734.939 162.074V193.228H705.44V162.044ZM731.631 165.378L708.737 165.354V189.913H731.634L731.631 165.378Z" fill="white" fill-opacity="0.15"/>
<path d="M664.989 189.877H668.288L668.305 191.532L668.272 232.085L664.975 232.082L664.989 189.877Z" fill="white" fill-opacity="0.15"/>
<path d="M664.888 413.566H668.591L668.594 457.453L664.874 457.436L664.888 413.566Z" fill="white" fill-opacity="0.15"/>
<path d="M864.254 121.551H907.988V123.195L907.832 457.305H905.278L903.64 457.45L707.368 457.414H665.306V347.089H774.922L774.898 413.582L864.114 413.598L864.254 121.551ZM904.691 124.875L867.545 124.859L867.4 416.911L771.59 416.895L771.615 350.399H668.597V389.308V415.215V454.124H707.382L902.004 454.159L904.549 454.014L904.691 124.875ZM705.727 387.645H734.46V416.859H705.708L705.727 387.645ZM731.172 390.968H709.032V413.585H731.188L731.172 390.968Z" fill="white" fill-opacity="0.15"/>
</g>
</g>
<defs>
<clipPath id="clip0_1_14374">
<rect width="1440" height="440" fill="white"/>
</clipPath>
</defs>
</svg>
