<svg width="1440" height="728" viewBox="0 0 1440 728" fill="none" xmlns="http://www.w3.org/2000/svg">
<rect y="1" width="1440" height="725" fill="#1F3673"/>
<path d="M450.5 183L424.5 86.5H242L207.5 210.5L316 265.5" stroke="#098EA0"/>
<path d="M242.5 86L219 34M242.5 86L451.5 183.5L524 95.5M242.5 86L316.5 266.5L242.5 313M242.5 86L139.5 210M242.5 86H1M219 34L424.5 86M219 34L469.5 23.5M219 34L1 86M219 34L1 1L469.5 23.5M424.5 86L469.5 23.5M424.5 86L524 95.5M469.5 23.5L524 95.5M242.5 313L207.5 210M242.5 313L192 579M207.5 210H139.5M207.5 210L101 387.5M139.5 210L1 86M139.5 210L1 266.5L101 387.5M101 387.5L192 579M101 387.5L1 483L192 579M192 579L304 387.5L424.5 636M192 579L424.5 636M192 579L1 726L424.5 636M424.5 636L451.5 726L571 524.5L599.5 726L746 695L792 726L875 605.5L1000 726L1072 623M1072 623L1269 726L1439.5 555M1072 623L1439.5 555M1072 623L1227.5 417.5M1439.5 555L1227.5 417.5M1227.5 417.5L1439.5 290.5L1269 135M1227.5 417.5L1269 135M1227.5 417.5L1000 210M1227.5 417.5H1061L1000 210M1269 135L1000 210M1269 135L1175 1L1000 210M1269 135L1439.5 1M1000 210L899 246.5L956 52L1000 210Z" stroke="#098EA0"/>
<path d="M958 52.6286H855M958 52.6286V1L855 52.6286M958 52.6286L1087 102.29V1M855 52.6286L896.5 238L833 173.587L855 52.6286ZM855 52.6286H765L833 1L855 52.6286Z" stroke="#098EA0"/>
<circle cx="217" cy="33" r="10" fill="#CDCDCD"/>
<circle cx="469" cy="23" r="10" fill="#CDCDCD"/>
<circle cx="425" cy="87" r="10" fill="#CDCDCD"/>
<circle cx="207" cy="209" r="10" fill="#CDCDCD"/>
<circle cx="102" cy="389" r="10" fill="#CDCDCD"/>
<circle cx="187" cy="580" r="10" fill="#CDCDCD"/>
<circle cx="1000" cy="209" r="10" fill="#CDCDCD"/>
<circle cx="953" cy="53" r="10" fill="#CDCDCD"/>
<circle cx="1089" cy="97" r="10" fill="#CDCDCD"/>
<circle cx="1226" cy="417" r="10" fill="#CDCDCD"/>
<circle cx="1429" cy="554" r="10" fill="#CDCDCD"/>
<circle cx="1270" cy="128" r="10" fill="#CDCDCD"/>
<path d="M316 265.5L450.5 182.5L510.5 346.35M316 265.5L304 387M316 265.5L510.5 346.35M304 387L242.5 311.5L510.5 346.35M304 387L510.5 346.35M1061.5 418L900 247.5L895.5 236.5M1061.5 418L855.5 391.212M1061.5 418L876.5 606M1061.5 418L1071.5 621L876.5 606M895.5 236.5L855.5 391.212M895.5 236.5H810M855.5 391.212L810 236.5M855.5 391.212L743 376.583M855.5 391.212L571 525.5M855.5 391.212L876.5 606M810 236.5L630.5 361.954M810 236.5L510.5 346.35M810 236.5L832.5 176M810 236.5L524.5 96M630.5 361.954L743 376.583M630.5 361.954L510.5 346.35M743 376.583L571 525.5M571 525.5L743 694L876.5 606M571 525.5L876.5 606M571 525.5L510.5 346.35M510.5 346.35L425.5 636.5M510.5 346.35L524.5 96M524.5 96L832.5 176M767.5 53L832.5 176" stroke="#098EA0"/>
<circle cx="425" cy="635" r="10" fill="#CDCDCD"/>
<circle cx="303" cy="389" r="10" fill="#CDCDCD"/>
<circle cx="313" cy="317" r="10" fill="#CDCDCD"/>
<circle cx="514" cy="347" r="10" fill="#CDCDCD"/>
<circle cx="574" cy="525" r="10" fill="#CDCDCD"/>
<circle cx="740" cy="379" r="10" fill="#CDCDCD"/>
<circle cx="832" cy="176" r="10" fill="#CDCDCD"/>
<circle cx="852" cy="389" r="10" fill="#CDCDCD"/>
<circle cx="1062" cy="417" r="10" fill="#CDCDCD"/>
<circle cx="872" cy="600" r="10" fill="#CDCDCD"/>
<circle cx="1072" cy="625" r="10" fill="#CDCDCD"/>
<path d="M469 20L617 48.5M617 48.5L711 2L768.5 51.5L523 95L617 48.5Z" stroke="#098EA0"/>
<circle cx="750" cy="694" r="10" fill="#CDCDCD"/>
<circle cx="899" cy="238" r="10" fill="#CDCDCD"/>
</svg>
