<svg width="26" height="26" viewBox="0 0 26 26" fill="none" xmlns="http://www.w3.org/2000/svg">
<path d="M17.3333 3.25L17.3333 6.5M8.66666 3.25L8.66666 6.5" stroke="#49BCBC" stroke-width="2" stroke-linecap="round"/>
<path fill-rule="evenodd" clip-rule="evenodd" d="M15.3333 4.33337H10.6667L10.6667 6.50004C10.6667 7.60461 9.77124 8.50004 8.66667 8.50004C7.5621 8.50004 6.66667 7.60461 6.66667 6.50004L6.66667 4.40075C5.51768 4.49625 4.76006 4.72712 4.2019 5.28528C3.25 6.23718 3.25 7.76924 3.25 10.8334V16.25C3.25 19.3142 3.25 20.8462 4.2019 21.7981C5.15381 22.75 6.68587 22.75 9.75 22.75H16.25C19.3141 22.75 20.8462 22.75 21.7981 21.7981C22.75 20.8462 22.75 19.3142 22.75 16.2501V16.25V10.8334V10.8334C22.75 7.76924 22.75 6.23718 21.7981 5.28528C21.2399 4.72712 20.4823 4.49625 19.3333 4.40075V6.50004C19.3333 7.60461 18.4379 8.50004 17.3333 8.50004C16.2288 8.50004 15.3333 7.60461 15.3333 6.50004L15.3333 4.33337ZM7.66667 13C7.66667 12.4478 8.11438 12 8.66667 12L17.3333 12C17.8856 12 18.3333 12.4478 18.3333 13C18.3333 13.5523 17.8856 14 17.3333 14L8.66667 14C8.11438 14 7.66667 13.5523 7.66667 13ZM8.66667 16.3334C8.11438 16.3334 7.66667 16.7811 7.66667 17.3334C7.66667 17.8857 8.11438 18.3334 8.66667 18.3334L17.3333 18.3334C17.8856 18.3334 18.3333 17.8857 18.3333 17.3334C18.3333 16.7811 17.8856 16.3334 17.3333 16.3334L8.66667 16.3334Z" fill="#49BCBC"/>
</svg>
