<svg width="26" height="21" viewBox="0 0 26 21" fill="none" xmlns="http://www.w3.org/2000/svg">
<path d="M0.999939 14.0998C0.999939 13.5397 0.999939 13.2597 1.10893 13.0458C1.20481 12.8576 1.35779 12.7046 1.54595 12.6087C1.75986 12.4998 2.03989 12.4998 2.59994 12.4998H3.46943C3.7232 12.4998 3.85008 12.4998 3.96896 12.5293C4.07434 12.5555 4.17474 12.5987 4.26623 12.6572C4.36944 12.7232 4.45669 12.8153 4.63118 12.9996L4.94757 13.3337C5.12209 13.518 5.20935 13.6101 5.31257 13.6761C5.40408 13.7346 5.5045 13.7778 5.6099 13.804C5.7288 13.8336 5.8557 13.8336 6.10951 13.8336L8.24185 13.8333C8.80196 13.8332 9.08202 13.8332 9.29596 13.9422C9.48414 14.038 9.63715 14.191 9.73303 14.3792C9.84204 14.5931 9.84204 14.8732 9.84204 15.4333V18.8999C9.84204 19.4599 9.84204 19.7399 9.73305 19.9539C9.63718 20.142 9.4842 20.295 9.29603 20.3909C9.08212 20.4999 8.8021 20.4999 8.24204 20.4999H2.59994C2.03989 20.4999 1.75986 20.4999 1.54595 20.3909C1.35779 20.295 1.20481 20.142 1.10893 19.9539C0.999939 19.7399 0.999939 19.4599 0.999939 18.8999V14.0998Z" stroke="#49BCBC"/>
<path d="M16.1579 14.0998C16.1579 13.5397 16.1579 13.2597 16.2669 13.0458C16.3628 12.8576 16.5157 12.7046 16.7039 12.6087C16.9178 12.4998 17.1978 12.4998 17.7579 12.4998H18.6274C18.8812 12.4998 19.008 12.4998 19.1269 12.5293C19.2323 12.5555 19.3327 12.5987 19.4242 12.6572C19.5274 12.7232 19.6146 12.8153 19.7891 12.9996L20.1055 13.3337C20.28 13.518 20.3673 13.6101 20.4705 13.6761C20.562 13.7346 20.6625 13.7778 20.7679 13.804C20.8868 13.8336 21.0137 13.8336 21.2675 13.8336L23.3998 13.8333C23.9599 13.8332 24.24 13.8332 24.4539 13.9422C24.6421 14.038 24.7951 14.191 24.891 14.3792C25 14.5931 25 14.8732 25 15.4333V18.8999C25 19.4599 25 19.7399 24.891 19.9539C24.7951 20.142 24.6422 20.295 24.454 20.3909C24.2401 20.4999 23.9601 20.4999 23.4 20.4999H17.7579C17.1978 20.4999 16.9178 20.4999 16.7039 20.3909C16.5157 20.295 16.3628 20.142 16.2669 19.9539C16.1579 19.7399 16.1579 19.4599 16.1579 18.8999V14.0998Z" stroke="#49BCBC"/>
<path d="M8.57886 2.1C8.57886 1.53995 8.57886 1.25992 8.68785 1.04601C8.78372 0.857847 8.9367 0.704867 9.12487 0.608993C9.33878 0.5 9.6188 0.5 10.1789 0.5H11.0483C11.3021 0.5 11.429 0.5 11.5479 0.529569C11.6533 0.555781 11.7537 0.598981 11.8452 0.657472C11.9484 0.723458 12.0356 0.815588 12.2101 0.999849L12.5265 1.33395C12.701 1.51824 12.7883 1.61039 12.8915 1.67638C12.983 1.73488 13.0834 1.77808 13.1888 1.80429C13.3077 1.83385 13.4346 1.83383 13.6884 1.8338L15.8208 1.83354C16.3809 1.83348 16.6609 1.83344 16.8749 1.94243C17.0631 2.03829 17.2161 2.19128 17.312 2.37945C17.421 2.59337 17.421 2.87343 17.421 3.43354V6.90011C17.421 7.46016 17.421 7.74019 17.312 7.9541C17.2161 8.14226 17.0631 8.29524 16.875 8.39111C16.661 8.50011 16.381 8.50011 15.821 8.50011H10.1789C9.61881 8.50011 9.33878 8.50011 9.12487 8.39111C8.9367 8.29524 8.78372 8.14226 8.68785 7.9541C8.57886 7.74019 8.57886 7.46016 8.57886 6.90011V2.1Z" stroke="#49BCBC"/>
<path d="M2.26288 10.5006V5.43386C2.26288 4.87381 2.26288 4.59378 2.37187 4.37987C2.46775 4.19171 2.62073 4.03873 2.80889 3.94286C3.0228 3.83386 3.30283 3.83386 3.86288 3.83386H5.42077M23.7366 10.5006V5.43386C23.7366 4.87381 23.7366 4.59378 23.6276 4.37987C23.5317 4.19171 23.3787 4.03873 23.1906 3.94286C22.9766 3.83386 22.6966 3.83386 22.1366 3.83386H20.5787" stroke="#49BCBC"/>
<path d="M3.52606 1.83276L6.68396 3.83279L3.52606 5.83282V1.83276Z" fill="#49BCBC"/>
<path d="M22.4736 1.83276L19.3157 3.83279L22.4736 5.83282V1.83276Z" fill="#49BCBC"/>
</svg>
