<svg width="24" height="24" viewBox="0 0 24 24" fill="none" xmlns="http://www.w3.org/2000/svg">
<circle cx="8" cy="16" r="1" fill="#49BCBC"/>
<path fill-rule="evenodd" clip-rule="evenodd" d="M0.217987 1.09202C0 1.51984 0 2.0799 0 3.2V5.42007L24 3.23825V3.2C24 2.0799 24 1.51984 23.782 1.09202C23.5903 0.715695 23.2843 0.409734 22.908 0.217987C22.4802 0 21.9201 0 20.8 0H3.2C2.0799 0 1.51984 0 1.09202 0.217987C0.715695 0.409734 0.409734 0.715695 0.217987 1.09202ZM24 5.2465L17.1187 5.87207L20.5177 24H20.8C21.9201 24 22.4802 24 22.908 23.782C23.2843 23.5903 23.5903 23.2843 23.782 22.908C24 22.4802 24 21.9201 24 20.8V5.2465ZM18.4829 24L15.118 6.05396L0 7.42832V20.8C0 21.9201 0 22.4802 0.217987 22.908C0.409734 23.2843 0.715695 23.5903 1.09202 23.782C1.51984 24 2.0799 24 3.2 24H18.4829ZM12.6666 16.0394C12.6666 19.0315 9.58267 21.0981 8.42879 21.7666C8.16201 21.9211 7.83782 21.9211 7.57104 21.7666C6.41716 21.0981 3.33325 19.0315 3.33325 16.0394C3.33325 13.2159 5.59441 11.3336 7.99992 11.3336C10.4888 11.3336 12.6666 13.2159 12.6666 16.0394Z" fill="#49BCBC"/>
</svg>
