<svg width="24" height="25" viewBox="0 0 24 25" fill="none" xmlns="http://www.w3.org/2000/svg">
<ellipse cx="17.7009" cy="5.34482" rx="1.8" ry="1.52744" fill="#49BCBC"/>
<path fill-rule="evenodd" clip-rule="evenodd" d="M6.97743 1.4688C6 2.59644 6 4.30627 6 7.72592C6 11.1456 6 12.8554 6.97743 13.983C7.1019 14.1267 7.23646 14.2612 7.38007 14.3857C8.50771 15.3631 10.2175 15.3631 13.6372 15.3631H16.3628C19.7825 15.3631 21.4923 15.3631 22.6199 14.3857C22.7635 14.2612 22.8981 14.1267 23.0226 13.983C24 12.8554 24 11.1456 24 7.72592C24 5.08367 24 3.46221 23.5491 2.34136V11.5445C22.6776 11.5445 21.8343 11.235 21.1698 10.671L20.5292 10.1274L20.5292 10.1274C19.9276 9.61695 19.6268 9.3617 19.2996 9.23935C18.8479 9.07046 18.3504 9.07046 17.8987 9.23935C17.5715 9.3617 17.2707 9.61694 16.6691 10.1274L16.6691 10.1274L16.6691 10.1274L16.5213 10.2528C16.0169 10.6808 15.7647 10.8948 15.5044 10.9438C15.2486 10.9919 14.9842 10.9383 14.7672 10.7946C14.5465 10.6482 14.3973 10.353 14.0991 9.76252L14.0991 9.76251C13.5027 8.58154 13.2045 7.99105 12.7629 7.69841C12.329 7.41086 11.8001 7.3038 11.2885 7.39997C10.7679 7.49784 10.2635 7.92585 9.25473 8.78189L7.34912 10.3989V1.09326C7.21709 1.2101 7.09292 1.33555 6.97743 1.4688Z" fill="#49BCBC"/>
<path d="M21.965 13.5414L22.6199 14.2971L21.965 13.5414C21.612 13.8473 21.1262 14.0497 20.2291 14.1598C19.3083 14.2727 18.0982 14.2745 16.3628 14.2745H13.6372C11.9018 14.2745 10.6917 14.2727 9.7709 14.1598C8.87383 14.0497 8.38796 13.8473 8.03505 13.5414C7.92734 13.4481 7.82643 13.3472 7.73307 13.2395C7.42717 12.8865 7.22479 12.4007 7.11474 11.5036C7.00176 10.5828 7 9.37266 7 7.63731C7 5.90196 7.00176 4.69185 7.11474 3.77102C7.22479 2.87395 7.42717 2.38809 7.73307 2.03517C7.82643 1.92747 7.92734 1.82655 8.03505 1.73319C8.38796 1.42729 8.87383 1.22491 9.7709 1.11486C10.6917 1.00189 11.9018 1.00012 13.6372 1.00012H16.3628C18.0982 1.00012 19.3083 1.00189 20.2291 1.11486C21.1262 1.22491 21.612 1.42729 21.965 1.73319L22.6187 0.978958L21.965 1.73319C22.0727 1.82655 22.1736 1.92747 22.2669 2.03517C22.5728 2.38809 22.7752 2.87395 22.8853 3.77102C22.9982 4.69185 23 5.90196 23 7.63731C23 9.37266 22.9982 10.5828 22.8853 11.5036C22.7752 12.4007 22.5728 12.8865 22.2669 13.2395C22.1736 13.3472 22.0727 13.4481 21.965 13.5414Z" stroke="#49BCBC" stroke-width="2"/>
<path fill-rule="evenodd" clip-rule="evenodd" d="M7 6.07959H6C3.17157 6.07959 1.75736 6.07959 0.87868 6.8704C0 7.66121 0 8.93401 0 11.4796V18.6796C0 21.2252 0 22.498 0.87868 23.2888C1.75736 24.0796 3.17157 24.0796 6 24.0796H10C12.8284 24.0796 14.2426 24.0796 15.1213 23.2888C16 22.498 16 21.2252 16 18.6796V14.2796H10L9.94559 14.2796H9.94558H9.94557C9.52151 14.2797 9.10939 14.2798 8.76948 14.2341C8.38628 14.1825 7.949 14.057 7.58579 13.6938C7.22257 13.3306 7.09705 12.8933 7.04553 12.5101C6.99983 12.1702 6.99991 11.7581 6.99999 11.334L7 11.2796V6.07959ZM16 12.0708V12.2796H15.6817L16 12.0708ZM15.3333 12.0708V12.2796H10C9.50033 12.2796 9.22617 12.2775 9.03598 12.2519L9.02869 12.2509L9.02769 12.2436C9.0194 12.1819 9.01357 12.1114 9.00948 12.0272L15.3333 12.0708ZM6.83766 15.193L10.3341 16.7394C11.2219 17.1321 11.222 18.431 10.3341 18.8236L6.83766 20.3701C5.96773 20.7548 5 20.0963 5 19.1196V16.4435C5 15.4668 5.96773 14.8083 6.83766 15.193Z" fill="#49BCBC"/>
</svg>
