<svg width="24" height="22" viewBox="0 0 24 22" fill="none" xmlns="http://www.w3.org/2000/svg">
<path fill-rule="evenodd" clip-rule="evenodd" d="M0 6.4C0 4.15979 0 3.03969 0.435974 2.18404C0.819467 1.43139 1.43139 0.819467 2.18404 0.435974C3.03969 0 4.15979 0 6.4 0H17.6C19.8402 0 20.9603 0 21.816 0.435974C22.5686 0.819467 23.1805 1.43139 23.564 2.18404C24 3.03969 24 4.15979 24 6.4V11.7743C24 14.0145 24 15.1346 23.564 15.9903C23.1805 16.7429 22.5686 17.3549 21.816 17.7384C20.9603 18.1743 19.8402 18.1743 17.6 18.1743H5.33339L5.33333 18.1744L5.33332 18.1744L1.6976 21.7143C1.06388 22.3313 0 21.8822 0 20.9978V18.1744V18.1743V11.6836V6.4ZM8 5.4905C7.44772 5.4905 7 5.93821 7 6.4905C7 7.04278 7.44772 7.4905 8 7.4905H16C16.5523 7.4905 17 7.04278 17 6.4905C17 5.93821 16.5523 5.4905 16 5.4905H8ZM8 10.6832C7.44772 10.6832 7 11.1309 7 11.6832C7 12.2354 7.44772 12.6832 8 12.6832H12C12.5523 12.6832 13 12.2354 13 11.6832C13 11.1309 12.5523 10.6832 12 10.6832H8Z" fill="#49BCBC"/>
</svg>
