<svg width="80" height="81" viewBox="0 0 80 81" fill="none" xmlns="http://www.w3.org/2000/svg">
<circle cx="40" cy="30.4998" r="13.3333" fill="#243F8A"/>
<circle cx="56.6666" cy="30.5" r="10" fill="#243F8A"/>
<circle cx="23.3334" cy="30.5" r="10" fill="#243F8A"/>
<path fill-rule="evenodd" clip-rule="evenodd" d="M58.5615 60.5002H68.8951C69.4867 60.5002 69.9424 59.9899 69.8462 59.4061C69.2349 55.6977 66.5102 43.8335 56.6668 43.8335C53.7132 43.8335 51.4005 44.9017 49.5935 46.4973C54.6193 49.758 57.2179 55.4676 58.5615 60.5002Z" fill="#243F8A"/>
<path fill-rule="evenodd" clip-rule="evenodd" d="M30.4065 46.4973C28.5996 44.9017 26.2869 43.8335 23.3333 43.8335C13.49 43.8335 10.7651 55.6977 10.1539 59.4061C10.0576 59.9899 10.5133 60.5002 11.1049 60.5002H21.4385C22.7821 55.4676 25.3807 49.758 30.4065 46.4973Z" fill="#243F8A"/>
<path d="M40 47.1665C54.4228 47.1665 56.3646 62.1437 56.626 66.1766C56.6618 66.7277 56.219 67.1665 55.6667 67.1665H24.3334C23.7811 67.1665 23.3383 66.7277 23.374 66.1766C23.6355 62.1437 25.5773 47.1665 40 47.1665Z" fill="#243F8A"/>
</svg>
