<svg width="65" height="65" viewBox="0 0 65 65" fill="none" xmlns="http://www.w3.org/2000/svg">
<path d="M0 21.6667H21.6667V0H0V21.6667ZM3.61111 3.61111H18.0556V18.0556H3.61111V3.61111ZM7.22222 7.22222H14.4444V14.4444H7.22222V7.22222ZM43.3333 21.6667H65V0H43.3333V21.6667ZM46.9444 3.61111H61.3889V18.0556H46.9444V3.61111ZM50.5556 7.22222H57.7778V14.4444H50.5556V7.22222ZM0 65H21.6667V43.3333H0V65ZM3.61111 46.9444H18.0556V61.3889H3.61111V46.9444ZM7.22222 50.5556H14.4444V57.7778H7.22222V50.5556ZM61.3889 57.7778H65V65H57.7778V54.1667H61.3889V57.7778ZM61.3889 46.9444H65V50.5556H61.3889V46.9444ZM61.3889 43.3333V46.9444H57.7778V43.3333H61.3889ZM25.2778 50.5556H28.8889V65H25.2778V50.5556ZM10.8333 25.2778V32.5H3.61111V28.8889H0V25.2778H10.8333ZM25.2778 14.4444H28.8889V18.0556H25.2778V14.4444ZM36.1111 3.61111V10.8333H32.5V0H39.7222V3.61111H36.1111ZM25.2778 3.61111H28.8889V7.22222H25.2778V3.61111ZM61.3889 32.5H65V39.7222H57.7778V36.1111H61.3889V32.5ZM57.7778 25.2778V28.8889H50.5556V36.1111H43.3333V32.5H46.9444V25.2778H57.7778ZM32.5 39.7222H28.8889V36.1111H25.2778V32.5H32.5V39.7222ZM54.1667 46.9444H57.7778V50.5556H54.1667V46.9444ZM61.3889 28.8889V32.5H57.7778V28.8889H61.3889ZM28.8889 39.7222V43.3333H25.2778V39.7222H28.8889ZM50.5556 57.7778H54.1667V65H46.9444V57.7778H50.5556ZM39.7222 57.7778H43.3333V61.3889H39.7222V65H32.5V61.3889H36.1111V57.7778H39.7222ZM39.7222 54.1667V50.5556H46.9444V54.1667H39.7222ZM39.7222 36.1111H43.3333V46.9444H39.7222V50.5556H36.1111V54.1667H32.5V46.9444H28.8889V43.3333H39.7222V39.7222H36.1111V36.1111H39.7222ZM7.22222 36.1111V39.7222H3.61111V36.1111H7.22222ZM50.5556 50.5556H46.9444V46.9444H50.5556V50.5556ZM54.1667 43.3333H46.9444V39.7222H54.1667V43.3333ZM18.0556 25.2778H21.6667V28.8889H18.0556V32.5H21.6667V39.7222H18.0556V36.1111H14.4444V39.7222H10.8333V32.5H14.4444V25.2778H18.0556ZM28.8889 25.2778V18.0556H39.7222V28.8889H32.5V25.2778H36.1111V21.6667H32.5V25.2778H28.8889ZM28.8889 10.8333H32.5V14.4444H28.8889V10.8333ZM25.2778 25.2778H28.8889V28.8889H25.2778V25.2778ZM36.1111 14.4444V10.8333H39.7222V14.4444H36.1111Z" fill="white"/>
</svg>
